{
    "asset" : {
        "generator" : "Khronos glTF Blender I/O v3.3.27",
        "version" : "2.0"
    },
    "scene" : 0,
    "scenes" : [
        {
            "name" : "Scene",
            "nodes" : [
                3,
                8
            ]
        }
    ],
    "nodes" : [
        {
            "name" : "Cube",
            "rotation" : [
                -0.7071068286895752,
                0,
                0,
                0.7071067094802856
            ],
            "scale" : [
                100,
                99.99998474121094,
                99.99998474121094
            ]
        },
        {
            "children" : [
                0
            ],
            "name" : "RootNode"
        },
        {
            "children" : [
                1
            ],
            "name" : "c1e51c5b94eb46e9bc219398a849fcbf.fbx",
            "rotation" : [
                0.7071068286895752,
                0,
                0,
                0.7071067094802856
            ]
        },
        {
            "children" : [
                2
            ],
            "name" : "Sketchfab_model",
            "rotation" : [
                -0.7071068286895752,
                0,
                0,
                0.7071067094802856
            ]
        },
        {
            "mesh" : 0,
            "name" : "defaultMaterial"
        },
        {
            "children" : [
                4
            ],
            "name" : "pCube4",
            "translation" : [
                0,
                2.447706937789917,
                0
            ]
        },
        {
            "name" : "pTorus41",
            "translation" : [
                0,
                2.447706937789917,
                0
            ]
        },
        {
            "children" : [
                5,
                6
            ],
            "name" : "Collada visual scene group",
            "rotation" : [
                0.7071068286895752,
                0,
                0,
                0.7071067094802856
            ]
        },
        {
            "children" : [
                7
            ],
            "name" : "Sketchfab_model.001",
            "rotation" : [
                -0.7071068286895752,
                0,
                0,
                0.7071067094802856
            ]
        }
    ],
    "materials" : [
        {
            "doubleSided" : true,
            "name" : "M_Vogelcage",
            "normalTexture" : {
                "index" : 0
            },
            "pbrMetallicRoughness" : {
                "baseColorTexture" : {
                    "index" : 1
                },
                "metallicRoughnessTexture" : {
                    "index" : 2
                }
            }
        }
    ],
    "meshes" : [
        {
            "name" : "defaultMaterial",
            "primitives" : [
                {
                    "attributes" : {
                        "POSITION" : 0,
                        "NORMAL" : 1,
                        "TEXCOORD_0" : 2
                    },
                    "indices" : 3,
                    "material" : 0
                }
            ]
        }
    ],
    "textures" : [
        {
            "sampler" : 0,
            "source" : 0
        },
        {
            "sampler" : 0,
            "source" : 1
        },
        {
            "sampler" : 0,
            "source" : 2
        }
    ],
    "images" : [
        {
            "mimeType" : "image/png",
            "name" : "M_Vogelcage_normal",
            "uri" : "M_Vogelcage_normal.png"
        },
        {
            "mimeType" : "image/jpeg",
            "name" : "M_Vogelcage_baseColor",
            "uri" : "M_Vogelcage_baseColor.jpg"
        },
        {
            "mimeType" : "image/png",
            "name" : "M_Vogelcage_metallicRoughness",
            "uri" : "M_Vogelcage_metallicRoughness.png"
        }
    ],
    "accessors" : [
        {
            "bufferView" : 0,
            "componentType" : 5126,
            "count" : 2457,
            "max" : [
                54.100616455078125,
                160.3164825439453,
                54.100608825683594
            ],
            "min" : [
                -54.10060501098633,
                -1.4999999621068127e-05,
                -54.1005973815918
            ],
            "type" : "VEC3"
        },
        {
            "bufferView" : 1,
            "componentType" : 5126,
            "count" : 2457,
            "type" : "VEC3"
        },
        {
            "bufferView" : 2,
            "componentType" : 5126,
            "count" : 2457,
            "type" : "VEC2"
        },
        {
            "bufferView" : 3,
            "componentType" : 5123,
            "count" : 11874,
            "type" : "SCALAR"
        }
    ],
    "bufferViews" : [
        {
            "buffer" : 0,
            "byteLength" : 29484,
            "byteOffset" : 0,
            "target" : 34962
        },
        {
            "buffer" : 0,
            "byteLength" : 29484,
            "byteOffset" : 29484,
            "target" : 34962
        },
        {
            "buffer" : 0,
            "byteLength" : 19656,
            "byteOffset" : 58968,
            "target" : 34962
        },
        {
            "buffer" : 0,
            "byteLength" : 23748,
            "byteOffset" : 78624,
            "target" : 34963
        }
    ],
    "samplers" : [
        {
            "magFilter" : 9729,
            "minFilter" : 9987
        }
    ],
    "buffers" : [
        {
            "byteLength" : 102372,
            "uri" : "birdcage_nodoor.bin"
        }
    ]
}
