{
    "asset" : {
        "generator" : "Khronos glTF Blender I/O v3.3.27",
        "version" : "2.0"
    },
    "scene" : 0,
    "scenes" : [
        {
            "name" : "Scene",
            "nodes" : [
                8
            ]
        }
    ],
    "nodes" : [
        {
            "mesh" : 0,
            "name" : "Object_4"
        },
        {
            "children" : [
                0
            ],
            "name" : "MZ_25_d_Butelka_na_alkohol_edit06_2",
            "rotation" : [
                0.5765141844749451,
                -0.21504421532154083,
                0.18988335132598877,
                0.765069842338562
            ],
            "translation" : [
                -0.0034961288329213858,
                -0.008779729716479778,
                0.0019526237156242132
            ]
        },
        {
            "mesh" : 1,
            "name" : "Object_6"
        },
        {
            "children" : [
                2
            ],
            "name" : "MZ_25_d_etykieta_edit06_3",
            "rotation" : [
                0.5765141248703003,
                -0.21504418551921844,
                0.18988333642482758,
                0.7650697827339172
            ],
            "scale" : [
                1.0045380592346191,
                1.0045380592346191,
                1.0045380592346191
            ],
            "translation" : [
                -0.017625106498599052,
                -0.1282787024974823,
                0.1314825862646103
            ]
        },
        {
            "mesh" : 2,
            "name" : "Object_8"
        },
        {
            "children" : [
                4
            ],
            "name" : "MZ_25_d_korek_edit06_4",
            "rotation" : [
                0.5765141844749451,
                -0.21504421532154083,
                0.18988335132598877,
                0.765069842338562
            ],
            "translation" : [
                -0.001279850141145289,
                0.4976276457309723,
                -0.0004677435790654272
            ]
        },
        {
            "children" : [
                1,
                3,
                5
            ],
            "name" : "GLTF_SceneRootNode",
            "rotation" : [
                0.7071068286895752,
                0,
                0,
                0.7071067094802856
            ]
        },
        {
            "children" : [
                6
            ],
            "name" : "root"
        },
        {
            "children" : [
                7
            ],
            "name" : "Sketchfab_model",
            "rotation" : [
                -0.7071068286895752,
                0,
                0,
                0.7071067094802856
            ]
        }
    ],
    "materials" : [
        {
            "alphaMode" : "BLEND",
            "doubleSided" : true,
            "name" : "defaultMat",
            "pbrMetallicRoughness" : {
                "baseColorTexture" : {
                    "index" : 0
                },
                "metallicFactor" : 0.810373067855835,
                "roughnessFactor" : 0
            }
        },
        {
            "alphaMode" : "BLEND",
            "emissiveFactor" : [
                0.3211091458797455,
                0.3211091458797455,
                0.3211091458797455
            ],
            "emissiveTexture" : {
                "index" : 1
            },
            "name" : "defaultMat.001",
            "pbrMetallicRoughness" : {
                "baseColorTexture" : {
                    "index" : 2
                },
                "metallicFactor" : 0
            }
        },
        {
            "doubleSided" : true,
            "name" : "defaultMat.002",
            "pbrMetallicRoughness" : {
                "baseColorTexture" : {
                    "index" : 3
                },
                "metallicFactor" : 0
            }
        }
    ],
    "meshes" : [
        {
            "name" : "Object_0",
            "primitives" : [
                {
                    "attributes" : {
                        "POSITION" : 0,
                        "NORMAL" : 1,
                        "TEXCOORD_0" : 2
                    },
                    "indices" : 3,
                    "material" : 0
                }
            ]
        },
        {
            "name" : "Object_1",
            "primitives" : [
                {
                    "attributes" : {
                        "POSITION" : 4,
                        "NORMAL" : 5,
                        "TEXCOORD_0" : 6
                    },
                    "indices" : 7,
                    "material" : 1
                }
            ]
        },
        {
            "name" : "Object_2",
            "primitives" : [
                {
                    "attributes" : {
                        "POSITION" : 8,
                        "NORMAL" : 9,
                        "TEXCOORD_0" : 10
                    },
                    "indices" : 11,
                    "material" : 2
                }
            ]
        }
    ],
    "textures" : [
        {
            "sampler" : 0,
            "source" : 0
        },
        {
            "sampler" : 0,
            "source" : 1
        },
        {
            "sampler" : 0,
            "source" : 2
        },
        {
            "sampler" : 0,
            "source" : 3
        }
    ],
    "images" : [
        {
            "mimeType" : "image/png",
            "name" : "defaultMat_baseColor",
            "uri" : "defaultMat_baseColor.png"
        },
        {
            "mimeType" : "image/jpeg",
            "name" : "defaultMat.001_emissive",
            "uri" : "defaultMat_001_emissive.jpg"
        },
        {
            "mimeType" : "image/png",
            "name" : "defaultMat.001_baseColor",
            "uri" : "defaultMat_001_baseColor.png"
        },
        {
            "mimeType" : "image/jpeg",
            "name" : "defaultMat.002_baseColor",
            "uri" : "defaultMat_002_baseColor.jpg"
        }
    ],
    "accessors" : [
        {
            "bufferView" : 0,
            "componentType" : 5126,
            "count" : 705,
            "max" : [
                0.22191168367862701,
                0.25622987747192383,
                0.3535133898258209
            ],
            "min" : [
                -0.2291973978281021,
                -0.2844220697879791,
                -0.5146588087081909
            ],
            "type" : "VEC3"
        },
        {
            "bufferView" : 1,
            "componentType" : 5126,
            "count" : 705,
            "type" : "VEC3"
        },
        {
            "bufferView" : 2,
            "componentType" : 5126,
            "count" : 705,
            "type" : "VEC2"
        },
        {
            "bufferView" : 3,
            "componentType" : 5123,
            "count" : 3756,
            "type" : "SCALAR"
        },
        {
            "bufferView" : 4,
            "componentType" : 5126,
            "count" : 99,
            "max" : [
                0.149607315659523,
                0.1522555947303772,
                0.19231656193733215
            ],
            "min" : [
                -0.23751674592494965,
                -0.26055261492729187,
                -0.3147639036178589
            ],
            "type" : "VEC3"
        },
        {
            "bufferView" : 5,
            "componentType" : 5126,
            "count" : 99,
            "type" : "VEC3"
        },
        {
            "bufferView" : 6,
            "componentType" : 5126,
            "count" : 99,
            "type" : "VEC2"
        },
        {
            "bufferView" : 7,
            "componentType" : 5123,
            "count" : 273,
            "type" : "SCALAR"
        },
        {
            "bufferView" : 8,
            "componentType" : 5126,
            "count" : 91,
            "max" : [
                0.03943769633769989,
                0.049674972891807556,
                0.05864281579852104
            ],
            "min" : [
                -0.0346839465200901,
                -0.04323287308216095,
                -0.05668351426720619
            ],
            "type" : "VEC3"
        },
        {
            "bufferView" : 9,
            "componentType" : 5126,
            "count" : 91,
            "type" : "VEC3"
        },
        {
            "bufferView" : 10,
            "componentType" : 5126,
            "count" : 91,
            "type" : "VEC2"
        },
        {
            "bufferView" : 11,
            "componentType" : 5123,
            "count" : 408,
            "type" : "SCALAR"
        }
    ],
    "bufferViews" : [
        {
            "buffer" : 0,
            "byteLength" : 8460,
            "byteOffset" : 0,
            "target" : 34962
        },
        {
            "buffer" : 0,
            "byteLength" : 8460,
            "byteOffset" : 8460,
            "target" : 34962
        },
        {
            "buffer" : 0,
            "byteLength" : 5640,
            "byteOffset" : 16920,
            "target" : 34962
        },
        {
            "buffer" : 0,
            "byteLength" : 7512,
            "byteOffset" : 22560,
            "target" : 34963
        },
        {
            "buffer" : 0,
            "byteLength" : 1188,
            "byteOffset" : 30072,
            "target" : 34962
        },
        {
            "buffer" : 0,
            "byteLength" : 1188,
            "byteOffset" : 31260,
            "target" : 34962
        },
        {
            "buffer" : 0,
            "byteLength" : 792,
            "byteOffset" : 32448,
            "target" : 34962
        },
        {
            "buffer" : 0,
            "byteLength" : 546,
            "byteOffset" : 33240,
            "target" : 34963
        },
        {
            "buffer" : 0,
            "byteLength" : 1092,
            "byteOffset" : 33788,
            "target" : 34962
        },
        {
            "buffer" : 0,
            "byteLength" : 1092,
            "byteOffset" : 34880,
            "target" : 34962
        },
        {
            "buffer" : 0,
            "byteLength" : 728,
            "byteOffset" : 35972,
            "target" : 34962
        },
        {
            "buffer" : 0,
            "byteLength" : 816,
            "byteOffset" : 36700,
            "target" : 34963
        }
    ],
    "samplers" : [
        {
            "magFilter" : 9729,
            "minFilter" : 9987
        }
    ],
    "buffers" : [
        {
            "byteLength" : 37516,
            "uri" : "rum1_edited.bin"
        }
    ]
}
