{
    "asset" : {
        "generator" : "Khronos glTF Blender I/O v3.3.27",
        "version" : "2.0"
    },
    "scene" : 0,
    "scenes" : [
        {
            "name" : "Scene",
            "nodes" : [
                5
            ]
        }
    ],
    "nodes" : [
        {
            "mesh" : 0,
            "name" : "A_BottleChampagne_M_ChampagneBottleGlass_0"
        },
        {
            "mesh" : 1,
            "name" : "A_BottleChampagne_M_ChampagneSuit_0"
        },
        {
            "children" : [
                0,
                1
            ],
            "name" : "A_BottleChampagne",
            "rotation" : [
                -0.7071068286895752,
                0,
                0,
                0.7071067094802856
            ],
            "scale" : [
                100,
                99.99999237060547,
                99.99999237060547
            ]
        },
        {
            "children" : [
                2
            ],
            "name" : "RootNode"
        },
        {
            "children" : [
                3
            ],
            "name" : "112b63eb328e40f5a16b6d7d45bfeb9d.fbx",
            "rotation" : [
                0.7071068286895752,
                0,
                0,
                0.7071067094802856
            ],
            "scale" : [
                0.009999999776482582,
                0.010000000707805157,
                0.010000000707805157
            ]
        },
        {
            "children" : [
                4
            ],
            "name" : "Sketchfab_model",
            "rotation" : [
                -0.7071068286895752,
                0,
                0,
                0.7071067094802856
            ]
        }
    ],
    "materials" : [
        {
            "alphaMode" : "BLEND",
            "doubleSided" : true,
            "name" : "M_ChampagneBottleGlass",
            "normalTexture" : {
                "index" : 0
            },
            "pbrMetallicRoughness" : {
                "baseColorTexture" : {
                    "index" : 1
                },
                "metallicRoughnessTexture" : {
                    "index" : 2
                }
            }
        },
        {
            "doubleSided" : true,
            "name" : "M_ChampagneSuit",
            "normalTexture" : {
                "index" : 3
            },
            "pbrMetallicRoughness" : {
                "baseColorTexture" : {
                    "index" : 4
                },
                "metallicRoughnessTexture" : {
                    "index" : 5
                }
            }
        }
    ],
    "meshes" : [
        {
            "name" : "A_BottleChampagne_M_ChampagneBottleGlass_0",
            "primitives" : [
                {
                    "attributes" : {
                        "POSITION" : 0,
                        "NORMAL" : 1,
                        "TEXCOORD_0" : 2,
                        "TEXCOORD_1" : 3,
                        "TEXCOORD_2" : 4
                    },
                    "indices" : 5,
                    "material" : 0
                }
            ]
        },
        {
            "name" : "A_BottleChampagne_M_ChampagneSuit_0",
            "primitives" : [
                {
                    "attributes" : {
                        "POSITION" : 6,
                        "NORMAL" : 7,
                        "TEXCOORD_0" : 8,
                        "TEXCOORD_1" : 9,
                        "TEXCOORD_2" : 10
                    },
                    "indices" : 11,
                    "material" : 1
                }
            ]
        }
    ],
    "textures" : [
        {
            "sampler" : 0,
            "source" : 0
        },
        {
            "sampler" : 0,
            "source" : 1
        },
        {
            "sampler" : 0,
            "source" : 2
        },
        {
            "sampler" : 0,
            "source" : 3
        },
        {
            "sampler" : 0,
            "source" : 4
        },
        {
            "sampler" : 0,
            "source" : 5
        }
    ],
    "images" : [
        {
            "mimeType" : "image/png",
            "name" : "M_ChampagneBottleGlass_normal",
            "uri" : "M_ChampagneBottleGlass_normal.png"
        },
        {
            "mimeType" : "image/png",
            "name" : "M_ChampagneBottleGlass_baseColor",
            "uri" : "M_ChampagneBottleGlass_baseColor.png"
        },
        {
            "mimeType" : "image/png",
            "name" : "M_ChampagneBottleGlass_metallicRoughness",
            "uri" : "M_ChampagneBottleGlass_metallicRoughness.png"
        },
        {
            "mimeType" : "image/png",
            "name" : "M_ChampagneSuit_normal",
            "uri" : "M_ChampagneSuit_normal.png"
        },
        {
            "mimeType" : "image/png",
            "name" : "M_ChampagneSuit_baseColor",
            "uri" : "M_ChampagneSuit_baseColor.png"
        },
        {
            "mimeType" : "image/png",
            "name" : "M_ChampagneSuit_metallicRoughness",
            "uri" : "M_ChampagneSuit_metallicRoughness.png"
        }
    ],
    "accessors" : [
        {
            "bufferView" : 0,
            "componentType" : 5126,
            "count" : 1784,
            "max" : [
                0.04638148099184036,
                0.04638148099184036,
                0.21068567037582397
            ],
            "min" : [
                -0.04638148099184036,
                -0.04638148099184036,
                -0.0021878061816096306
            ],
            "type" : "VEC3"
        },
        {
            "bufferView" : 1,
            "componentType" : 5126,
            "count" : 1784,
            "type" : "VEC3"
        },
        {
            "bufferView" : 2,
            "componentType" : 5126,
            "count" : 1784,
            "type" : "VEC2"
        },
        {
            "bufferView" : 3,
            "componentType" : 5126,
            "count" : 1784,
            "type" : "VEC2"
        },
        {
            "bufferView" : 4,
            "componentType" : 5126,
            "count" : 1784,
            "type" : "VEC2"
        },
        {
            "bufferView" : 5,
            "componentType" : 5123,
            "count" : 5790,
            "type" : "SCALAR"
        },
        {
            "bufferView" : 6,
            "componentType" : 5126,
            "count" : 2080,
            "max" : [
                0.03270769864320755,
                0.03270769864320755,
                0.37513384222984314
            ],
            "min" : [
                -0.03270769864320755,
                -0.03270769864320755,
                0.21068567037582397
            ],
            "type" : "VEC3"
        },
        {
            "bufferView" : 7,
            "componentType" : 5126,
            "count" : 2080,
            "type" : "VEC3"
        },
        {
            "bufferView" : 8,
            "componentType" : 5126,
            "count" : 2080,
            "type" : "VEC2"
        },
        {
            "bufferView" : 9,
            "componentType" : 5126,
            "count" : 2080,
            "type" : "VEC2"
        },
        {
            "bufferView" : 10,
            "componentType" : 5126,
            "count" : 2080,
            "type" : "VEC2"
        },
        {
            "bufferView" : 11,
            "componentType" : 5123,
            "count" : 11064,
            "type" : "SCALAR"
        }
    ],
    "bufferViews" : [
        {
            "buffer" : 0,
            "byteLength" : 21408,
            "byteOffset" : 0,
            "target" : 34962
        },
        {
            "buffer" : 0,
            "byteLength" : 21408,
            "byteOffset" : 21408,
            "target" : 34962
        },
        {
            "buffer" : 0,
            "byteLength" : 14272,
            "byteOffset" : 42816,
            "target" : 34962
        },
        {
            "buffer" : 0,
            "byteLength" : 14272,
            "byteOffset" : 57088,
            "target" : 34962
        },
        {
            "buffer" : 0,
            "byteLength" : 14272,
            "byteOffset" : 71360,
            "target" : 34962
        },
        {
            "buffer" : 0,
            "byteLength" : 11580,
            "byteOffset" : 85632,
            "target" : 34963
        },
        {
            "buffer" : 0,
            "byteLength" : 24960,
            "byteOffset" : 97212,
            "target" : 34962
        },
        {
            "buffer" : 0,
            "byteLength" : 24960,
            "byteOffset" : 122172,
            "target" : 34962
        },
        {
            "buffer" : 0,
            "byteLength" : 16640,
            "byteOffset" : 147132,
            "target" : 34962
        },
        {
            "buffer" : 0,
            "byteLength" : 16640,
            "byteOffset" : 163772,
            "target" : 34962
        },
        {
            "buffer" : 0,
            "byteLength" : 16640,
            "byteOffset" : 180412,
            "target" : 34962
        },
        {
            "buffer" : 0,
            "byteLength" : 22128,
            "byteOffset" : 197052,
            "target" : 34963
        }
    ],
    "samplers" : [
        {
            "magFilter" : 9729,
            "minFilter" : 9987
        }
    ],
    "buffers" : [
        {
            "byteLength" : 219180,
            "uri" : "champagne_edited.bin"
        }
    ]
}
