{
    "asset" : {
        "generator" : "Khronos glTF Blender I/O v3.3.27",
        "version" : "2.0"
    },
    "scene" : 0,
    "scenes" : [
        {
            "name" : "Scene",
            "nodes" : [
                0
            ]
        }
    ],
    "nodes" : [
        {
            "mesh" : 0,
            "name" : "roof_Material #21_0",
            "rotation" : [
                -0.685322105884552,
                0.17416580021381378,
                0.17416583001613617,
                0.6853219270706177
            ],
            "scale" : [
                1,
                1,
                1.421659231185913
            ],
            "translation" : [
                0.00021372316405177116,
                -20.431196212768555,
                -0.00032238446874544024
            ]
        }
    ],
    "materials" : [
        {
            "doubleSided" : true,
            "name" : "Material_21",
            "pbrMetallicRoughness" : {
                "baseColorTexture" : {
                    "index" : 0
                },
                "metallicFactor" : 0,
                "roughnessFactor" : 0.8929713368415833
            }
        }
    ],
    "meshes" : [
        {
            "name" : "roof_Material #21_0",
            "primitives" : [
                {
                    "attributes" : {
                        "POSITION" : 0,
                        "NORMAL" : 1,
                        "TEXCOORD_0" : 2,
                        "TEXCOORD_1" : 3
                    },
                    "indices" : 4,
                    "material" : 0
                }
            ]
        }
    ],
    "textures" : [
        {
            "sampler" : 0,
            "source" : 0
        }
    ],
    "images" : [
        {
            "mimeType" : "image/jpeg",
            "name" : "Material_21_baseColor",
            "uri" : "Material_21_baseColor.jpg"
        }
    ],
    "accessors" : [
        {
            "bufferView" : 0,
            "componentType" : 5126,
            "count" : 809,
            "max" : [
                59.06086730957031,
                59.06087112426758,
                58.479461669921875
            ],
            "min" : [
                -59.06086349487305,
                -59.06086349487305,
                1.183640480041504
            ],
            "type" : "VEC3"
        },
        {
            "bufferView" : 1,
            "componentType" : 5126,
            "count" : 809,
            "type" : "VEC3"
        },
        {
            "bufferView" : 2,
            "componentType" : 5126,
            "count" : 809,
            "type" : "VEC2"
        },
        {
            "bufferView" : 3,
            "componentType" : 5126,
            "count" : 809,
            "type" : "VEC2"
        },
        {
            "bufferView" : 4,
            "componentType" : 5123,
            "count" : 4176,
            "type" : "SCALAR"
        }
    ],
    "bufferViews" : [
        {
            "buffer" : 0,
            "byteLength" : 9708,
            "byteOffset" : 0,
            "target" : 34962
        },
        {
            "buffer" : 0,
            "byteLength" : 9708,
            "byteOffset" : 9708,
            "target" : 34962
        },
        {
            "buffer" : 0,
            "byteLength" : 6472,
            "byteOffset" : 19416,
            "target" : 34962
        },
        {
            "buffer" : 0,
            "byteLength" : 6472,
            "byteOffset" : 25888,
            "target" : 34962
        },
        {
            "buffer" : 0,
            "byteLength" : 8352,
            "byteOffset" : 32360,
            "target" : 34963
        }
    ],
    "samplers" : [
        {
            "magFilter" : 9729,
            "minFilter" : 9987
        }
    ],
    "buffers" : [
        {
            "byteLength" : 40712,
            "uri" : "extdome_edited2_roof.bin"
        }
    ]
}
