{
    "asset" : {
        "generator" : "Khronos glTF Blender I/O v3.3.27",
        "version" : "2.0"
    },
    "scene" : 0,
    "scenes" : [
        {
            "name" : "Scene",
            "nodes" : [
                3,
                4
            ]
        }
    ],
    "nodes" : [
        {
            "name" : "hot_air_baloon",
            "rotation" : [
                -0.7012453079223633,
                0.09085630625486374,
                0.09085630625486374,
                0.7012455463409424
            ],
            "scale" : [
                99.9999771118164,
                99.99996948242188,
                99.99998474121094
            ]
        },
        {
            "children" : [
                0
            ],
            "name" : "RootNode"
        },
        {
            "children" : [
                1
            ],
            "name" : "15bd80e51e734678b3efbf7cdbc43e72.fbx",
            "rotation" : [
                0.7071068286895752,
                0,
                0,
                0.7071067094802856
            ],
            "scale" : [
                0.009999999776482582,
                0.009999999776482582,
                0.009999999776482582
            ]
        },
        {
            "children" : [
                2
            ],
            "name" : "Sketchfab_model",
            "rotation" : [
                -0.7071068286895752,
                0,
                0,
                0.7071067094802856
            ]
        },
        {
            "mesh" : 0,
            "name" : "balloon_balloon",
            "rotation" : [
                -0.7012453079223633,
                0.09085629880428314,
                0.09085630625486374,
                0.7012455463409424
            ]
        }
    ],
    "materials" : [
        {
            "doubleSided" : true,
            "name" : "baloon.001",
            "normalTexture" : {
                "index" : 0
            },
            "occlusionTexture" : {
                "index" : 1
            },
            "pbrMetallicRoughness" : {
                "baseColorTexture" : {
                    "index" : 2
                },
                "metallicRoughnessTexture" : {
                    "index" : 1
                }
            }
        },
        {
            "doubleSided" : true,
            "emissiveFactor" : [
                1,
                1,
                1
            ],
            "emissiveTexture" : {
                "index" : 3
            },
            "name" : "details.001",
            "normalTexture" : {
                "index" : 4
            },
            "occlusionTexture" : {
                "index" : 5
            },
            "pbrMetallicRoughness" : {
                "baseColorTexture" : {
                    "index" : 6
                },
                "metallicRoughnessTexture" : {
                    "index" : 5
                }
            }
        }
    ],
    "meshes" : [
        {
            "name" : "hot_air_baloon_baloon_0.001",
            "primitives" : [
                {
                    "attributes" : {
                        "POSITION" : 0,
                        "NORMAL" : 1,
                        "TEXCOORD_0" : 2,
                        "TEXCOORD_1" : 3,
                        "TEXCOORD_2" : 4
                    },
                    "indices" : 5,
                    "material" : 0
                },
                {
                    "attributes" : {
                        "POSITION" : 6,
                        "NORMAL" : 7,
                        "TEXCOORD_0" : 8,
                        "TEXCOORD_1" : 9,
                        "TEXCOORD_2" : 10
                    },
                    "indices" : 11,
                    "material" : 1
                }
            ]
        }
    ],
    "textures" : [
        {
            "sampler" : 0,
            "source" : 0
        },
        {
            "sampler" : 0,
            "source" : 1
        },
        {
            "sampler" : 0,
            "source" : 2
        },
        {
            "sampler" : 0,
            "source" : 3
        },
        {
            "sampler" : 0,
            "source" : 4
        },
        {
            "sampler" : 0,
            "source" : 5
        },
        {
            "sampler" : 0,
            "source" : 6
        }
    ],
    "images" : [
        {
            "mimeType" : "image/jpeg",
            "name" : "baloon_normal",
            "uri" : "baloon_normal.jpg"
        },
        {
            "mimeType" : "image/jpeg",
            "name" : "baloon_metallicRoughness",
            "uri" : "baloon_metallicRoughness.jpg"
        },
        {
            "mimeType" : "image/jpeg",
            "name" : "baloon_baseColor",
            "uri" : "baloon_baseColor.jpg"
        },
        {
            "mimeType" : "image/png",
            "name" : "details_emissive",
            "uri" : "details_emissive.png"
        },
        {
            "mimeType" : "image/jpeg",
            "name" : "details_normal",
            "uri" : "details_normal.jpg"
        },
        {
            "mimeType" : "image/jpeg",
            "name" : "details_metallicRoughness",
            "uri" : "details_metallicRoughness.jpg"
        },
        {
            "mimeType" : "image/jpeg",
            "name" : "details_baseColor",
            "uri" : "details_baseColor.jpg"
        }
    ],
    "accessors" : [
        {
            "bufferView" : 0,
            "componentType" : 5126,
            "count" : 1751,
            "max" : [
                2.7668254375457764,
                2.7575175762176514,
                10.692244529724121
            ],
            "min" : [
                -2.764589309692383,
                -2.7738969326019287,
                2.2516794204711914
            ],
            "type" : "VEC3"
        },
        {
            "bufferView" : 1,
            "componentType" : 5126,
            "count" : 1751,
            "type" : "VEC3"
        },
        {
            "bufferView" : 2,
            "componentType" : 5126,
            "count" : 1751,
            "type" : "VEC2"
        },
        {
            "bufferView" : 3,
            "componentType" : 5126,
            "count" : 1751,
            "type" : "VEC2"
        },
        {
            "bufferView" : 4,
            "componentType" : 5126,
            "count" : 1751,
            "type" : "VEC2"
        },
        {
            "bufferView" : 5,
            "componentType" : 5123,
            "count" : 7140,
            "type" : "SCALAR"
        },
        {
            "bufferView" : 6,
            "componentType" : 5126,
            "count" : 17830,
            "max" : [
                2.865809202194214,
                2.875140905380249,
                9.521339416503906
            ],
            "min" : [
                -2.865748167037964,
                -2.8614602088928223,
                1.088496446609497
            ],
            "type" : "VEC3"
        },
        {
            "bufferView" : 7,
            "componentType" : 5126,
            "count" : 17830,
            "type" : "VEC3"
        },
        {
            "bufferView" : 8,
            "componentType" : 5126,
            "count" : 17830,
            "type" : "VEC2"
        },
        {
            "bufferView" : 9,
            "componentType" : 5126,
            "count" : 17830,
            "type" : "VEC2"
        },
        {
            "bufferView" : 10,
            "componentType" : 5126,
            "count" : 17830,
            "type" : "VEC2"
        },
        {
            "bufferView" : 11,
            "componentType" : 5123,
            "count" : 61599,
            "type" : "SCALAR"
        }
    ],
    "bufferViews" : [
        {
            "buffer" : 0,
            "byteLength" : 21012,
            "byteOffset" : 0,
            "target" : 34962
        },
        {
            "buffer" : 0,
            "byteLength" : 21012,
            "byteOffset" : 21012,
            "target" : 34962
        },
        {
            "buffer" : 0,
            "byteLength" : 14008,
            "byteOffset" : 42024,
            "target" : 34962
        },
        {
            "buffer" : 0,
            "byteLength" : 14008,
            "byteOffset" : 56032,
            "target" : 34962
        },
        {
            "buffer" : 0,
            "byteLength" : 14008,
            "byteOffset" : 70040,
            "target" : 34962
        },
        {
            "buffer" : 0,
            "byteLength" : 14280,
            "byteOffset" : 84048,
            "target" : 34963
        },
        {
            "buffer" : 0,
            "byteLength" : 213960,
            "byteOffset" : 98328,
            "target" : 34962
        },
        {
            "buffer" : 0,
            "byteLength" : 213960,
            "byteOffset" : 312288,
            "target" : 34962
        },
        {
            "buffer" : 0,
            "byteLength" : 142640,
            "byteOffset" : 526248,
            "target" : 34962
        },
        {
            "buffer" : 0,
            "byteLength" : 142640,
            "byteOffset" : 668888,
            "target" : 34962
        },
        {
            "buffer" : 0,
            "byteLength" : 142640,
            "byteOffset" : 811528,
            "target" : 34962
        },
        {
            "buffer" : 0,
            "byteLength" : 123198,
            "byteOffset" : 954168,
            "target" : 34963
        }
    ],
    "samplers" : [
        {
            "magFilter" : 9729,
            "minFilter" : 9987
        }
    ],
    "buffers" : [
        {
            "byteLength" : 1077368,
            "uri" : "mdl_franch_balloon.bin"
        }
    ]
}
