{
    "asset" : {
        "generator" : "Khronos glTF Blender I/O v3.3.27",
        "version" : "2.0"
    },
    "scene" : 0,
    "scenes" : [
        {
            "name" : "Scene",
            "nodes" : [
                3,
                7,
                11,
                15,
                19,
                23,
                27,
                31,
                35,
                39,
                43,
                47,
                51,
                55,
                59,
                63,
                67,
                71,
                76
            ]
        }
    ],
    "nodes" : [
        {
            "name" : "polySurface17",
            "translation" : [
                0,
                48.87357711791992,
                0
            ]
        },
        {
            "children" : [
                0
            ],
            "name" : "RootNode"
        },
        {
            "children" : [
                1
            ],
            "name" : "ob_Marble railing.fbx",
            "rotation" : [
                0.7071068286895752,
                0,
                0,
                0.7071067094802856
            ]
        },
        {
            "children" : [
                2
            ],
            "name" : "Sketchfab_model",
            "rotation" : [
                -0.7071068286895752,
                0,
                0,
                0.7071067094802856
            ]
        },
        {
            "name" : "polySurface17.001",
            "translation" : [
                0,
                48.87357711791992,
                0
            ]
        },
        {
            "children" : [
                4
            ],
            "name" : "RootNode.001"
        },
        {
            "children" : [
                5
            ],
            "name" : "ob_Marble railing.fbx.001",
            "rotation" : [
                0.7071068286895752,
                0,
                0,
                0.7071067094802856
            ]
        },
        {
            "children" : [
                6
            ],
            "name" : "Sketchfab_model.001",
            "rotation" : [
                -0.7071068286895752,
                0,
                0,
                0.7071067094802856
            ]
        },
        {
            "name" : "polySurface17.002",
            "translation" : [
                0,
                48.87357711791992,
                0
            ]
        },
        {
            "children" : [
                8
            ],
            "name" : "RootNode.002"
        },
        {
            "children" : [
                9
            ],
            "name" : "ob_Marble railing.fbx.002",
            "rotation" : [
                0.7071068286895752,
                0,
                0,
                0.7071067094802856
            ]
        },
        {
            "children" : [
                10
            ],
            "name" : "Sketchfab_model.002",
            "rotation" : [
                -0.7071068286895752,
                0,
                0,
                0.7071067094802856
            ]
        },
        {
            "name" : "polySurface17.003",
            "translation" : [
                0,
                48.87357711791992,
                0
            ]
        },
        {
            "children" : [
                12
            ],
            "name" : "RootNode.003"
        },
        {
            "children" : [
                13
            ],
            "name" : "ob_Marble railing.fbx.003",
            "rotation" : [
                0.7071068286895752,
                0,
                0,
                0.7071067094802856
            ]
        },
        {
            "children" : [
                14
            ],
            "name" : "Sketchfab_model.003",
            "rotation" : [
                -0.7071068286895752,
                0,
                0,
                0.7071067094802856
            ]
        },
        {
            "name" : "polySurface17.004",
            "translation" : [
                0,
                48.87357711791992,
                0
            ]
        },
        {
            "children" : [
                16
            ],
            "name" : "RootNode.004"
        },
        {
            "children" : [
                17
            ],
            "name" : "ob_Marble railing.fbx.004",
            "rotation" : [
                0.7071068286895752,
                0,
                0,
                0.7071067094802856
            ]
        },
        {
            "children" : [
                18
            ],
            "name" : "Sketchfab_model.004",
            "rotation" : [
                -0.7071068286895752,
                0,
                0,
                0.7071067094802856
            ]
        },
        {
            "name" : "polySurface17.005",
            "translation" : [
                0,
                48.87357711791992,
                0
            ]
        },
        {
            "children" : [
                20
            ],
            "name" : "RootNode.005"
        },
        {
            "children" : [
                21
            ],
            "name" : "ob_Marble railing.fbx.005",
            "rotation" : [
                0.7071068286895752,
                0,
                0,
                0.7071067094802856
            ]
        },
        {
            "children" : [
                22
            ],
            "name" : "Sketchfab_model.005",
            "rotation" : [
                -0.7071068286895752,
                0,
                0,
                0.7071067094802856
            ]
        },
        {
            "name" : "polySurface17.006",
            "translation" : [
                0,
                48.87357711791992,
                0
            ]
        },
        {
            "children" : [
                24
            ],
            "name" : "RootNode.006"
        },
        {
            "children" : [
                25
            ],
            "name" : "ob_Marble railing.fbx.006",
            "rotation" : [
                0.7071068286895752,
                0,
                0,
                0.7071067094802856
            ]
        },
        {
            "children" : [
                26
            ],
            "name" : "Sketchfab_model.006",
            "rotation" : [
                -0.7071068286895752,
                0,
                0,
                0.7071067094802856
            ]
        },
        {
            "name" : "polySurface17.007",
            "translation" : [
                0,
                48.87357711791992,
                0
            ]
        },
        {
            "children" : [
                28
            ],
            "name" : "RootNode.007"
        },
        {
            "children" : [
                29
            ],
            "name" : "ob_Marble railing.fbx.007",
            "rotation" : [
                0.7071068286895752,
                0,
                0,
                0.7071067094802856
            ]
        },
        {
            "children" : [
                30
            ],
            "name" : "Sketchfab_model.007",
            "rotation" : [
                -0.7071068286895752,
                0,
                0,
                0.7071067094802856
            ]
        },
        {
            "name" : "polySurface17.008",
            "translation" : [
                0,
                48.87357711791992,
                0
            ]
        },
        {
            "children" : [
                32
            ],
            "name" : "RootNode.008"
        },
        {
            "children" : [
                33
            ],
            "name" : "ob_Marble railing.fbx.008",
            "rotation" : [
                0.7071068286895752,
                0,
                0,
                0.7071067094802856
            ]
        },
        {
            "children" : [
                34
            ],
            "name" : "Sketchfab_model.008",
            "rotation" : [
                -0.7071068286895752,
                0,
                0,
                0.7071067094802856
            ]
        },
        {
            "name" : "polySurface17.009",
            "translation" : [
                0,
                48.87357711791992,
                0
            ]
        },
        {
            "children" : [
                36
            ],
            "name" : "RootNode.009"
        },
        {
            "children" : [
                37
            ],
            "name" : "ob_Marble railing.fbx.009",
            "rotation" : [
                0.7071068286895752,
                0,
                0,
                0.7071067094802856
            ]
        },
        {
            "children" : [
                38
            ],
            "name" : "Sketchfab_model.009",
            "rotation" : [
                -0.7071068286895752,
                0,
                0,
                0.7071067094802856
            ]
        },
        {
            "name" : "polySurface17.010",
            "translation" : [
                0,
                48.87357711791992,
                0
            ]
        },
        {
            "children" : [
                40
            ],
            "name" : "RootNode.010"
        },
        {
            "children" : [
                41
            ],
            "name" : "ob_Marble railing.fbx.010",
            "rotation" : [
                0.7071068286895752,
                0,
                0,
                0.7071067094802856
            ]
        },
        {
            "children" : [
                42
            ],
            "name" : "Sketchfab_model.010",
            "rotation" : [
                -0.7071068286895752,
                0,
                0,
                0.7071067094802856
            ]
        },
        {
            "name" : "polySurface17.011",
            "translation" : [
                0,
                48.87357711791992,
                0
            ]
        },
        {
            "children" : [
                44
            ],
            "name" : "RootNode.011"
        },
        {
            "children" : [
                45
            ],
            "name" : "ob_Marble railing.fbx.011",
            "rotation" : [
                0.7071068286895752,
                0,
                0,
                0.7071067094802856
            ]
        },
        {
            "children" : [
                46
            ],
            "name" : "Sketchfab_model.011",
            "rotation" : [
                -0.7071068286895752,
                0,
                0,
                0.7071067094802856
            ]
        },
        {
            "name" : "polySurface17.012",
            "translation" : [
                0,
                48.87357711791992,
                0
            ]
        },
        {
            "children" : [
                48
            ],
            "name" : "RootNode.012"
        },
        {
            "children" : [
                49
            ],
            "name" : "ob_Marble railing.fbx.012",
            "rotation" : [
                0.7071068286895752,
                0,
                0,
                0.7071067094802856
            ]
        },
        {
            "children" : [
                50
            ],
            "name" : "Sketchfab_model.012",
            "rotation" : [
                -0.7071068286895752,
                0,
                0,
                0.7071067094802856
            ]
        },
        {
            "name" : "polySurface17.013",
            "translation" : [
                0,
                48.87357711791992,
                0
            ]
        },
        {
            "children" : [
                52
            ],
            "name" : "RootNode.013"
        },
        {
            "children" : [
                53
            ],
            "name" : "ob_Marble railing.fbx.013",
            "rotation" : [
                0.7071068286895752,
                0,
                0,
                0.7071067094802856
            ]
        },
        {
            "children" : [
                54
            ],
            "name" : "Sketchfab_model.013",
            "rotation" : [
                -0.7071068286895752,
                0,
                0,
                0.7071067094802856
            ]
        },
        {
            "name" : "polySurface17.014",
            "translation" : [
                0,
                48.87357711791992,
                0
            ]
        },
        {
            "children" : [
                56
            ],
            "name" : "RootNode.014"
        },
        {
            "children" : [
                57
            ],
            "name" : "ob_Marble railing.fbx.014",
            "rotation" : [
                0.7071068286895752,
                0,
                0,
                0.7071067094802856
            ]
        },
        {
            "children" : [
                58
            ],
            "name" : "Sketchfab_model.014",
            "rotation" : [
                -0.7071068286895752,
                0,
                0,
                0.7071067094802856
            ]
        },
        {
            "name" : "polySurface17.015",
            "translation" : [
                0,
                48.87357711791992,
                0
            ]
        },
        {
            "children" : [
                60
            ],
            "name" : "RootNode.015"
        },
        {
            "children" : [
                61
            ],
            "name" : "ob_Marble railing.fbx.015",
            "rotation" : [
                0.7071068286895752,
                0,
                0,
                0.7071067094802856
            ]
        },
        {
            "children" : [
                62
            ],
            "name" : "Sketchfab_model.015",
            "rotation" : [
                -0.7071068286895752,
                0,
                0,
                0.7071067094802856
            ]
        },
        {
            "name" : "polySurface17.016",
            "translation" : [
                0,
                48.87357711791992,
                0
            ]
        },
        {
            "children" : [
                64
            ],
            "name" : "RootNode.016"
        },
        {
            "children" : [
                65
            ],
            "name" : "ob_Marble railing.fbx.016",
            "rotation" : [
                0.7071068286895752,
                0,
                0,
                0.7071067094802856
            ]
        },
        {
            "children" : [
                66
            ],
            "name" : "Sketchfab_model.016",
            "rotation" : [
                -0.7071068286895752,
                0,
                0,
                0.7071067094802856
            ]
        },
        {
            "name" : "polySurface17.017",
            "translation" : [
                0,
                48.87357711791992,
                0
            ]
        },
        {
            "children" : [
                68
            ],
            "name" : "RootNode.017"
        },
        {
            "children" : [
                69
            ],
            "name" : "ob_Marble railing.fbx.017",
            "rotation" : [
                0.7071068286895752,
                0,
                0,
                0.7071067094802856
            ]
        },
        {
            "children" : [
                70
            ],
            "name" : "Sketchfab_model.017",
            "rotation" : [
                -0.7071068286895752,
                0,
                0,
                0.7071067094802856
            ]
        },
        {
            "mesh" : 0,
            "name" : "polySurface17_M_tesuri_0",
            "translation" : [
                0,
                0.7548408508300781,
                0
            ]
        },
        {
            "children" : [
                72
            ],
            "name" : "polySurface17.018",
            "translation" : [
                0,
                48.87357711791992,
                0
            ]
        },
        {
            "children" : [
                73
            ],
            "name" : "RootNode.018"
        },
        {
            "children" : [
                74
            ],
            "name" : "ob_Marble railing.fbx.018",
            "rotation" : [
                0.7071068286895752,
                0,
                0,
                0.7071067094802856
            ]
        },
        {
            "children" : [
                75
            ],
            "name" : "Sketchfab_model.018",
            "rotation" : [
                -0.7071068286895752,
                0,
                0,
                0.7071067094802856
            ]
        }
    ],
    "materials" : [
        {
            "doubleSided" : true,
            "name" : "M_tesuri.007",
            "normalTexture" : {
                "index" : 0,
                "scale" : 0.5
            },
            "occlusionTexture" : {
                "index" : 1
            },
            "pbrMetallicRoughness" : {
                "baseColorTexture" : {
                    "index" : 2
                },
                "metallicFactor" : 0,
                "roughnessFactor" : 0.25
            }
        }
    ],
    "meshes" : [
        {
            "name" : "polySurface17_M_tesuri_0.007",
            "primitives" : [
                {
                    "attributes" : {
                        "POSITION" : 0,
                        "NORMAL" : 1,
                        "TEXCOORD_0" : 2
                    },
                    "indices" : 3,
                    "material" : 0
                }
            ]
        }
    ],
    "textures" : [
        {
            "sampler" : 0,
            "source" : 0
        },
        {
            "sampler" : 0,
            "source" : 1
        },
        {
            "sampler" : 0,
            "source" : 2
        }
    ],
    "images" : [
        {
            "mimeType" : "image/png",
            "name" : "M_tesuri_normal",
            "uri" : "M_tesuri_normal.png"
        },
        {
            "mimeType" : "image/png",
            "name" : "M_tesuri_metallicRoughness",
            "uri" : "M_tesuri_metallicRoughness.png"
        },
        {
            "mimeType" : "image/png",
            "name" : "M_tesuri_baseColor",
            "uri" : "M_tesuri_baseColor.png"
        }
    ],
    "accessors" : [
        {
            "bufferView" : 0,
            "componentType" : 5126,
            "count" : 5252,
            "max" : [
                17.368663787841797,
                47.81652069091797,
                269.1977233886719
            ],
            "min" : [
                -18.375232696533203,
                -49.393333435058594,
                -271.7455749511719
            ],
            "type" : "VEC3"
        },
        {
            "bufferView" : 1,
            "componentType" : 5126,
            "count" : 5252,
            "type" : "VEC3"
        },
        {
            "bufferView" : 2,
            "componentType" : 5126,
            "count" : 5252,
            "type" : "VEC2"
        },
        {
            "bufferView" : 3,
            "componentType" : 5123,
            "count" : 24168,
            "type" : "SCALAR"
        }
    ],
    "bufferViews" : [
        {
            "buffer" : 0,
            "byteLength" : 63024,
            "byteOffset" : 0,
            "target" : 34962
        },
        {
            "buffer" : 0,
            "byteLength" : 63024,
            "byteOffset" : 63024,
            "target" : 34962
        },
        {
            "buffer" : 0,
            "byteLength" : 42016,
            "byteOffset" : 126048,
            "target" : 34962
        },
        {
            "buffer" : 0,
            "byteLength" : 48336,
            "byteOffset" : 168064,
            "target" : 34963
        }
    ],
    "samplers" : [
        {
            "magFilter" : 9729,
            "minFilter" : 9987
        }
    ],
    "buffers" : [
        {
            "byteLength" : 216400,
            "uri" : "railing_edited.bin"
        }
    ]
}
