{
    "asset" : {
        "generator" : "Khronos glTF Blender I/O v3.3.27",
        "version" : "2.0"
    },
    "scene" : 0,
    "scenes" : [
        {
            "name" : "Scene",
            "nodes" : [
                3,
                7,
                11,
                15,
                20
            ]
        }
    ],
    "nodes" : [
        {
            "name" : "polySurface17",
            "translation" : [
                0,
                48.87357711791992,
                0
            ]
        },
        {
            "children" : [
                0
            ],
            "name" : "RootNode"
        },
        {
            "children" : [
                1
            ],
            "name" : "ob_Marble railing.fbx",
            "rotation" : [
                0.7071068286895752,
                0,
                0,
                0.7071067094802856
            ]
        },
        {
            "children" : [
                2
            ],
            "name" : "Sketchfab_model",
            "rotation" : [
                -0.7071068286895752,
                0,
                0,
                0.7071067094802856
            ]
        },
        {
            "name" : "polySurface17.001",
            "translation" : [
                0,
                48.87357711791992,
                0
            ]
        },
        {
            "children" : [
                4
            ],
            "name" : "RootNode.001"
        },
        {
            "children" : [
                5
            ],
            "name" : "ob_Marble railing.fbx.001",
            "rotation" : [
                0.7071068286895752,
                0,
                0,
                0.7071067094802856
            ]
        },
        {
            "children" : [
                6
            ],
            "name" : "Sketchfab_model.001",
            "rotation" : [
                -0.7071068286895752,
                0,
                0,
                0.7071067094802856
            ]
        },
        {
            "name" : "polySurface17.002",
            "translation" : [
                0,
                48.87357711791992,
                0
            ]
        },
        {
            "children" : [
                8
            ],
            "name" : "RootNode.002"
        },
        {
            "children" : [
                9
            ],
            "name" : "ob_Marble railing.fbx.002",
            "rotation" : [
                0.7071068286895752,
                0,
                0,
                0.7071067094802856
            ]
        },
        {
            "children" : [
                10
            ],
            "name" : "Sketchfab_model.002",
            "rotation" : [
                -0.7071068286895752,
                0,
                0,
                0.7071067094802856
            ]
        },
        {
            "name" : "polySurface17.003",
            "translation" : [
                0,
                48.87357711791992,
                0
            ]
        },
        {
            "children" : [
                12
            ],
            "name" : "RootNode.003"
        },
        {
            "children" : [
                13
            ],
            "name" : "ob_Marble railing.fbx.003",
            "rotation" : [
                0.7071068286895752,
                0,
                0,
                0.7071067094802856
            ]
        },
        {
            "children" : [
                14
            ],
            "name" : "Sketchfab_model.003",
            "rotation" : [
                -0.7071068286895752,
                0,
                0,
                0.7071067094802856
            ]
        },
        {
            "mesh" : 0,
            "name" : "polySurface17_M_tesuri_0",
            "translation" : [
                0,
                3.814697265625e-06,
                0
            ]
        },
        {
            "children" : [
                16
            ],
            "name" : "polySurface17.004",
            "translation" : [
                0,
                48.87357711791992,
                0
            ]
        },
        {
            "children" : [
                17
            ],
            "name" : "RootNode.004"
        },
        {
            "children" : [
                18
            ],
            "name" : "ob_Marble railing.fbx.004",
            "rotation" : [
                0.7071068286895752,
                0,
                0,
                0.7071067094802856
            ]
        },
        {
            "children" : [
                19
            ],
            "name" : "Sketchfab_model.004",
            "rotation" : [
                -0.7071068286895752,
                0,
                0,
                0.7071067094802856
            ]
        }
    ],
    "materials" : [
        {
            "doubleSided" : true,
            "name" : "M_tesuri.004",
            "normalTexture" : {
                "index" : 0,
                "scale" : 0.5
            },
            "occlusionTexture" : {
                "index" : 1
            },
            "pbrMetallicRoughness" : {
                "baseColorTexture" : {
                    "index" : 2
                },
                "metallicFactor" : 0,
                "roughnessFactor" : 0.25
            }
        }
    ],
    "meshes" : [
        {
            "name" : "polySurface17_M_tesuri_0.004",
            "primitives" : [
                {
                    "attributes" : {
                        "POSITION" : 0,
                        "NORMAL" : 1,
                        "TEXCOORD_0" : 2
                    },
                    "indices" : 3,
                    "material" : 0
                }
            ]
        }
    ],
    "textures" : [
        {
            "sampler" : 0,
            "source" : 0
        },
        {
            "sampler" : 0,
            "source" : 1
        },
        {
            "sampler" : 0,
            "source" : 2
        }
    ],
    "images" : [
        {
            "mimeType" : "image/png",
            "name" : "M_tesuri_normal",
            "uri" : "M_tesuri_normal.png"
        },
        {
            "mimeType" : "image/png",
            "name" : "M_tesuri_metallicRoughness",
            "uri" : "M_tesuri_metallicRoughness.png"
        },
        {
            "mimeType" : "image/png",
            "name" : "M_tesuri_baseColor",
            "uri" : "M_tesuri_baseColor.png"
        }
    ],
    "accessors" : [
        {
            "bufferView" : 0,
            "componentType" : 5126,
            "count" : 3858,
            "max" : [
                17.355815887451172,
                48.43583297729492,
                174.33135986328125
            ],
            "min" : [
                -18.388080596923828,
                -48.77402114868164,
                -175.28152465820312
            ],
            "type" : "VEC3"
        },
        {
            "bufferView" : 1,
            "componentType" : 5126,
            "count" : 3858,
            "type" : "VEC3"
        },
        {
            "bufferView" : 2,
            "componentType" : 5126,
            "count" : 3858,
            "type" : "VEC2"
        },
        {
            "bufferView" : 3,
            "componentType" : 5123,
            "count" : 17622,
            "type" : "SCALAR"
        }
    ],
    "bufferViews" : [
        {
            "buffer" : 0,
            "byteLength" : 46296,
            "byteOffset" : 0,
            "target" : 34962
        },
        {
            "buffer" : 0,
            "byteLength" : 46296,
            "byteOffset" : 46296,
            "target" : 34962
        },
        {
            "buffer" : 0,
            "byteLength" : 30864,
            "byteOffset" : 92592,
            "target" : 34962
        },
        {
            "buffer" : 0,
            "byteLength" : 35244,
            "byteOffset" : 123456,
            "target" : 34963
        }
    ],
    "samplers" : [
        {
            "magFilter" : 9729,
            "minFilter" : 9987
        }
    ],
    "buffers" : [
        {
            "byteLength" : 158700,
            "uri" : "railing_edited_front.bin"
        }
    ]
}
