{
	"asset":{
		"generator":"Khronos glTF Blender I/O v3.5.30",
		"version":"2.0"
	},
	"scene":0,
	"scenes":[
		{
			"name":"Scene",
			"nodes":[
				0
			]
		}
	],
	"nodes":[
		{
			"mesh":0,
			"name":"low-angle-shot-mesmerizing-starry-sky",
			"rotation":[
				-0.70710688829422,
				0,
				0,
				0.7071066498756409
			],
			"scale":[
				2.052338123321533,
				2.0523383617401123,
				2.0523383617401123
			],
			"translation":[
				0,
				0,
				0.0004213554784655571
			]
		}
	],
	"materials":[
		{
			"alphaMode":"BLEND",
			"doubleSided":true,
			"name":"low-angle-shot-mesmerizing-starry-sky",
			"pbrMetallicRoughness":{
				"baseColorTexture":{
					"index":0
				},
				"metallicFactor":0
			}
		}
	],
	"meshes":[
		{
			"name":"low-angle-shot-mesmerizing-starry-sky",
			"primitives":[
				{
					"attributes":{
						"POSITION":0,
						"TEXCOORD_0":1,
						"NORMAL":2
					},
					"indices":3,
					"material":0
				}
			]
		}
	],
	"textures":[
		{
			"sampler":0,
			"source":0
		}
	],
	"images":[
		{
			"mimeType":"image/png",
			"name":"low-angle-shot-mesmerizing-starry-sky",
			"uri":"textures/low-angle-shot-mesmerizing-starry-sky.png"
		}
	],
	"accessors":[
		{
			"bufferView":0,
			"componentType":5126,
			"count":1044,
			"max":[
				0.47302547097206116,
				-0.0152936652302742,
				0.4731939733028412
			],
			"min":[
				-0.4709293246269226,
				-0.3998854160308838,
				-0.47319474816322327
			],
			"type":"VEC3"
		},
		{
			"bufferView":1,
			"componentType":5126,
			"count":1044,
			"type":"VEC2"
		},
		{
			"bufferView":2,
			"componentType":5126,
			"count":1044,
			"type":"VEC3"
		},
		{
			"bufferView":3,
			"componentType":5123,
			"count":5832,
			"type":"SCALAR"
		}
	],
	"bufferViews":[
		{
			"buffer":0,
			"byteLength":12528,
			"byteOffset":0,
			"target":34962
		},
		{
			"buffer":0,
			"byteLength":8352,
			"byteOffset":12528,
			"target":34962
		},
		{
			"buffer":0,
			"byteLength":12528,
			"byteOffset":20880,
			"target":34962
		},
		{
			"buffer":0,
			"byteLength":11664,
			"byteOffset":33408,
			"target":34963
		}
	],
	"samplers":[
		{
			"magFilter":9729,
			"minFilter":9987
		}
	],
	"buffers":[
		{
			"byteLength":45072,
			"uri":"spacedome.bin"
		}
	]
}
