{
    "asset" : {
        "generator" : "Khronos glTF Blender I/O v3.3.27",
        "version" : "2.0"
    },
    "scene" : 0,
    "scenes" : [
        {
            "name" : "Scene",
            "nodes" : [
                3,
                6,
                9,
                12
            ]
        }
    ],
    "nodes" : [
        {
            "name" : "__TXTR brick divisionless",
            "translation" : [
                0,
                -5.1389215514063835e-06,
                -1.1042400728911161e-05
            ]
        },
        {
            "children" : [
                0
            ],
            "name" : "RootNode",
            "translation" : [
                0,
                -5.1389215514063835e-06,
                -1.1042400728911161e-05
            ]
        },
        {
            "children" : [
                1
            ],
            "name" : "ba5b1d6734ac4eeda1decc96e2659b6f.fbx",
            "rotation" : [
                1,
                0,
                0,
                0
            ],
            "translation" : [
                0,
                5.1389215514063835e-06,
                1.1042400728911161e-05
            ]
        },
        {
            "children" : [
                2
            ],
            "name" : "Sketchfab_model",
            "rotation" : [
                0.7071068286895752,
                0,
                0,
                0.7071067094802856
            ],
            "translation" : [
                0,
                -492.51751708984375,
                -536.4556884765625
            ]
        },
        {
            "mesh" : 0,
            "name" : "Object_2"
        },
        {
            "children" : [
                4
            ],
            "name" : "Arch.stl.cleaner.materialmerger.gles"
        },
        {
            "children" : [
                5
            ],
            "name" : "Sketchfab_model.001"
        },
        {
            "mesh" : 1,
            "name" : "Object_2.002",
            "translation" : [
                0,
                0,
                5
            ]
        },
        {
            "children" : [
                7
            ],
            "name" : "Arch.stl.cleaner.materialmerger.gles.001"
        },
        {
            "children" : [
                8
            ],
            "name" : "Sketchfab_model.002",
            "translation" : [
                0,
                0,
                -5
            ]
        },
        {
            "mesh" : 2,
            "name" : "Object_2.003",
            "translation" : [
                0,
                0,
                5
            ]
        },
        {
            "children" : [
                10
            ],
            "name" : "Arch.stl.cleaner.materialmerger.gles.002"
        },
        {
            "children" : [
                11
            ],
            "name" : "Sketchfab_model.003",
            "translation" : [
                0,
                0,
                -5
            ]
        }
    ],
    "materials" : [
        {
            "doubleSided" : true,
            "name" : "Scene_-_Root",
            "pbrMetallicRoughness" : {
                "baseColorTexture" : {
                    "index" : 0
                },
                "metallicFactor" : 0,
                "roughnessFactor" : 0.6000000238418579
            }
        },
        {
            "doubleSided" : true,
            "name" : "TXTR_brick_divisionless",
            "pbrMetallicRoughness" : {
                "baseColorTexture" : {
                    "index" : 1
                },
                "metallicFactor" : 0,
                "roughnessFactor" : 0.9605628252029419
            }
        },
        {
            "doubleSided" : true,
            "name" : "Scene_-_Root.002",
            "pbrMetallicRoughness" : {
                "baseColorTexture" : {
                    "index" : 2
                },
                "metallicFactor" : 0,
                "roughnessFactor" : 0.6000000238418579
            }
        }
    ],
    "meshes" : [
        {
            "name" : "Object_0.003",
            "primitives" : [
                {
                    "attributes" : {
                        "POSITION" : 0,
                        "NORMAL" : 1,
                        "COLOR_0" : 2
                    },
                    "indices" : 3,
                    "material" : 0
                }
            ]
        },
        {
            "name" : "Object_0.005",
            "primitives" : [
                {
                    "attributes" : {
                        "POSITION" : 4,
                        "NORMAL" : 5,
                        "COLOR_0" : 6
                    },
                    "indices" : 7,
                    "material" : 1
                }
            ]
        },
        {
            "name" : "Object_0.007",
            "primitives" : [
                {
                    "attributes" : {
                        "POSITION" : 8,
                        "NORMAL" : 9,
                        "COLOR_0" : 10
                    },
                    "indices" : 11,
                    "material" : 2
                }
            ]
        }
    ],
    "textures" : [
        {
            "sampler" : 0,
            "source" : 0
        },
        {
            "sampler" : 0,
            "source" : 1
        },
        {
            "sampler" : 0,
            "source" : 2
        }
    ],
    "images" : [
        {
            "mimeType" : "image/png",
            "name" : "ArchColor",
            "uri" : "ArchColor.png"
        },
        {
            "mimeType" : "image/png",
            "name" : "ArchColorSurround",
            "uri" : "ArchColorSurround.png"
        },
        {
            "mimeType" : "image/png",
            "name" : "Untitled",
            "uri" : "Untitled.png"
        }
    ],
    "accessors" : [
        {
            "bufferView" : 0,
            "componentType" : 5126,
            "count" : 319,
            "max" : [
                2.580105781555176,
                6.1273193359375,
                0.23522840440273285
            ],
            "min" : [
                -2.5667452812194824,
                0.016880393028259277,
                -0.17797499895095825
            ],
            "type" : "VEC3"
        },
        {
            "bufferView" : 1,
            "componentType" : 5126,
            "count" : 319,
            "type" : "VEC3"
        },
        {
            "bufferView" : 2,
            "componentType" : 5123,
            "count" : 319,
            "normalized" : true,
            "type" : "VEC4"
        },
        {
            "bufferView" : 3,
            "componentType" : 5123,
            "count" : 1701,
            "type" : "SCALAR"
        },
        {
            "bufferView" : 4,
            "componentType" : 5126,
            "count" : 31,
            "max" : [
                2.580105781555176,
                6.1273193359375,
                0.23522840440273285
            ],
            "min" : [
                -2.5667452812194824,
                0.016880393028259277,
                0.2352275848388672
            ],
            "type" : "VEC3"
        },
        {
            "bufferView" : 5,
            "componentType" : 5126,
            "count" : 31,
            "type" : "VEC3"
        },
        {
            "bufferView" : 6,
            "componentType" : 5123,
            "count" : 31,
            "normalized" : true,
            "type" : "VEC4"
        },
        {
            "bufferView" : 7,
            "componentType" : 5123,
            "count" : 87,
            "type" : "SCALAR"
        },
        {
            "bufferView" : 8,
            "componentType" : 5126,
            "count" : 8,
            "max" : [
                2.580105781555176,
                6.1273193359375,
                0.23522840440273285
            ],
            "min" : [
                -2.5667452812194824,
                0.016880393028259277,
                -0.17797499895095825
            ],
            "type" : "VEC3"
        },
        {
            "bufferView" : 9,
            "componentType" : 5126,
            "count" : 8,
            "type" : "VEC3"
        },
        {
            "bufferView" : 10,
            "componentType" : 5123,
            "count" : 8,
            "normalized" : true,
            "type" : "VEC4"
        },
        {
            "bufferView" : 11,
            "componentType" : 5123,
            "count" : 18,
            "type" : "SCALAR"
        }
    ],
    "bufferViews" : [
        {
            "buffer" : 0,
            "byteLength" : 3828,
            "byteOffset" : 0,
            "target" : 34962
        },
        {
            "buffer" : 0,
            "byteLength" : 3828,
            "byteOffset" : 3828,
            "target" : 34962
        },
        {
            "buffer" : 0,
            "byteLength" : 2552,
            "byteOffset" : 7656,
            "target" : 34962
        },
        {
            "buffer" : 0,
            "byteLength" : 3402,
            "byteOffset" : 10208,
            "target" : 34963
        },
        {
            "buffer" : 0,
            "byteLength" : 372,
            "byteOffset" : 13612,
            "target" : 34962
        },
        {
            "buffer" : 0,
            "byteLength" : 372,
            "byteOffset" : 13984,
            "target" : 34962
        },
        {
            "buffer" : 0,
            "byteLength" : 248,
            "byteOffset" : 14356,
            "target" : 34962
        },
        {
            "buffer" : 0,
            "byteLength" : 174,
            "byteOffset" : 14604,
            "target" : 34963
        },
        {
            "buffer" : 0,
            "byteLength" : 96,
            "byteOffset" : 14780,
            "target" : 34962
        },
        {
            "buffer" : 0,
            "byteLength" : 96,
            "byteOffset" : 14876,
            "target" : 34962
        },
        {
            "buffer" : 0,
            "byteLength" : 64,
            "byteOffset" : 14972,
            "target" : 34962
        },
        {
            "buffer" : 0,
            "byteLength" : 36,
            "byteOffset" : 15036,
            "target" : 34963
        }
    ],
    "samplers" : [
        {
            "magFilter" : 9729,
            "minFilter" : 9987
        }
    ],
    "buffers" : [
        {
            "byteLength" : 15072,
            "uri" : "bararch.bin"
        }
    ]
}
