{
    "asset" : {
        "generator" : "Khronos glTF Blender I/O v3.3.27",
        "version" : "2.0"
    },
    "extensionsUsed" : [
        "KHR_materials_transmission"
    ],
    "scene" : 0,
    "scenes" : [
        {
            "name" : "Scene",
            "nodes" : [
                6
            ]
        }
    ],
    "nodes" : [
        {
            "mesh" : 0,
            "name" : "Beefeater_Atlas_0"
        },
        {
            "children" : [
                0
            ],
            "name" : "Object_47",
            "translation" : [
                0,
                0,
                0.022308707237243652
            ]
        },
        {
            "children" : [
                1
            ],
            "name" : "Beefeater.001"
        },
        {
            "mesh" : 1,
            "name" : "Beefeater_Sprite_Sprites_0"
        },
        {
            "children" : [
                3
            ],
            "name" : "Object_50",
            "translation" : [
                0,
                0,
                0.022308707237243652
            ]
        },
        {
            "children" : [
                4
            ],
            "name" : "Beefeater_Sprite",
            "translation" : [
                0,
                0,
                -2.2649765014648438e-06
            ]
        },
        {
            "children" : [
                2,
                5
            ],
            "name" : "Beefeater",
            "rotation" : [
                -0.7071062922477722,
                -0.0009226124966517091,
                -0.0009225974208675325,
                0.7071061730384827
            ],
            "translation" : [
                0.036814719438552856,
                0,
                0.020743906497955322
            ]
        }
    ],
    "materials" : [
        {
            "alphaMode" : "BLEND",
            "extensions" : {
                "KHR_materials_transmission" : {
                    "transmissionFactor" : 1,
                    "transmissionTexture" : {
                        "index" : 0
                    }
                }
            },
            "name" : "Atlas",
            "normalTexture" : {
                "index" : 1
            },
            "pbrMetallicRoughness" : {
                "baseColorTexture" : {
                    "index" : 2
                },
                "metallicRoughnessTexture" : {
                    "index" : 3
                }
            }
        },
        {
            "alphaMode" : "BLEND",
            "name" : "Sprites",
            "pbrMetallicRoughness" : {
                "baseColorTexture" : {
                    "index" : 4
                },
                "metallicFactor" : 0,
                "roughnessFactor" : 0.3400000035762787
            }
        }
    ],
    "meshes" : [
        {
            "name" : "Beefeater_Atlas_0",
            "primitives" : [
                {
                    "attributes" : {
                        "POSITION" : 0,
                        "NORMAL" : 1,
                        "TEXCOORD_0" : 2,
                        "TEXCOORD_1" : 3,
                        "TEXCOORD_2" : 4,
                        "TEXCOORD_3" : 5,
                        "TEXCOORD_4" : 6
                    },
                    "indices" : 7,
                    "material" : 0
                }
            ]
        },
        {
            "name" : "Beefeater_Sprite_Sprites_0",
            "primitives" : [
                {
                    "attributes" : {
                        "POSITION" : 8,
                        "NORMAL" : 9,
                        "TEXCOORD_0" : 10,
                        "TEXCOORD_1" : 11,
                        "TEXCOORD_2" : 12,
                        "TEXCOORD_3" : 13,
                        "TEXCOORD_4" : 14
                    },
                    "indices" : 15,
                    "material" : 1
                }
            ]
        }
    ],
    "textures" : [
        {
            "sampler" : 0,
            "source" : 0
        },
        {
            "sampler" : 0,
            "source" : 1
        },
        {
            "sampler" : 0,
            "source" : 2
        },
        {
            "sampler" : 0,
            "source" : 3
        },
        {
            "sampler" : 0,
            "source" : 2
        }
    ],
    "images" : [
        {
            "mimeType" : "image/png",
            "name" : "Atlas_transmission",
            "uri" : "Atlas_transmission.png"
        },
        {
            "mimeType" : "image/jpeg",
            "name" : "Atlas_normal",
            "uri" : "Atlas_normal.jpg"
        },
        {
            "mimeType" : "image/png",
            "name" : "Atlas_baseColor",
            "uri" : "Atlas_baseColor.png"
        },
        {
            "mimeType" : "image/png",
            "name" : "Atlas_metallicRoughness",
            "uri" : "Atlas_metallicRoughness.png"
        }
    ],
    "accessors" : [
        {
            "bufferView" : 0,
            "componentType" : 5126,
            "count" : 133,
            "max" : [
                3.492624282836914,
                3.480154037475586,
                27.904586791992188
            ],
            "min" : [
                -3.492624282836914,
                -3.4801571369171143,
                -0.022308707237243652
            ],
            "type" : "VEC3"
        },
        {
            "bufferView" : 1,
            "componentType" : 5126,
            "count" : 133,
            "type" : "VEC3"
        },
        {
            "bufferView" : 2,
            "componentType" : 5126,
            "count" : 133,
            "type" : "VEC2"
        },
        {
            "bufferView" : 3,
            "componentType" : 5126,
            "count" : 133,
            "type" : "VEC2"
        },
        {
            "bufferView" : 4,
            "componentType" : 5126,
            "count" : 133,
            "type" : "VEC2"
        },
        {
            "bufferView" : 5,
            "componentType" : 5126,
            "count" : 133,
            "type" : "VEC2"
        },
        {
            "bufferView" : 6,
            "componentType" : 5126,
            "count" : 133,
            "type" : "VEC2"
        },
        {
            "bufferView" : 7,
            "componentType" : 5123,
            "count" : 540,
            "type" : "SCALAR"
        },
        {
            "bufferView" : 8,
            "componentType" : 5126,
            "count" : 16,
            "max" : [
                3.4637794494628906,
                3.4568936824798584,
                18.040014266967773
            ],
            "min" : [
                -3.4637789726257324,
                -3.4568979740142822,
                3.6483981609344482
            ],
            "type" : "VEC3"
        },
        {
            "bufferView" : 9,
            "componentType" : 5126,
            "count" : 16,
            "type" : "VEC3"
        },
        {
            "bufferView" : 10,
            "componentType" : 5126,
            "count" : 16,
            "type" : "VEC2"
        },
        {
            "bufferView" : 11,
            "componentType" : 5126,
            "count" : 16,
            "type" : "VEC2"
        },
        {
            "bufferView" : 12,
            "componentType" : 5126,
            "count" : 16,
            "type" : "VEC2"
        },
        {
            "bufferView" : 13,
            "componentType" : 5126,
            "count" : 16,
            "type" : "VEC2"
        },
        {
            "bufferView" : 14,
            "componentType" : 5126,
            "count" : 16,
            "type" : "VEC2"
        },
        {
            "bufferView" : 15,
            "componentType" : 5123,
            "count" : 36,
            "type" : "SCALAR"
        }
    ],
    "bufferViews" : [
        {
            "buffer" : 0,
            "byteLength" : 1596,
            "byteOffset" : 0,
            "target" : 34962
        },
        {
            "buffer" : 0,
            "byteLength" : 1596,
            "byteOffset" : 1596,
            "target" : 34962
        },
        {
            "buffer" : 0,
            "byteLength" : 1064,
            "byteOffset" : 3192,
            "target" : 34962
        },
        {
            "buffer" : 0,
            "byteLength" : 1064,
            "byteOffset" : 4256,
            "target" : 34962
        },
        {
            "buffer" : 0,
            "byteLength" : 1064,
            "byteOffset" : 5320,
            "target" : 34962
        },
        {
            "buffer" : 0,
            "byteLength" : 1064,
            "byteOffset" : 6384,
            "target" : 34962
        },
        {
            "buffer" : 0,
            "byteLength" : 1064,
            "byteOffset" : 7448,
            "target" : 34962
        },
        {
            "buffer" : 0,
            "byteLength" : 1080,
            "byteOffset" : 8512,
            "target" : 34963
        },
        {
            "buffer" : 0,
            "byteLength" : 192,
            "byteOffset" : 9592,
            "target" : 34962
        },
        {
            "buffer" : 0,
            "byteLength" : 192,
            "byteOffset" : 9784,
            "target" : 34962
        },
        {
            "buffer" : 0,
            "byteLength" : 128,
            "byteOffset" : 9976,
            "target" : 34962
        },
        {
            "buffer" : 0,
            "byteLength" : 128,
            "byteOffset" : 10104,
            "target" : 34962
        },
        {
            "buffer" : 0,
            "byteLength" : 128,
            "byteOffset" : 10232,
            "target" : 34962
        },
        {
            "buffer" : 0,
            "byteLength" : 128,
            "byteOffset" : 10360,
            "target" : 34962
        },
        {
            "buffer" : 0,
            "byteLength" : 128,
            "byteOffset" : 10488,
            "target" : 34962
        },
        {
            "buffer" : 0,
            "byteLength" : 72,
            "byteOffset" : 10616,
            "target" : 34963
        }
    ],
    "samplers" : [
        {
            "magFilter" : 9729,
            "minFilter" : 9987
        }
    ],
    "buffers" : [
        {
            "byteLength" : 10688,
            "uri" : "20_gin_beefeater.bin"
        }
    ]
}
