{
    "asset" : {
        "generator" : "Khronos glTF Blender I/O v3.3.27",
        "version" : "2.0"
    },
    "extensionsUsed" : [
        "KHR_materials_transmission"
    ],
    "scene" : 0,
    "scenes" : [
        {
            "name" : "Scene",
            "nodes" : [
                0,
                1
            ]
        }
    ],
    "nodes" : [
        {
            "mesh" : 0,
            "name" : "Absolut_Vodka_Atlas_0",
            "rotation" : [
                -0.011353894136846066,
                0.7070155739784241,
                0.7070156931877136,
                0.011353963054716587
            ],
            "translation" : [
                -0.005094921216368675,
                -0.021566400304436684,
                0.03994794934988022
            ]
        },
        {
            "mesh" : 1,
            "name" : "Absolut_Vodka_Sprite_Sprites_0",
            "rotation" : [
                -0.011353894136846066,
                0.7070155739784241,
                0.7070156931877136,
                0.011353963054716587
            ],
            "translation" : [
                -0.005094921216368675,
                -0.021566400304436684,
                0.03994794934988022
            ]
        }
    ],
    "materials" : [
        {
            "alphaMode" : "BLEND",
            "extensions" : {
                "KHR_materials_transmission" : {
                    "transmissionFactor" : 1,
                    "transmissionTexture" : {
                        "index" : 0
                    }
                }
            },
            "name" : "Atlas",
            "normalTexture" : {
                "index" : 1
            },
            "pbrMetallicRoughness" : {
                "baseColorTexture" : {
                    "index" : 2
                },
                "metallicRoughnessTexture" : {
                    "index" : 3
                }
            }
        },
        {
            "alphaMode" : "BLEND",
            "name" : "Sprites",
            "pbrMetallicRoughness" : {
                "baseColorTexture" : {
                    "index" : 4
                },
                "metallicFactor" : 0,
                "roughnessFactor" : 0.3400000035762787
            }
        }
    ],
    "meshes" : [
        {
            "name" : "Absolut_Vodka_Atlas_0",
            "primitives" : [
                {
                    "attributes" : {
                        "POSITION" : 0,
                        "NORMAL" : 1,
                        "TEXCOORD_0" : 2,
                        "TEXCOORD_1" : 3,
                        "TEXCOORD_2" : 4,
                        "TEXCOORD_3" : 5,
                        "TEXCOORD_4" : 6
                    },
                    "indices" : 7,
                    "material" : 0
                }
            ]
        },
        {
            "name" : "Absolut_Vodka_Sprite_Sprites_0",
            "primitives" : [
                {
                    "attributes" : {
                        "POSITION" : 8,
                        "NORMAL" : 9,
                        "TEXCOORD_0" : 10,
                        "TEXCOORD_1" : 11,
                        "TEXCOORD_2" : 12,
                        "TEXCOORD_3" : 13,
                        "TEXCOORD_4" : 14
                    },
                    "indices" : 15,
                    "material" : 1
                }
            ]
        }
    ],
    "textures" : [
        {
            "sampler" : 0,
            "source" : 0
        },
        {
            "sampler" : 0,
            "source" : 1
        },
        {
            "sampler" : 0,
            "source" : 2
        },
        {
            "sampler" : 0,
            "source" : 3
        },
        {
            "sampler" : 0,
            "source" : 2
        }
    ],
    "images" : [
        {
            "mimeType" : "image/png",
            "name" : "Atlas_transmission",
            "uri" : "Atlas_transmission.png"
        },
        {
            "mimeType" : "image/jpeg",
            "name" : "Atlas_normal",
            "uri" : "Atlas_normal.jpg"
        },
        {
            "mimeType" : "image/png",
            "name" : "Atlas_baseColor",
            "uri" : "Atlas_baseColor.png"
        },
        {
            "mimeType" : "image/png",
            "name" : "Atlas_metallicRoughness",
            "uri" : "Atlas_metallicRoughness.png"
        }
    ],
    "accessors" : [
        {
            "bufferView" : 0,
            "componentType" : 5126,
            "count" : 195,
            "max" : [
                3.926511287689209,
                3.926513195037842,
                24.483671188354492
            ],
            "min" : [
                -3.926511287689209,
                -3.926511287689209,
                0.021566390991210938
            ],
            "type" : "VEC3"
        },
        {
            "bufferView" : 1,
            "componentType" : 5126,
            "count" : 195,
            "type" : "VEC3"
        },
        {
            "bufferView" : 2,
            "componentType" : 5126,
            "count" : 195,
            "type" : "VEC2"
        },
        {
            "bufferView" : 3,
            "componentType" : 5126,
            "count" : 195,
            "type" : "VEC2"
        },
        {
            "bufferView" : 4,
            "componentType" : 5126,
            "count" : 195,
            "type" : "VEC2"
        },
        {
            "bufferView" : 5,
            "componentType" : 5126,
            "count" : 195,
            "type" : "VEC2"
        },
        {
            "bufferView" : 6,
            "componentType" : 5126,
            "count" : 195,
            "type" : "VEC2"
        },
        {
            "bufferView" : 7,
            "componentType" : 5123,
            "count" : 804,
            "type" : "SCALAR"
        },
        {
            "bufferView" : 8,
            "componentType" : 5126,
            "count" : 22,
            "max" : [
                3.9506595134735107,
                -0.0064702145755290985,
                19.340517044067383
            ],
            "min" : [
                -3.9506595134735107,
                -3.9515113830566406,
                0.7757492065429688
            ],
            "type" : "VEC3"
        },
        {
            "bufferView" : 9,
            "componentType" : 5126,
            "count" : 22,
            "type" : "VEC3"
        },
        {
            "bufferView" : 10,
            "componentType" : 5126,
            "count" : 22,
            "type" : "VEC2"
        },
        {
            "bufferView" : 11,
            "componentType" : 5126,
            "count" : 22,
            "type" : "VEC2"
        },
        {
            "bufferView" : 12,
            "componentType" : 5126,
            "count" : 22,
            "type" : "VEC2"
        },
        {
            "bufferView" : 13,
            "componentType" : 5126,
            "count" : 22,
            "type" : "VEC2"
        },
        {
            "bufferView" : 14,
            "componentType" : 5126,
            "count" : 22,
            "type" : "VEC2"
        },
        {
            "bufferView" : 15,
            "componentType" : 5123,
            "count" : 60,
            "type" : "SCALAR"
        }
    ],
    "bufferViews" : [
        {
            "buffer" : 0,
            "byteLength" : 2340,
            "byteOffset" : 0,
            "target" : 34962
        },
        {
            "buffer" : 0,
            "byteLength" : 2340,
            "byteOffset" : 2340,
            "target" : 34962
        },
        {
            "buffer" : 0,
            "byteLength" : 1560,
            "byteOffset" : 4680,
            "target" : 34962
        },
        {
            "buffer" : 0,
            "byteLength" : 1560,
            "byteOffset" : 6240,
            "target" : 34962
        },
        {
            "buffer" : 0,
            "byteLength" : 1560,
            "byteOffset" : 7800,
            "target" : 34962
        },
        {
            "buffer" : 0,
            "byteLength" : 1560,
            "byteOffset" : 9360,
            "target" : 34962
        },
        {
            "buffer" : 0,
            "byteLength" : 1560,
            "byteOffset" : 10920,
            "target" : 34962
        },
        {
            "buffer" : 0,
            "byteLength" : 1608,
            "byteOffset" : 12480,
            "target" : 34963
        },
        {
            "buffer" : 0,
            "byteLength" : 264,
            "byteOffset" : 14088,
            "target" : 34962
        },
        {
            "buffer" : 0,
            "byteLength" : 264,
            "byteOffset" : 14352,
            "target" : 34962
        },
        {
            "buffer" : 0,
            "byteLength" : 176,
            "byteOffset" : 14616,
            "target" : 34962
        },
        {
            "buffer" : 0,
            "byteLength" : 176,
            "byteOffset" : 14792,
            "target" : 34962
        },
        {
            "buffer" : 0,
            "byteLength" : 176,
            "byteOffset" : 14968,
            "target" : 34962
        },
        {
            "buffer" : 0,
            "byteLength" : 176,
            "byteOffset" : 15144,
            "target" : 34962
        },
        {
            "buffer" : 0,
            "byteLength" : 176,
            "byteOffset" : 15320,
            "target" : 34962
        },
        {
            "buffer" : 0,
            "byteLength" : 120,
            "byteOffset" : 15496,
            "target" : 34963
        }
    ],
    "samplers" : [
        {
            "magFilter" : 9729,
            "minFilter" : 9987
        }
    ],
    "buffers" : [
        {
            "byteLength" : 15616,
            "uri" : "20_vodka_absolut.bin"
        }
    ]
}
