{
    "asset" : {
        "generator" : "Khronos glTF Blender I/O v3.3.27",
        "version" : "2.0"
    },
    "extensionsUsed" : [
        "KHR_materials_transmission"
    ],
    "scene" : 0,
    "scenes" : [
        {
            "name" : "Scene",
            "nodes" : [
                0
            ]
        }
    ],
    "nodes" : [
        {
            "mesh" : 0,
            "name" : "Sortilege_Atlas_0",
            "rotation" : [
                -0.5,
                0.5,
                0.5000000596046448,
                0.4999999403953552
            ],
            "translation" : [
                0.13892364501953125,
                0,
                -1.9073489966103807e-05
            ]
        }
    ],
    "materials" : [
        {
            "alphaMode" : "BLEND",
            "extensions" : {
                "KHR_materials_transmission" : {
                    "transmissionFactor" : 1,
                    "transmissionTexture" : {
                        "index" : 0
                    }
                }
            },
            "name" : "Atlas",
            "normalTexture" : {
                "index" : 1
            },
            "pbrMetallicRoughness" : {
                "baseColorTexture" : {
                    "index" : 2
                },
                "metallicRoughnessTexture" : {
                    "index" : 3
                }
            }
        }
    ],
    "meshes" : [
        {
            "name" : "Sortilege_Atlas_0",
            "primitives" : [
                {
                    "attributes" : {
                        "POSITION" : 0,
                        "NORMAL" : 1,
                        "TEXCOORD_0" : 2,
                        "TEXCOORD_1" : 3,
                        "TEXCOORD_2" : 4,
                        "TEXCOORD_3" : 5,
                        "TEXCOORD_4" : 6
                    },
                    "indices" : 7,
                    "material" : 0
                }
            ]
        }
    ],
    "textures" : [
        {
            "sampler" : 0,
            "source" : 0
        },
        {
            "sampler" : 0,
            "source" : 1
        },
        {
            "sampler" : 0,
            "source" : 2
        },
        {
            "sampler" : 0,
            "source" : 3
        }
    ],
    "images" : [
        {
            "mimeType" : "image/png",
            "name" : "Atlas_transmission",
            "uri" : "Atlas_transmission.png"
        },
        {
            "mimeType" : "image/jpeg",
            "name" : "Atlas_normal",
            "uri" : "Atlas_normal.jpg"
        },
        {
            "mimeType" : "image/png",
            "name" : "Atlas_baseColor",
            "uri" : "Atlas_baseColor.png"
        },
        {
            "mimeType" : "image/png",
            "name" : "Atlas_metallicRoughness",
            "uri" : "Atlas_metallicRoughness.png"
        }
    ],
    "accessors" : [
        {
            "bufferView" : 0,
            "componentType" : 5126,
            "count" : 191,
            "max" : [
                4.277834892272949,
                4.277835369110107,
                27.11853790283203
            ],
            "min" : [
                -4.277835369110107,
                -4.277834892272949,
                0
            ],
            "type" : "VEC3"
        },
        {
            "bufferView" : 1,
            "componentType" : 5126,
            "count" : 191,
            "type" : "VEC3"
        },
        {
            "bufferView" : 2,
            "componentType" : 5126,
            "count" : 191,
            "type" : "VEC2"
        },
        {
            "bufferView" : 3,
            "componentType" : 5126,
            "count" : 191,
            "type" : "VEC2"
        },
        {
            "bufferView" : 4,
            "componentType" : 5126,
            "count" : 191,
            "type" : "VEC2"
        },
        {
            "bufferView" : 5,
            "componentType" : 5126,
            "count" : 191,
            "type" : "VEC2"
        },
        {
            "bufferView" : 6,
            "componentType" : 5126,
            "count" : 191,
            "type" : "VEC2"
        },
        {
            "bufferView" : 7,
            "componentType" : 5123,
            "count" : 828,
            "type" : "SCALAR"
        }
    ],
    "bufferViews" : [
        {
            "buffer" : 0,
            "byteLength" : 2292,
            "byteOffset" : 0,
            "target" : 34962
        },
        {
            "buffer" : 0,
            "byteLength" : 2292,
            "byteOffset" : 2292,
            "target" : 34962
        },
        {
            "buffer" : 0,
            "byteLength" : 1528,
            "byteOffset" : 4584,
            "target" : 34962
        },
        {
            "buffer" : 0,
            "byteLength" : 1528,
            "byteOffset" : 6112,
            "target" : 34962
        },
        {
            "buffer" : 0,
            "byteLength" : 1528,
            "byteOffset" : 7640,
            "target" : 34962
        },
        {
            "buffer" : 0,
            "byteLength" : 1528,
            "byteOffset" : 9168,
            "target" : 34962
        },
        {
            "buffer" : 0,
            "byteLength" : 1528,
            "byteOffset" : 10696,
            "target" : 34962
        },
        {
            "buffer" : 0,
            "byteLength" : 1656,
            "byteOffset" : 12224,
            "target" : 34963
        }
    ],
    "samplers" : [
        {
            "magFilter" : 9729,
            "minFilter" : 9987
        }
    ],
    "buffers" : [
        {
            "byteLength" : 13880,
            "uri" : "20_whiskey_sortilege.bin"
        }
    ]
}
