{
    "asset" : {
        "generator" : "Khronos glTF Blender I/O v3.3.27",
        "version" : "2.0"
    },
    "scene" : 0,
    "scenes" : [
        {
            "name" : "Scene",
            "nodes" : [
                0,
                1
            ]
        }
    ],
    "nodes" : [
        {
            "name" : "subject",
            "scale" : [
                2.402318239212036,
                4.851933479309082,
                2.349241018295288
            ],
            "translation" : [
                -0.042853593826293945,
                -4.903627395629883,
                -2.1430389881134033
            ]
        },
        {
            "mesh" : 0,
            "name" : "Ribcage",
            "translation" : [
                0,
                0.7175951600074768,
                0.7175960540771484
            ]
        }
    ],
    "materials" : [
        {
            "doubleSided" : true,
            "name" : "Ribcage",
            "pbrMetallicRoughness" : {
                "metallicFactor" : 0,
                "roughnessFactor" : 0.800000011920929
            }
        }
    ],
    "meshes" : [
        {
            "name" : "Ribcage",
            "primitives" : [
                {
                    "attributes" : {
                        "POSITION" : 0,
                        "NORMAL" : 1
                    },
                    "indices" : 2,
                    "material" : 0
                }
            ]
        }
    ],
    "accessors" : [
        {
            "bufferView" : 0,
            "componentType" : 5126,
            "count" : 6731,
            "max" : [
                2.500594139099121,
                6.018980979919434,
                -0.21986451745033264
            ],
            "min" : [
                -2.5519936084747314,
                -2.171459674835205,
                -10.018052101135254
            ],
            "type" : "VEC3"
        },
        {
            "bufferView" : 1,
            "componentType" : 5126,
            "count" : 6731,
            "type" : "VEC3"
        },
        {
            "bufferView" : 2,
            "componentType" : 5123,
            "count" : 40002,
            "type" : "SCALAR"
        }
    ],
    "bufferViews" : [
        {
            "buffer" : 0,
            "byteLength" : 80772,
            "byteOffset" : 0,
            "target" : 34962
        },
        {
            "buffer" : 0,
            "byteLength" : 80772,
            "byteOffset" : 80772,
            "target" : 34962
        },
        {
            "buffer" : 0,
            "byteLength" : 80004,
            "byteOffset" : 161544,
            "target" : 34963
        }
    ],
    "buffers" : [
        {
            "byteLength" : 241548,
            "uri" : "mdl_zesty_whale_tunnel.bin"
        }
    ]
}
