{
    "asset" : {
        "generator" : "Khronos glTF Blender I/O v3.3.27",
        "version" : "2.0"
    },
    "scene" : 0,
    "scenes" : [
        {
            "name" : "Scene",
            "nodes" : [
                0
            ]
        }
    ],
    "nodes" : [
        {
            "mesh" : 0,
            "name" : "Tail",
            "translation" : [
                0,
                -0.7175951600074768,
                -0.7175960540771484
            ]
        }
    ],
    "materials" : [
        {
            "doubleSided" : true,
            "name" : "Jaw",
            "pbrMetallicRoughness" : {
                "metallicFactor" : 0,
                "roughnessFactor" : 0.800000011920929
            }
        },
        {
            "doubleSided" : true,
            "name" : "Spine",
            "pbrMetallicRoughness" : {
                "metallicFactor" : 0,
                "roughnessFactor" : 0.800000011920929
            }
        },
        {
            "doubleSided" : true,
            "name" : "Skull",
            "pbrMetallicRoughness" : {
                "metallicFactor" : 0,
                "roughnessFactor" : 0.800000011920929
            }
        },
        {
            "doubleSided" : true,
            "name" : "Left_flipper",
            "pbrMetallicRoughness" : {
                "metallicFactor" : 0,
                "roughnessFactor" : 0.800000011920929
            }
        },
        {
            "doubleSided" : true,
            "name" : "Right_flipper",
            "pbrMetallicRoughness" : {
                "metallicFactor" : 0,
                "roughnessFactor" : 0.800000011920929
            }
        },
        {
            "doubleSided" : true,
            "name" : "Tussenstukje",
            "pbrMetallicRoughness" : {
                "metallicFactor" : 0,
                "roughnessFactor" : 0.800000011920929
            }
        },
        {
            "doubleSided" : true,
            "name" : "Ribcage",
            "pbrMetallicRoughness" : {
                "metallicFactor" : 0,
                "roughnessFactor" : 0.800000011920929
            }
        }
    ],
    "meshes" : [
        {
            "name" : "Tail",
            "primitives" : [
                {
                    "attributes" : {
                        "POSITION" : 0,
                        "NORMAL" : 1
                    },
                    "indices" : 2,
                    "material" : 0
                },
                {
                    "attributes" : {
                        "POSITION" : 3,
                        "NORMAL" : 4
                    },
                    "indices" : 5,
                    "material" : 1
                },
                {
                    "attributes" : {
                        "POSITION" : 6,
                        "NORMAL" : 7
                    },
                    "indices" : 8,
                    "material" : 0
                },
                {
                    "attributes" : {
                        "POSITION" : 9,
                        "NORMAL" : 10
                    },
                    "indices" : 11,
                    "material" : 2
                },
                {
                    "attributes" : {
                        "POSITION" : 12,
                        "NORMAL" : 13
                    },
                    "indices" : 14,
                    "material" : 3
                },
                {
                    "attributes" : {
                        "POSITION" : 15,
                        "NORMAL" : 16
                    },
                    "indices" : 17,
                    "material" : 4
                },
                {
                    "attributes" : {
                        "POSITION" : 18,
                        "NORMAL" : 19
                    },
                    "indices" : 20,
                    "material" : 5
                },
                {
                    "attributes" : {
                        "POSITION" : 21,
                        "NORMAL" : 22
                    },
                    "indices" : 23,
                    "material" : 6
                }
            ]
        }
    ],
    "accessors" : [
        {
            "bufferView" : 0,
            "componentType" : 5126,
            "count" : 1075,
            "max" : [
                0.635373055934906,
                -3.124197006225586,
                28.678340911865234
            ],
            "min" : [
                -0.9194664359092712,
                -8.058747291564941,
                17.03993034362793
            ],
            "type" : "VEC3"
        },
        {
            "bufferView" : 1,
            "componentType" : 5126,
            "count" : 1075,
            "type" : "VEC3"
        },
        {
            "bufferView" : 2,
            "componentType" : 5123,
            "count" : 6252,
            "type" : "SCALAR"
        },
        {
            "bufferView" : 3,
            "componentType" : 5126,
            "count" : 1131,
            "max" : [
                1.1682844161987305,
                -4.419077396392822,
                17.57477569580078
            ],
            "min" : [
                -1.2887513637542725,
                -8.279804229736328,
                6.834749698638916
            ],
            "type" : "VEC3"
        },
        {
            "bufferView" : 4,
            "componentType" : 5126,
            "count" : 1131,
            "type" : "VEC3"
        },
        {
            "bufferView" : 5,
            "componentType" : 5123,
            "count" : 6768,
            "type" : "SCALAR"
        },
        {
            "bufferView" : 6,
            "componentType" : 5126,
            "count" : 265,
            "max" : [
                2.3110198974609375,
                7.766449928283691,
                0.4651678502559662
            ],
            "min" : [
                -2.366989850997925,
                1.0804764032363892,
                -7.065228462219238
            ],
            "type" : "VEC3"
        },
        {
            "bufferView" : 7,
            "componentType" : 5126,
            "count" : 265,
            "type" : "VEC3"
        },
        {
            "bufferView" : 8,
            "componentType" : 5123,
            "count" : 1578,
            "type" : "SCALAR"
        },
        {
            "bufferView" : 9,
            "componentType" : 5126,
            "count" : 592,
            "max" : [
                2.352391004562378,
                4.186099052429199,
                1.0191762447357178
            ],
            "min" : [
                -2.437328338623047,
                -0.5163815021514893,
                -8.688803672790527
            ],
            "type" : "VEC3"
        },
        {
            "bufferView" : 10,
            "componentType" : 5126,
            "count" : 592,
            "type" : "VEC3"
        },
        {
            "bufferView" : 11,
            "componentType" : 5123,
            "count" : 3612,
            "type" : "SCALAR"
        },
        {
            "bufferView" : 12,
            "componentType" : 5126,
            "count" : 281,
            "max" : [
                6.28333044052124,
                1.0288708209991455,
                6.3853583335876465
            ],
            "min" : [
                1.2554106712341309,
                -1.6980842351913452,
                0.6559129357337952
            ],
            "type" : "VEC3"
        },
        {
            "bufferView" : 13,
            "componentType" : 5126,
            "count" : 281,
            "type" : "VEC3"
        },
        {
            "bufferView" : 14,
            "componentType" : 5123,
            "count" : 1698,
            "type" : "SCALAR"
        },
        {
            "bufferView" : 15,
            "componentType" : 5126,
            "count" : 280,
            "max" : [
                -1.2935211658477783,
                0.5902929902076721,
                6.0374345779418945
            ],
            "min" : [
                -6.967041969299316,
                -1.6468676328659058,
                0.772617757320404
            ],
            "type" : "VEC3"
        },
        {
            "bufferView" : 16,
            "componentType" : 5126,
            "count" : 280,
            "type" : "VEC3"
        },
        {
            "bufferView" : 17,
            "componentType" : 5123,
            "count" : 1692,
            "type" : "SCALAR"
        },
        {
            "bufferView" : 18,
            "componentType" : 5126,
            "count" : 32,
            "max" : [
                0.02965022623538971,
                3.093717336654663,
                -1.4959464073181152
            ],
            "min" : [
                -0.13448213040828705,
                1.1051692962646484,
                -5.7881927490234375
            ],
            "type" : "VEC3"
        },
        {
            "bufferView" : 19,
            "componentType" : 5126,
            "count" : 32,
            "type" : "VEC3"
        },
        {
            "bufferView" : 20,
            "componentType" : 5123,
            "count" : 180,
            "type" : "SCALAR"
        },
        {
            "bufferView" : 21,
            "componentType" : 5126,
            "count" : 1986,
            "max" : [
                2.500062942504883,
                2.1656882762908936,
                9.997496604919434
            ],
            "min" : [
                -2.569234609603882,
                -6.0004754066467285,
                0.20514044165611267
            ],
            "type" : "VEC3"
        },
        {
            "bufferView" : 22,
            "componentType" : 5126,
            "count" : 1986,
            "type" : "VEC3"
        },
        {
            "bufferView" : 23,
            "componentType" : 5123,
            "count" : 11769,
            "type" : "SCALAR"
        }
    ],
    "bufferViews" : [
        {
            "buffer" : 0,
            "byteLength" : 12900,
            "byteOffset" : 0,
            "target" : 34962
        },
        {
            "buffer" : 0,
            "byteLength" : 12900,
            "byteOffset" : 12900,
            "target" : 34962
        },
        {
            "buffer" : 0,
            "byteLength" : 12504,
            "byteOffset" : 25800,
            "target" : 34963
        },
        {
            "buffer" : 0,
            "byteLength" : 13572,
            "byteOffset" : 38304,
            "target" : 34962
        },
        {
            "buffer" : 0,
            "byteLength" : 13572,
            "byteOffset" : 51876,
            "target" : 34962
        },
        {
            "buffer" : 0,
            "byteLength" : 13536,
            "byteOffset" : 65448,
            "target" : 34963
        },
        {
            "buffer" : 0,
            "byteLength" : 3180,
            "byteOffset" : 78984,
            "target" : 34962
        },
        {
            "buffer" : 0,
            "byteLength" : 3180,
            "byteOffset" : 82164,
            "target" : 34962
        },
        {
            "buffer" : 0,
            "byteLength" : 3156,
            "byteOffset" : 85344,
            "target" : 34963
        },
        {
            "buffer" : 0,
            "byteLength" : 7104,
            "byteOffset" : 88500,
            "target" : 34962
        },
        {
            "buffer" : 0,
            "byteLength" : 7104,
            "byteOffset" : 95604,
            "target" : 34962
        },
        {
            "buffer" : 0,
            "byteLength" : 7224,
            "byteOffset" : 102708,
            "target" : 34963
        },
        {
            "buffer" : 0,
            "byteLength" : 3372,
            "byteOffset" : 109932,
            "target" : 34962
        },
        {
            "buffer" : 0,
            "byteLength" : 3372,
            "byteOffset" : 113304,
            "target" : 34962
        },
        {
            "buffer" : 0,
            "byteLength" : 3396,
            "byteOffset" : 116676,
            "target" : 34963
        },
        {
            "buffer" : 0,
            "byteLength" : 3360,
            "byteOffset" : 120072,
            "target" : 34962
        },
        {
            "buffer" : 0,
            "byteLength" : 3360,
            "byteOffset" : 123432,
            "target" : 34962
        },
        {
            "buffer" : 0,
            "byteLength" : 3384,
            "byteOffset" : 126792,
            "target" : 34963
        },
        {
            "buffer" : 0,
            "byteLength" : 384,
            "byteOffset" : 130176,
            "target" : 34962
        },
        {
            "buffer" : 0,
            "byteLength" : 384,
            "byteOffset" : 130560,
            "target" : 34962
        },
        {
            "buffer" : 0,
            "byteLength" : 360,
            "byteOffset" : 130944,
            "target" : 34963
        },
        {
            "buffer" : 0,
            "byteLength" : 23832,
            "byteOffset" : 131304,
            "target" : 34962
        },
        {
            "buffer" : 0,
            "byteLength" : 23832,
            "byteOffset" : 155136,
            "target" : 34962
        },
        {
            "buffer" : 0,
            "byteLength" : 23538,
            "byteOffset" : 178968,
            "target" : 34963
        }
    ],
    "buffers" : [
        {
            "byteLength" : 202508,
            "uri" : "mdl_zesty_whale.bin"
        }
    ]
}
