{
    "asset" : {
        "generator" : "Khronos glTF Blender I/O v3.4.50",
        "version" : "2.0"
    },
    "scene" : 0,
    "scenes" : [
        {
            "name" : "Scene",
            "nodes" : [
                11
            ]
        }
    ],
    "nodes" : [
        {
            "mesh" : 0,
            "name" : "Material0"
        },
        {
            "children" : [
                0
            ],
            "name" : "Cover"
        },
        {
            "children" : [
                1
            ],
            "name" : "Object_3"
        },
        {
            "mesh" : 1,
            "name" : "Material0.001"
        },
        {
            "children" : [
                3
            ],
            "name" : "Holder"
        },
        {
            "children" : [
                4
            ],
            "name" : "Object_6"
        },
        {
            "mesh" : 2,
            "name" : "Material0.002"
        },
        {
            "children" : [
                6
            ],
            "name" : "Main"
        },
        {
            "children" : [
                7
            ],
            "name" : "Object_9"
        },
        {
            "children" : [
                2,
                5,
                8
            ],
            "name" : "5e430d830b368215c1f17511"
        },
        {
            "children" : [
                9
            ],
            "name" : "Collada visual scene group"
        },
        {
            "children" : [
                10
            ],
            "name" : "Sketchfab_model",
            "rotation" : [
                -0.70710688829422,
                0,
                0,
                0.7071066498756409
            ]
        }
    ],
    "materials" : [
        {
            "doubleSided" : true,
            "name" : "Material0",
            "pbrMetallicRoughness" : {
                "metallicFactor" : 0,
                "roughnessFactor" : 0.6000000238418579
            }
        },
        {
            "doubleSided" : true,
            "name" : "Material0_0",
            "pbrMetallicRoughness" : {
                "baseColorFactor" : [
                    0.6549019813537598,
                    0.8235290050506592,
                    0.5764709711074829,
                    1
                ],
                "metallicFactor" : 0,
                "roughnessFactor" : 0.6000000238418579
            }
        }
    ],
    "meshes" : [
        {
            "name" : "Material0",
            "primitives" : [
                {
                    "attributes" : {
                        "POSITION" : 0,
                        "NORMAL" : 1
                    },
                    "indices" : 2,
                    "material" : 0
                }
            ]
        },
        {
            "name" : "Material0.001",
            "primitives" : [
                {
                    "attributes" : {
                        "POSITION" : 3,
                        "NORMAL" : 4
                    },
                    "indices" : 5,
                    "material" : 0
                }
            ]
        },
        {
            "name" : "Material0.002",
            "primitives" : [
                {
                    "attributes" : {
                        "POSITION" : 6,
                        "NORMAL" : 7
                    },
                    "indices" : 8,
                    "material" : 1
                }
            ]
        }
    ],
    "accessors" : [
        {
            "bufferView" : 0,
            "componentType" : 5126,
            "count" : 8403,
            "max" : [
                0.06055000051856041,
                0.05103519931435585,
                0.0289389006793499
            ],
            "min" : [
                -0.06055000051856041,
                -0.030317099764943123,
                -0.043292101472616196
            ],
            "type" : "VEC3"
        },
        {
            "bufferView" : 1,
            "componentType" : 5126,
            "count" : 8403,
            "type" : "VEC3"
        },
        {
            "bufferView" : 2,
            "componentType" : 5123,
            "count" : 18942,
            "type" : "SCALAR"
        },
        {
            "bufferView" : 3,
            "componentType" : 5126,
            "count" : 4896,
            "max" : [
                0.055399999022483826,
                0.051035698503255844,
                0.023788899183273315
            ],
            "min" : [
                -0.055399999022483826,
                0.029035499319434166,
                -0.052053000777959824
            ],
            "type" : "VEC3"
        },
        {
            "bufferView" : 4,
            "componentType" : 5126,
            "count" : 4896,
            "type" : "VEC3"
        },
        {
            "bufferView" : 5,
            "componentType" : 5123,
            "count" : 9876,
            "type" : "SCALAR"
        },
        {
            "bufferView" : 6,
            "componentType" : 5126,
            "count" : 6938,
            "max" : [
                0.06055000051856041,
                0.051035698503255844,
                0.026438899338245392
            ],
            "min" : [
                -0.06055000051856041,
                -0.019124699756503105,
                -0.05205339938402176
            ],
            "type" : "VEC3"
        },
        {
            "bufferView" : 7,
            "componentType" : 5126,
            "count" : 6938,
            "type" : "VEC3"
        },
        {
            "bufferView" : 8,
            "componentType" : 5123,
            "count" : 13440,
            "type" : "SCALAR"
        }
    ],
    "bufferViews" : [
        {
            "buffer" : 0,
            "byteLength" : 100836,
            "byteOffset" : 0,
            "target" : 34962
        },
        {
            "buffer" : 0,
            "byteLength" : 100836,
            "byteOffset" : 100836,
            "target" : 34962
        },
        {
            "buffer" : 0,
            "byteLength" : 37884,
            "byteOffset" : 201672,
            "target" : 34963
        },
        {
            "buffer" : 0,
            "byteLength" : 58752,
            "byteOffset" : 239556,
            "target" : 34962
        },
        {
            "buffer" : 0,
            "byteLength" : 58752,
            "byteOffset" : 298308,
            "target" : 34962
        },
        {
            "buffer" : 0,
            "byteLength" : 19752,
            "byteOffset" : 357060,
            "target" : 34963
        },
        {
            "buffer" : 0,
            "byteLength" : 83256,
            "byteOffset" : 376812,
            "target" : 34962
        },
        {
            "buffer" : 0,
            "byteLength" : 83256,
            "byteOffset" : 460068,
            "target" : 34962
        },
        {
            "buffer" : 0,
            "byteLength" : 26880,
            "byteOffset" : 543324,
            "target" : 34963
        }
    ],
    "buffers" : [
        {
            "byteLength" : 570204,
            "uri" : "mdl_eurekapaprika_case.bin"
        }
    ]
}
