{
    "asset" : {
        "generator" : "Khronos glTF Blender I/O v3.4.50",
        "version" : "2.0"
    },
    "scene" : 0,
    "scenes" : [
        {
            "name" : "Scene",
            "nodes" : [
                0
            ]
        }
    ],
    "nodes" : [
        {
            "mesh" : 0,
            "name" : "Ribcage",
            "translation" : [
                0,
                0.7175951600074768,
                0.7175960540771484
            ]
        }
    ],
    "materials" : [
        {
            "doubleSided" : true,
            "name" : "Ribcage",
            "pbrMetallicRoughness" : {}
        }
    ],
    "meshes" : [
        {
            "name" : "Ribcage",
            "primitives" : [
                {
                    "attributes" : {
                        "POSITION" : 0
                    },
                    "indices" : 1,
                    "material" : 0
                }
            ]
        }
    ],
    "accessors" : [
        {
            "bufferView" : 0,
            "componentType" : 5126,
            "count" : 8961,
            "max" : [
                2.50433611869812,
                6.016652584075928,
                -0.22021357715129852
            ],
            "min" : [
                -2.555241107940674,
                -2.170402765274048,
                -10.002392768859863
            ],
            "type" : "VEC3"
        },
        {
            "bufferView" : 1,
            "componentType" : 5123,
            "count" : 41826,
            "type" : "SCALAR"
        }
    ],
    "bufferViews" : [
        {
            "buffer" : 0,
            "byteLength" : 107532,
            "byteOffset" : 0,
            "target" : 34962
        },
        {
            "buffer" : 0,
            "byteLength" : 83652,
            "byteOffset" : 107532,
            "target" : 34963
        }
    ],
    "buffers" : [
        {
            "byteLength" : 191184,
            "uri" : "data:application/octet-stream;base64,"
        }
    ]
}
