{
    "asset" : {
        "generator" : "Khronos glTF Blender I/O v3.4.50",
        "version" : "2.0"
    },
    "scene" : 0,
    "scenes" : [
        {
            "name" : "Scene",
            "nodes" : [
                0
            ]
        }
    ],
    "nodes" : [
        {
            "mesh" : 0,
            "name" : "Tail",
            "translation" : [
                0,
                -0.7175960540771484,
                0.7175951600074768
            ]
        }
    ],
    "materials" : [
        {
            "doubleSided" : true,
            "name" : "Tail",
            "pbrMetallicRoughness" : {}
        },
        {
            "doubleSided" : true,
            "name" : "Spine",
            "pbrMetallicRoughness" : {}
        },
        {
            "doubleSided" : true,
            "name" : "Jaw",
            "pbrMetallicRoughness" : {}
        },
        {
            "doubleSided" : true,
            "name" : "Skull",
            "pbrMetallicRoughness" : {}
        },
        {
            "doubleSided" : true,
            "name" : "Left_flipper",
            "pbrMetallicRoughness" : {}
        },
        {
            "doubleSided" : true,
            "name" : "Right_flipper",
            "pbrMetallicRoughness" : {}
        },
        {
            "doubleSided" : true,
            "name" : "Tussenstukje",
            "pbrMetallicRoughness" : {}
        },
        {
            "doubleSided" : true,
            "name" : "Ribcage",
            "pbrMetallicRoughness" : {}
        }
    ],
    "meshes" : [
        {
            "name" : "Tail",
            "primitives" : [
                {
                    "attributes" : {
                        "POSITION" : 0
                    },
                    "indices" : 1,
                    "material" : 0
                },
                {
                    "attributes" : {
                        "POSITION" : 2
                    },
                    "indices" : 3,
                    "material" : 1
                },
                {
                    "attributes" : {
                        "POSITION" : 4
                    },
                    "indices" : 5,
                    "material" : 2
                },
                {
                    "attributes" : {
                        "POSITION" : 6
                    },
                    "indices" : 7,
                    "material" : 3
                },
                {
                    "attributes" : {
                        "POSITION" : 8
                    },
                    "indices" : 9,
                    "material" : 4
                },
                {
                    "attributes" : {
                        "POSITION" : 10
                    },
                    "indices" : 11,
                    "material" : 5
                },
                {
                    "attributes" : {
                        "POSITION" : 12
                    },
                    "indices" : 13,
                    "material" : 6
                },
                {
                    "attributes" : {
                        "POSITION" : 14
                    },
                    "indices" : 15,
                    "material" : 7
                }
            ]
        }
    ],
    "accessors" : [
        {
            "bufferView" : 0,
            "componentType" : 5126,
            "count" : 20180,
            "max" : [
                0.6215963959693909,
                28.676408767700195,
                8.070358276367188
            ],
            "min" : [
                -0.9206054210662842,
                17.034114837646484,
                3.134289503097534
            ],
            "type" : "VEC3"
        },
        {
            "bufferView" : 1,
            "componentType" : 5123,
            "count" : 120840,
            "type" : "SCALAR"
        },
        {
            "bufferView" : 2,
            "componentType" : 5126,
            "count" : 21354,
            "max" : [
                1.1625854969024658,
                17.567453384399414,
                8.271471977233887
            ],
            "min" : [
                -1.2748456001281738,
                6.826294422149658,
                4.409509658813477
            ],
            "type" : "VEC3"
        },
        {
            "bufferView" : 3,
            "componentType" : 5123,
            "count" : 128052,
            "type" : "SCALAR"
        },
        {
            "bufferView" : 4,
            "componentType" : 5126,
            "count" : 7394,
            "max" : [
                2.306478261947632,
                0.4496802091598511,
                -1.073676347732544
            ],
            "min" : [
                -2.3727362155914307,
                -7.0704851150512695,
                -7.76694917678833
            ],
            "type" : "VEC3"
        },
        {
            "bufferView" : 5,
            "componentType" : 5123,
            "count" : 44352,
            "type" : "SCALAR"
        },
        {
            "bufferView" : 6,
            "componentType" : 5126,
            "count" : 11865,
            "max" : [
                2.359464645385742,
                1.015161156654358,
                0.514245331287384
            ],
            "min" : [
                -2.44517183303833,
                -8.688705444335938,
                -4.184235572814941
            ],
            "type" : "VEC3"
        },
        {
            "bufferView" : 7,
            "componentType" : 5123,
            "count" : 71250,
            "type" : "SCALAR"
        },
        {
            "bufferView" : 8,
            "componentType" : 5126,
            "count" : 6456,
            "max" : [
                6.292570114135742,
                6.3942952156066895,
                1.7096412181854248
            ],
            "min" : [
                1.248932123184204,
                0.66631019115448,
                -1.020520567893982
            ],
            "type" : "VEC3"
        },
        {
            "bufferView" : 9,
            "componentType" : 5123,
            "count" : 38748,
            "type" : "SCALAR"
        },
        {
            "bufferView" : 10,
            "componentType" : 5126,
            "count" : 6456,
            "max" : [
                -1.2986854314804077,
                6.051609992980957,
                1.6502583026885986
            ],
            "min" : [
                -6.973814487457275,
                0.7815790176391602,
                -0.5892228484153748
            ],
            "type" : "VEC3"
        },
        {
            "bufferView" : 11,
            "componentType" : 5123,
            "count" : 38748,
            "type" : "SCALAR"
        },
        {
            "bufferView" : 12,
            "componentType" : 5126,
            "count" : 1970,
            "max" : [
                0.02943314053118229,
                -1.4972915649414062,
                -1.1118577718734741
            ],
            "min" : [
                -0.13745644688606262,
                -5.787981986999512,
                -3.099221706390381
            ],
            "type" : "VEC3"
        },
        {
            "bufferView" : 13,
            "componentType" : 5123,
            "count" : 11808,
            "type" : "SCALAR"
        },
        {
            "bufferView" : 14,
            "componentType" : 5126,
            "count" : 36237,
            "max" : [
                2.500594139099121,
                10.015978813171387,
                6.018316745758057
            ],
            "min" : [
                -2.5519936084747314,
                0.220255047082901,
                -2.171459674835205
            ],
            "type" : "VEC3"
        },
        {
            "bufferView" : 15,
            "componentType" : 5123,
            "count" : 217278,
            "type" : "SCALAR"
        }
    ],
    "bufferViews" : [
        {
            "buffer" : 0,
            "byteLength" : 242160,
            "byteOffset" : 0,
            "target" : 34962
        },
        {
            "buffer" : 0,
            "byteLength" : 241680,
            "byteOffset" : 242160,
            "target" : 34963
        },
        {
            "buffer" : 0,
            "byteLength" : 256248,
            "byteOffset" : 483840,
            "target" : 34962
        },
        {
            "buffer" : 0,
            "byteLength" : 256104,
            "byteOffset" : 740088,
            "target" : 34963
        },
        {
            "buffer" : 0,
            "byteLength" : 88728,
            "byteOffset" : 996192,
            "target" : 34962
        },
        {
            "buffer" : 0,
            "byteLength" : 88704,
            "byteOffset" : 1084920,
            "target" : 34963
        },
        {
            "buffer" : 0,
            "byteLength" : 142380,
            "byteOffset" : 1173624,
            "target" : 34962
        },
        {
            "buffer" : 0,
            "byteLength" : 142500,
            "byteOffset" : 1316004,
            "target" : 34963
        },
        {
            "buffer" : 0,
            "byteLength" : 77472,
            "byteOffset" : 1458504,
            "target" : 34962
        },
        {
            "buffer" : 0,
            "byteLength" : 77496,
            "byteOffset" : 1535976,
            "target" : 34963
        },
        {
            "buffer" : 0,
            "byteLength" : 77472,
            "byteOffset" : 1613472,
            "target" : 34962
        },
        {
            "buffer" : 0,
            "byteLength" : 77496,
            "byteOffset" : 1690944,
            "target" : 34963
        },
        {
            "buffer" : 0,
            "byteLength" : 23640,
            "byteOffset" : 1768440,
            "target" : 34962
        },
        {
            "buffer" : 0,
            "byteLength" : 23616,
            "byteOffset" : 1792080,
            "target" : 34963
        },
        {
            "buffer" : 0,
            "byteLength" : 434844,
            "byteOffset" : 1815696,
            "target" : 34962
        },
        {
            "buffer" : 0,
            "byteLength" : 434556,
            "byteOffset" : 2250540,
            "target" : 34963
        }
    ],
    "buffers" : [
        {
            "byteLength" : 2685096,
            "uri" : "data:application/octet-stream;base64,"
        }
    ]
}
