{
    "asset" : {
        "generator" : "Khronos glTF Blender I/O v3.3.27",
        "version" : "2.0"
    },
    "scene" : 0,
    "scenes" : [
        {
            "name" : "Scene",
            "nodes" : [
                0
            ]
        }
    ],
    "nodes" : [
        {
            "mesh" : 0,
            "name" : "defaultMaterial.001",
            "scale" : [
                5.069064140319824,
                5.069065093994141,
                5.069065093994141
            ]
        }
    ],
    "materials" : [
        {
            "emissiveFactor" : [
                0.5,
                0.5,
                0.5
            ],
            "emissiveTexture" : {
                "index" : 0
            },
            "name" : "JP_Gate",
            "normalTexture" : {
                "index" : 1
            },
            "occlusionTexture" : {
                "index" : 2
            },
            "pbrMetallicRoughness" : {
                "baseColorTexture" : {
                    "index" : 3
                },
                "metallicRoughnessTexture" : {
                    "index" : 2
                }
            }
        }
    ],
    "meshes" : [
        {
            "name" : "defaultMaterial.001",
            "primitives" : [
                {
                    "attributes" : {
                        "POSITION" : 0,
                        "NORMAL" : 1,
                        "TEXCOORD_0" : 2
                    },
                    "indices" : 3,
                    "material" : 0
                }
            ]
        }
    ],
    "textures" : [
        {
            "sampler" : 0,
            "source" : 0
        },
        {
            "sampler" : 0,
            "source" : 1
        },
        {
            "sampler" : 0,
            "source" : 2
        },
        {
            "sampler" : 0,
            "source" : 3
        }
    ],
    "images" : [
        {
            "mimeType" : "image/jpeg",
            "name" : "JP_Gate_emissive",
            "uri" : "JP_Gate_emissive.jpg"
        },
        {
            "mimeType" : "image/png",
            "name" : "JP_Gate_normal",
            "uri" : "JP_Gate_normal.png"
        },
        {
            "mimeType" : "image/png",
            "name" : "JP_Gate_metallicRoughness",
            "uri" : "JP_Gate_metallicRoughness.png"
        },
        {
            "mimeType" : "image/jpeg",
            "name" : "JP_Gate_baseColor",
            "uri" : "JP_Gate_baseColor.jpg"
        }
    ],
    "accessors" : [
        {
            "bufferView" : 0,
            "componentType" : 5126,
            "count" : 572,
            "max" : [
                0.00036625564098358154,
                1.0947450399398804,
                0.0338180735707283
            ],
            "min" : [
                -0.4748455286026001,
                0.0008769631385803223,
                -0.03381786495447159
            ],
            "type" : "VEC3"
        },
        {
            "bufferView" : 1,
            "componentType" : 5126,
            "count" : 572,
            "type" : "VEC3"
        },
        {
            "bufferView" : 2,
            "componentType" : 5126,
            "count" : 572,
            "type" : "VEC2"
        },
        {
            "bufferView" : 3,
            "componentType" : 5123,
            "count" : 768,
            "type" : "SCALAR"
        }
    ],
    "bufferViews" : [
        {
            "buffer" : 0,
            "byteLength" : 6864,
            "byteOffset" : 0,
            "target" : 34962
        },
        {
            "buffer" : 0,
            "byteLength" : 6864,
            "byteOffset" : 6864,
            "target" : 34962
        },
        {
            "buffer" : 0,
            "byteLength" : 4576,
            "byteOffset" : 13728,
            "target" : 34962
        },
        {
            "buffer" : 0,
            "byteLength" : 1536,
            "byteOffset" : 18304,
            "target" : 34963
        }
    ],
    "samplers" : [
        {
            "magFilter" : 9729,
            "minFilter" : 9987
        }
    ],
    "buffers" : [
        {
            "byteLength" : 19840,
            "uri" : "mdl_franch_historygate_door.bin"
        }
    ]
}
