{
    "asset" : {
        "generator" : "Khronos glTF Blender I/O v3.3.27",
        "version" : "2.0"
    },
    "scene" : 0,
    "scenes" : [
        {
            "name" : "Scene",
            "nodes" : [
                5
            ]
        }
    ],
    "nodes" : [
        {
            "mesh" : 0,
            "name" : "Object_4"
        },
        {
            "mesh" : 1,
            "name" : "Object_5"
        },
        {
            "children" : [
                0,
                1
            ],
            "name" : "emission high 1.001_2"
        },
        {
            "children" : [
                2
            ],
            "name" : "GLTF_SceneRootNode",
            "rotation" : [
                0.7071068286895752,
                0,
                0,
                0.7071067094802856
            ]
        },
        {
            "children" : [
                3
            ],
            "name" : "root"
        },
        {
            "children" : [
                4
            ],
            "name" : "Sketchfab_model",
            "rotation" : [
                -0.7071068286895752,
                0,
                0,
                0.7071067094802856
            ]
        }
    ],
    "materials" : [
        {
            "doubleSided" : true,
            "name" : "Material.001",
            "normalTexture" : {
                "index" : 0
            },
            "occlusionTexture" : {
                "index" : 1
            },
            "pbrMetallicRoughness" : {
                "baseColorTexture" : {
                    "index" : 2
                },
                "metallicRoughnessTexture" : {
                    "index" : 1
                }
            }
        },
        {
            "doubleSided" : true,
            "emissiveFactor" : [
                1,
                1,
                0.9216231107711792
            ],
            "name" : "emission",
            "pbrMetallicRoughness" : {
                "baseColorFactor" : [
                    0.800000011920929,
                    0.800000011920929,
                    0.800000011920929,
                    1
                ],
                "metallicFactor" : 0,
                "metallicRoughnessTexture" : {
                    "index" : 3
                }
            }
        }
    ],
    "meshes" : [
        {
            "name" : "Object_0",
            "primitives" : [
                {
                    "attributes" : {
                        "POSITION" : 0,
                        "NORMAL" : 1,
                        "TEXCOORD_0" : 2
                    },
                    "indices" : 3,
                    "material" : 0
                }
            ]
        },
        {
            "name" : "Object_1",
            "primitives" : [
                {
                    "attributes" : {
                        "POSITION" : 4,
                        "NORMAL" : 5,
                        "TEXCOORD_0" : 6
                    },
                    "indices" : 7,
                    "material" : 1
                }
            ]
        }
    ],
    "textures" : [
        {
            "sampler" : 0,
            "source" : 0
        },
        {
            "sampler" : 0,
            "source" : 1
        },
        {
            "sampler" : 0,
            "source" : 2
        },
        {
            "sampler" : 0,
            "source" : 3
        }
    ],
    "images" : [
        {
            "mimeType" : "image/png",
            "name" : "Material_normal",
            "uri" : "Material_normal.png"
        },
        {
            "mimeType" : "image/png",
            "name" : "Material_metallicRoughness",
            "uri" : "Material_metallicRoughness.png"
        },
        {
            "mimeType" : "image/png",
            "name" : "Material_baseColor",
            "uri" : "Material_baseColor.png"
        },
        {
            "mimeType" : "image/png",
            "name" : "emission_metallicRoughness",
            "uri" : "emission_metallicRoughness.png"
        }
    ],
    "accessors" : [
        {
            "bufferView" : 0,
            "componentType" : 5126,
            "count" : 1736,
            "max" : [
                0.22391155362129211,
                0.5812577605247498,
                0.22158680856227875
            ],
            "min" : [
                -0.21926185488700867,
                0,
                -0.22158686816692352
            ],
            "type" : "VEC3"
        },
        {
            "bufferView" : 1,
            "componentType" : 5126,
            "count" : 1736,
            "type" : "VEC3"
        },
        {
            "bufferView" : 2,
            "componentType" : 5126,
            "count" : 1736,
            "type" : "VEC2"
        },
        {
            "bufferView" : 3,
            "componentType" : 5123,
            "count" : 8994,
            "type" : "SCALAR"
        },
        {
            "bufferView" : 4,
            "componentType" : 5126,
            "count" : 18,
            "max" : [
                0.009081639349460602,
                0.5596781373023987,
                0.006756572052836418
            ],
            "min" : [
                -0.004431925714015961,
                0.4303331971168518,
                -0.0067565347999334335
            ],
            "type" : "VEC3"
        },
        {
            "bufferView" : 5,
            "componentType" : 5126,
            "count" : 18,
            "type" : "VEC3"
        },
        {
            "bufferView" : 6,
            "componentType" : 5126,
            "count" : 18,
            "type" : "VEC2"
        },
        {
            "bufferView" : 7,
            "componentType" : 5123,
            "count" : 48,
            "type" : "SCALAR"
        }
    ],
    "bufferViews" : [
        {
            "buffer" : 0,
            "byteLength" : 20832,
            "byteOffset" : 0,
            "target" : 34962
        },
        {
            "buffer" : 0,
            "byteLength" : 20832,
            "byteOffset" : 20832,
            "target" : 34962
        },
        {
            "buffer" : 0,
            "byteLength" : 13888,
            "byteOffset" : 41664,
            "target" : 34962
        },
        {
            "buffer" : 0,
            "byteLength" : 17988,
            "byteOffset" : 55552,
            "target" : 34963
        },
        {
            "buffer" : 0,
            "byteLength" : 216,
            "byteOffset" : 73540,
            "target" : 34962
        },
        {
            "buffer" : 0,
            "byteLength" : 216,
            "byteOffset" : 73756,
            "target" : 34962
        },
        {
            "buffer" : 0,
            "byteLength" : 144,
            "byteOffset" : 73972,
            "target" : 34962
        },
        {
            "buffer" : 0,
            "byteLength" : 96,
            "byteOffset" : 74116,
            "target" : 34963
        }
    ],
    "samplers" : [
        {
            "magFilter" : 9729,
            "minFilter" : 9987
        }
    ],
    "buffers" : [
        {
            "byteLength" : 74212,
            "uri" : "lamp_edtied.bin"
        }
    ]
}
