{
    "asset" : {
        "generator" : "Khronos glTF Blender I/O v3.3.27",
        "version" : "2.0"
    },
    "scene" : 0,
    "scenes" : [
        {
            "name" : "Scene",
            "nodes" : [
                9
            ]
        }
    ],
    "nodes" : [
        {
            "name" : "Spider_bottle v73.liquid",
            "scale" : [
                0.9702625870704651,
                0.9702625870704651,
                0.9702625870704651
            ],
            "translation" : [
                -0.09863116592168808,
                0.9622312188148499,
                119.1290283203125
            ]
        },
        {
            "mesh" : 0,
            "name" : "Spider_bottle v73cap_brass pure.001_0"
        },
        {
            "children" : [
                1
            ],
            "name" : "Spider_bottle v73cap",
            "translation" : [
                0,
                0,
                -0.17864131927490234
            ]
        },
        {
            "name" : "spider2.004",
            "rotation" : [
                0.03847893700003624,
                0.7350594401359558,
                0.6761515140533447,
                0.0320345014333725
            ],
            "scale" : [
                0.30422890186309814,
                0.35620346665382385,
                0.3221287429332733
            ],
            "translation" : [
                0.0025324251037091017,
                -0.1600712239742279,
                -0.19372066855430603
            ]
        },
        {
            "children" : [
                3
            ],
            "name" : "wraper.004",
            "rotation" : [
                0,
                0,
                -0.007119544316083193,
                0.9999746680259705
            ],
            "scale" : [
                218.5193634033203,
                206.30018615722656,
                186.40072631835938
            ],
            "translation" : [
                0.7891857624053955,
                -6.347701549530029,
                212.671875
            ]
        },
        {
            "name" : "wraper.005",
            "rotation" : [
                0.0001458986516809091,
                -0.03842545300722122,
                -0.9992542862892151,
                0.0037940784823149443
            ],
            "scale" : [
                -105.08743286132812,
                -124.5557632446289,
                -27.82245445251465
            ],
            "translation" : [
                0.04640325531363487,
                -1.545859932899475,
                365.9471740722656
            ]
        },
        {
            "children" : [
                0,
                2,
                4,
                5
            ],
            "name" : "Spider_bottle v73.001",
            "rotation" : [
                -0.7071068286895752,
                0,
                0,
                0.7071067094802856
            ],
            "scale" : [
                0.10000008344650269,
                0.1000000536441803,
                0.1000000536441803
            ],
            "translation" : [
                0,
                0.2700210213661194,
                0
            ]
        },
        {
            "children" : [
                6
            ],
            "name" : "RootNode"
        },
        {
            "children" : [
                7
            ],
            "name" : "b2c215045fe1487da6e544f51c3bda63.fbx",
            "rotation" : [
                0.7071068286895752,
                0,
                0,
                0.7071067094802856
            ]
        },
        {
            "children" : [
                8
            ],
            "name" : "Sketchfab_model",
            "rotation" : [
                -0.7071068286895752,
                0,
                0,
                0.7071067094802856
            ]
        }
    ],
    "materials" : [
        {
            "doubleSided" : true,
            "name" : "brass_pure.001",
            "normalTexture" : {
                "index" : 0
            },
            "pbrMetallicRoughness" : {
                "baseColorTexture" : {
                    "index" : 1
                },
                "metallicRoughnessTexture" : {
                    "index" : 2
                }
            }
        },
        {
            "alphaMode" : "BLEND",
            "doubleSided" : true,
            "name" : "glass",
            "pbrMetallicRoughness" : {
                "baseColorFactor" : [
                    0.800000011920929,
                    0.800000011920929,
                    0.800000011920929,
                    0.27531784772872925
                ],
                "roughnessFactor" : 0
            }
        },
        {
            "alphaMode" : "BLEND",
            "doubleSided" : true,
            "name" : "Material.001",
            "pbrMetallicRoughness" : {
                "baseColorFactor" : [
                    0.740955650806427,
                    0.25700485706329346,
                    0.006882720626890659,
                    0.7799721956253052
                ],
                "metallicFactor" : 0,
                "roughnessFactor" : 0.2509971559047699
            }
        },
        {
            "doubleSided" : true,
            "name" : "Cork_natural",
            "pbrMetallicRoughness" : {
                "baseColorTexture" : {
                    "index" : 3
                },
                "metallicFactor" : 0,
                "roughnessFactor" : 0.8211145401000977
            }
        },
        {
            "alphaMode" : "BLEND",
            "name" : "spider2",
            "pbrMetallicRoughness" : {
                "baseColorTexture" : {
                    "index" : 4
                },
                "metallicFactor" : 0
            }
        },
        {
            "doubleSided" : true,
            "name" : "brass_pure.002",
            "normalTexture" : {
                "index" : 5
            },
            "pbrMetallicRoughness" : {
                "baseColorTexture" : {
                    "index" : 6
                },
                "metallicFactor" : 0.786052405834198,
                "metallicRoughnessTexture" : {
                    "index" : 7
                }
            }
        }
    ],
    "meshes" : [
        {
            "name" : "Spider_bottle v73cap_brass pure.001_0",
            "primitives" : [
                {
                    "attributes" : {
                        "POSITION" : 0,
                        "NORMAL" : 1,
                        "TEXCOORD_0" : 2,
                        "TEXCOORD_1" : 3,
                        "TEXCOORD_2" : 4,
                        "TEXCOORD_3" : 5
                    },
                    "indices" : 6,
                    "material" : 0
                },
                {
                    "attributes" : {
                        "POSITION" : 7,
                        "NORMAL" : 8,
                        "TEXCOORD_0" : 9,
                        "TEXCOORD_1" : 10,
                        "TEXCOORD_2" : 11,
                        "TEXCOORD_3" : 12
                    },
                    "indices" : 13,
                    "material" : 1
                },
                {
                    "attributes" : {
                        "POSITION" : 14,
                        "NORMAL" : 15,
                        "TEXCOORD_0" : 16,
                        "TEXCOORD_1" : 17,
                        "TEXCOORD_2" : 18,
                        "TEXCOORD_3" : 19
                    },
                    "indices" : 20,
                    "material" : 2
                },
                {
                    "attributes" : {
                        "POSITION" : 21,
                        "NORMAL" : 22,
                        "TEXCOORD_0" : 23,
                        "TEXCOORD_1" : 24,
                        "TEXCOORD_2" : 25,
                        "TEXCOORD_3" : 26
                    },
                    "indices" : 27,
                    "material" : 3
                },
                {
                    "attributes" : {
                        "POSITION" : 28,
                        "NORMAL" : 29,
                        "TEXCOORD_0" : 30,
                        "TEXCOORD_1" : 31,
                        "TEXCOORD_2" : 32,
                        "TEXCOORD_3" : 33
                    },
                    "indices" : 34,
                    "material" : 4
                },
                {
                    "attributes" : {
                        "POSITION" : 35,
                        "NORMAL" : 36,
                        "TEXCOORD_0" : 37,
                        "TEXCOORD_1" : 38,
                        "TEXCOORD_2" : 39,
                        "TEXCOORD_3" : 40
                    },
                    "indices" : 41,
                    "material" : 5
                }
            ]
        }
    ],
    "textures" : [
        {
            "sampler" : 0,
            "source" : 0
        },
        {
            "sampler" : 0,
            "source" : 1
        },
        {
            "sampler" : 0,
            "source" : 2
        },
        {
            "sampler" : 0,
            "source" : 3
        },
        {
            "sampler" : 1,
            "source" : 4
        },
        {
            "sampler" : 0,
            "source" : 0
        },
        {
            "sampler" : 0,
            "source" : 1
        },
        {
            "sampler" : 0,
            "source" : 5
        }
    ],
    "images" : [
        {
            "mimeType" : "image/png",
            "name" : "brass_pure_001_normal",
            "uri" : "brass_pure_001_normal.png"
        },
        {
            "mimeType" : "image/jpeg",
            "name" : "brass_pure_001_baseColor",
            "uri" : "brass_pure_001_baseColor.jpg"
        },
        {
            "mimeType" : "image/png",
            "name" : "brass_pure_001_metallicRoughness",
            "uri" : "brass_pure_001_metallicRoughness.png"
        },
        {
            "mimeType" : "image/png",
            "name" : "Cork_natural_baseColor",
            "uri" : "Cork_natural_baseColor.png"
        },
        {
            "mimeType" : "image/png",
            "name" : "spider2_baseColor",
            "uri" : "spider2_baseColor.png"
        },
        {
            "mimeType" : "image/png",
            "name" : "brass_pure_002_metallicRoughness",
            "uri" : "brass_pure_002_metallicRoughness.png"
        }
    ],
    "accessors" : [
        {
            "bufferView" : 0,
            "componentType" : 5126,
            "count" : 464,
            "max" : [
                22.834009170532227,
                22.92055892944336,
                401.3012390136719
            ],
            "min" : [
                -22.649213790893555,
                -22.738162994384766,
                386.4362487792969
            ],
            "type" : "VEC3"
        },
        {
            "bufferView" : 1,
            "componentType" : 5126,
            "count" : 464,
            "type" : "VEC3"
        },
        {
            "bufferView" : 2,
            "componentType" : 5126,
            "count" : 464,
            "type" : "VEC2"
        },
        {
            "bufferView" : 3,
            "componentType" : 5126,
            "count" : 464,
            "type" : "VEC2"
        },
        {
            "bufferView" : 4,
            "componentType" : 5126,
            "count" : 464,
            "type" : "VEC2"
        },
        {
            "bufferView" : 5,
            "componentType" : 5126,
            "count" : 464,
            "type" : "VEC2"
        },
        {
            "bufferView" : 6,
            "componentType" : 5123,
            "count" : 1134,
            "type" : "SCALAR"
        },
        {
            "bufferView" : 7,
            "componentType" : 5126,
            "count" : 1811,
            "max" : [
                48.128719329833984,
                46.715450286865234,
                386.1059875488281
            ],
            "min" : [
                -48.59055709838867,
                -46.77771759033203,
                0.17864131927490234
            ],
            "type" : "VEC3"
        },
        {
            "bufferView" : 8,
            "componentType" : 5126,
            "count" : 1811,
            "type" : "VEC3"
        },
        {
            "bufferView" : 9,
            "componentType" : 5126,
            "count" : 1811,
            "type" : "VEC2"
        },
        {
            "bufferView" : 10,
            "componentType" : 5126,
            "count" : 1811,
            "type" : "VEC2"
        },
        {
            "bufferView" : 11,
            "componentType" : 5126,
            "count" : 1811,
            "type" : "VEC2"
        },
        {
            "bufferView" : 12,
            "componentType" : 5126,
            "count" : 1811,
            "type" : "VEC2"
        },
        {
            "bufferView" : 13,
            "componentType" : 5123,
            "count" : 4908,
            "type" : "SCALAR"
        },
        {
            "bufferView" : 14,
            "componentType" : 5126,
            "count" : 565,
            "max" : [
                43.566429138183594,
                41.58121871948242,
                353.01580810546875
            ],
            "min" : [
                -44.08671569824219,
                -42.06778335571289,
                6.340950012207031
            ],
            "type" : "VEC3"
        },
        {
            "bufferView" : 15,
            "componentType" : 5126,
            "count" : 565,
            "type" : "VEC3"
        },
        {
            "bufferView" : 16,
            "componentType" : 5126,
            "count" : 565,
            "type" : "VEC2"
        },
        {
            "bufferView" : 17,
            "componentType" : 5126,
            "count" : 565,
            "type" : "VEC2"
        },
        {
            "bufferView" : 18,
            "componentType" : 5126,
            "count" : 565,
            "type" : "VEC2"
        },
        {
            "bufferView" : 19,
            "componentType" : 5126,
            "count" : 565,
            "type" : "VEC2"
        },
        {
            "bufferView" : 20,
            "componentType" : 5123,
            "count" : 1053,
            "type" : "SCALAR"
        },
        {
            "bufferView" : 21,
            "componentType" : 5126,
            "count" : 207,
            "max" : [
                13.397529602050781,
                13.32339859008789,
                387.0110168457031
            ],
            "min" : [
                -13.444896697998047,
                -13.503090858459473,
                366.2095031738281
            ],
            "type" : "VEC3"
        },
        {
            "bufferView" : 22,
            "componentType" : 5126,
            "count" : 207,
            "type" : "VEC3"
        },
        {
            "bufferView" : 23,
            "componentType" : 5126,
            "count" : 207,
            "type" : "VEC2"
        },
        {
            "bufferView" : 24,
            "componentType" : 5126,
            "count" : 207,
            "type" : "VEC2"
        },
        {
            "bufferView" : 25,
            "componentType" : 5126,
            "count" : 207,
            "type" : "VEC2"
        },
        {
            "bufferView" : 26,
            "componentType" : 5126,
            "count" : 207,
            "type" : "VEC2"
        },
        {
            "bufferView" : 27,
            "componentType" : 5123,
            "count" : 450,
            "type" : "SCALAR"
        },
        {
            "bufferView" : 28,
            "componentType" : 5126,
            "count" : 124,
            "max" : [
                14.278266906738281,
                -26.875713348388672,
                209.2823028564453
            ],
            "min" : [
                -14.617461204528809,
                -37.717044830322266,
                143.2484130859375
            ],
            "type" : "VEC3"
        },
        {
            "bufferView" : 29,
            "componentType" : 5126,
            "count" : 124,
            "type" : "VEC3"
        },
        {
            "bufferView" : 30,
            "componentType" : 5126,
            "count" : 124,
            "type" : "VEC2"
        },
        {
            "bufferView" : 31,
            "componentType" : 5126,
            "count" : 124,
            "type" : "VEC2"
        },
        {
            "bufferView" : 32,
            "componentType" : 5126,
            "count" : 124,
            "type" : "VEC2"
        },
        {
            "bufferView" : 33,
            "componentType" : 5126,
            "count" : 124,
            "type" : "VEC2"
        },
        {
            "bufferView" : 34,
            "componentType" : 5123,
            "count" : 297,
            "type" : "SCALAR"
        },
        {
            "bufferView" : 35,
            "componentType" : 5126,
            "count" : 3032,
            "max" : [
                30.939132690429688,
                25.90652847290039,
                376.1098937988281
            ],
            "min" : [
                -31.01468849182129,
                -37.788780212402344,
                127.17021179199219
            ],
            "type" : "VEC3"
        },
        {
            "bufferView" : 36,
            "componentType" : 5126,
            "count" : 3032,
            "type" : "VEC3"
        },
        {
            "bufferView" : 37,
            "componentType" : 5126,
            "count" : 3032,
            "type" : "VEC2"
        },
        {
            "bufferView" : 38,
            "componentType" : 5126,
            "count" : 3032,
            "type" : "VEC2"
        },
        {
            "bufferView" : 39,
            "componentType" : 5126,
            "count" : 3032,
            "type" : "VEC2"
        },
        {
            "bufferView" : 40,
            "componentType" : 5126,
            "count" : 3032,
            "type" : "VEC2"
        },
        {
            "bufferView" : 41,
            "componentType" : 5123,
            "count" : 5709,
            "type" : "SCALAR"
        }
    ],
    "bufferViews" : [
        {
            "buffer" : 0,
            "byteLength" : 5568,
            "byteOffset" : 0,
            "target" : 34962
        },
        {
            "buffer" : 0,
            "byteLength" : 5568,
            "byteOffset" : 5568,
            "target" : 34962
        },
        {
            "buffer" : 0,
            "byteLength" : 3712,
            "byteOffset" : 11136,
            "target" : 34962
        },
        {
            "buffer" : 0,
            "byteLength" : 3712,
            "byteOffset" : 14848,
            "target" : 34962
        },
        {
            "buffer" : 0,
            "byteLength" : 3712,
            "byteOffset" : 18560,
            "target" : 34962
        },
        {
            "buffer" : 0,
            "byteLength" : 3712,
            "byteOffset" : 22272,
            "target" : 34962
        },
        {
            "buffer" : 0,
            "byteLength" : 2268,
            "byteOffset" : 25984,
            "target" : 34963
        },
        {
            "buffer" : 0,
            "byteLength" : 21732,
            "byteOffset" : 28252,
            "target" : 34962
        },
        {
            "buffer" : 0,
            "byteLength" : 21732,
            "byteOffset" : 49984,
            "target" : 34962
        },
        {
            "buffer" : 0,
            "byteLength" : 14488,
            "byteOffset" : 71716,
            "target" : 34962
        },
        {
            "buffer" : 0,
            "byteLength" : 14488,
            "byteOffset" : 86204,
            "target" : 34962
        },
        {
            "buffer" : 0,
            "byteLength" : 14488,
            "byteOffset" : 100692,
            "target" : 34962
        },
        {
            "buffer" : 0,
            "byteLength" : 14488,
            "byteOffset" : 115180,
            "target" : 34962
        },
        {
            "buffer" : 0,
            "byteLength" : 9816,
            "byteOffset" : 129668,
            "target" : 34963
        },
        {
            "buffer" : 0,
            "byteLength" : 6780,
            "byteOffset" : 139484,
            "target" : 34962
        },
        {
            "buffer" : 0,
            "byteLength" : 6780,
            "byteOffset" : 146264,
            "target" : 34962
        },
        {
            "buffer" : 0,
            "byteLength" : 4520,
            "byteOffset" : 153044,
            "target" : 34962
        },
        {
            "buffer" : 0,
            "byteLength" : 4520,
            "byteOffset" : 157564,
            "target" : 34962
        },
        {
            "buffer" : 0,
            "byteLength" : 4520,
            "byteOffset" : 162084,
            "target" : 34962
        },
        {
            "buffer" : 0,
            "byteLength" : 4520,
            "byteOffset" : 166604,
            "target" : 34962
        },
        {
            "buffer" : 0,
            "byteLength" : 2106,
            "byteOffset" : 171124,
            "target" : 34963
        },
        {
            "buffer" : 0,
            "byteLength" : 2484,
            "byteOffset" : 173232,
            "target" : 34962
        },
        {
            "buffer" : 0,
            "byteLength" : 2484,
            "byteOffset" : 175716,
            "target" : 34962
        },
        {
            "buffer" : 0,
            "byteLength" : 1656,
            "byteOffset" : 178200,
            "target" : 34962
        },
        {
            "buffer" : 0,
            "byteLength" : 1656,
            "byteOffset" : 179856,
            "target" : 34962
        },
        {
            "buffer" : 0,
            "byteLength" : 1656,
            "byteOffset" : 181512,
            "target" : 34962
        },
        {
            "buffer" : 0,
            "byteLength" : 1656,
            "byteOffset" : 183168,
            "target" : 34962
        },
        {
            "buffer" : 0,
            "byteLength" : 900,
            "byteOffset" : 184824,
            "target" : 34963
        },
        {
            "buffer" : 0,
            "byteLength" : 1488,
            "byteOffset" : 185724,
            "target" : 34962
        },
        {
            "buffer" : 0,
            "byteLength" : 1488,
            "byteOffset" : 187212,
            "target" : 34962
        },
        {
            "buffer" : 0,
            "byteLength" : 992,
            "byteOffset" : 188700,
            "target" : 34962
        },
        {
            "buffer" : 0,
            "byteLength" : 992,
            "byteOffset" : 189692,
            "target" : 34962
        },
        {
            "buffer" : 0,
            "byteLength" : 992,
            "byteOffset" : 190684,
            "target" : 34962
        },
        {
            "buffer" : 0,
            "byteLength" : 992,
            "byteOffset" : 191676,
            "target" : 34962
        },
        {
            "buffer" : 0,
            "byteLength" : 594,
            "byteOffset" : 192668,
            "target" : 34963
        },
        {
            "buffer" : 0,
            "byteLength" : 36384,
            "byteOffset" : 193264,
            "target" : 34962
        },
        {
            "buffer" : 0,
            "byteLength" : 36384,
            "byteOffset" : 229648,
            "target" : 34962
        },
        {
            "buffer" : 0,
            "byteLength" : 24256,
            "byteOffset" : 266032,
            "target" : 34962
        },
        {
            "buffer" : 0,
            "byteLength" : 24256,
            "byteOffset" : 290288,
            "target" : 34962
        },
        {
            "buffer" : 0,
            "byteLength" : 24256,
            "byteOffset" : 314544,
            "target" : 34962
        },
        {
            "buffer" : 0,
            "byteLength" : 24256,
            "byteOffset" : 338800,
            "target" : 34962
        },
        {
            "buffer" : 0,
            "byteLength" : 11418,
            "byteOffset" : 363056,
            "target" : 34963
        }
    ],
    "samplers" : [
        {
            "magFilter" : 9729,
            "minFilter" : 9987
        },
        {
            "magFilter" : 9729,
            "minFilter" : 9987,
            "wrapS" : 33071,
            "wrapT" : 33071
        }
    ],
    "buffers" : [
        {
            "byteLength" : 374476,
            "uri" : "tequilatall_edited.bin"
        }
    ]
}
