{
  "asset": {
    "extras": {
      "author": "DNC44 (https://sketchfab.com/DNC44)",
      "license": "CC-BY-4.0 (http://creativecommons.org/licenses/by/4.0/)",
      "source": "https://sketchfab.com/3d-models/canoe-1d0342b454884db4bb88c939a69f6362",
      "title": "Canoe"
    },
    "generator": "Sketchfab-12.66.0",
    "version": "2.0"
  },
  "buffers": [
    {
      "uri": "data:application/octet-stream;base64,",
      "byteLength": 221136
    }
  ],
  "bufferViews": [
    {
      "buffer": 0,
      "byteOffset": 0,
      "byteLength": 110544,
      "byteStride": 24,
      "target": 34962
    },
    {
      "buffer": 0,
      "byteOffset": 110544,
      "byteLength": 110592,
      "target": 34963
    }
  ],
  "accessors": [
    {
      "bufferView": 0,
      "byteOffset": 0,
      "componentType": 5126,
      "normalized": false,
      "count": 4606,
      "min": [
        -0.999875009059906,
        -0.9998946785926819,
        -1
      ],
      "max": [
        0.999875009059906,
        0.9998946785926819,
        1
      ],
      "type": "VEC3"
    },
    {
      "bufferView": 0,
      "byteOffset": 12,
      "componentType": 5126,
      "normalized": false,
      "count": 4606,
      "min": [
        -0.9752200245857239,
        -5.312759876251221,
        -1.1193499565124512
      ],
      "max": [
        0.9752200245857239,
        5.312759876251221,
        1.321429967880249
      ],
      "type": "VEC3"
    },
    {
      "bufferView": 1,
      "byteOffset": 0,
      "componentType": 5125,
      "normalized": false,
      "count": 27648,
      "min": [
        0
      ],
      "max": [
        4605
      ],
      "type": "SCALAR"
    }
  ],
  "scene": 0,
  "scenes": [
    {
      "nodes": [
        5
      ],
      "name": "Sketchfab_Scene"
    }
  ],
  "nodes": [
    {
      "name": "Lamp"
    },
    {
      "name": "Lamp",
      "children": [
        0
      ],
      "matrix": [
        -0.29086142778396606,
        0.9551697373390198,
        -0.05519109591841698,
        0,
        -0.7711003422737122,
        -0.1998799443244934,
        0.6045199036598206,
        0,
        0.5663889050483704,
        0.2183898538351059,
        0.7946708798408508,
        0,
        4.076250076293945,
        1.0054500102996826,
        5.903860092163086,
        1
      ]
    },
    {
      "name": "Cube_0",
      "mesh": 0
    },
    {
      "name": "Cube",
      "children": [
        2
      ],
      "matrix": [
        1,
        0,
        0,
        0,
        0,
        1,
        0,
        0,
        0,
        0,
        0.6456300020217896,
        0,
        0,
        0,
        0,
        1
      ]
    },
    {
      "name": "Root",
      "children": [
        1,
        3
      ]
    },
    {
      "name": "Sketchfab_model",
      "children": [
        4
      ],
      "matrix": [
        1,
        0,
        0,
        0,
        0,
        3.422854177870249e-8,
        -0.9999999403953552,
        0,
        0,
        0.9999999403953552,
        3.422854177870249e-8,
        0,
        0,
        0,
        0,
        1
      ]
    }
  ],
  "meshes": [
    {
      "primitives": [
        {
          "material": 0,
          "mode": 4,
          "attributes": {
            "NORMAL": 0,
            "POSITION": 1
          },
          "indices": 2
        }
      ]
    }
  ],
  "materials": [
    {
      "pbrMetallicRoughness": {
        "baseColorFactor": [
          0.2549019607843137,
          0.1411764705882353,
          0.01568627450980392,
          1
        ],
        "metallicFactor": 0,
        "roughnessFactor": 0.6
      },
      "emissiveFactor": [
        0,
        0,
        0
      ],
      "alphaMode": "OPAQUE",
      "doubleSided": true
    }
  ]
}