{
    "asset" : {
        "generator" : "Khronos glTF Blender I/O v3.4.50",
        "version" : "2.0"
    },
    "scene" : 0,
    "scenes" : [
        {
            "name" : "Scene",
            "nodes" : [
                0,
                4,
                5
            ]
        }
    ],
    "nodes" : [
        {
            "name" : "subject",
            "scale" : [
                2.402318239212036,
                4.851933479309082,
                2.349241018295288
            ],
            "translation" : [
                -0.042853593826293945,
                -4.903627395629883,
                -2.1430389881134033
            ]
        },
        {
            "name" : "Area.032_empty",
            "rotation" : [
                -0.4999997615814209,
                -0.5000001788139343,
                -0.5000002384185791,
                0.49999988079071045
            ],
            "scale" : [
                0.2061033993959427,
                0.2061033993959427,
                0.2061033993959427
            ],
            "translation" : [
                12.927061080932617,
                -0.270560622215271,
                -1.3690112829208374
            ]
        },
        {
            "name" : "Area.033_empty",
            "rotation" : [
                -0.5000001192092896,
                0.5,
                0.4999997615814209,
                0.5000001192092896
            ],
            "scale" : [
                0.2061033993959427,
                0.2061033993959427,
                0.2061033993959427
            ],
            "translation" : [
                -8.95671272277832,
                -0.27055680751800537,
                4.406494140625
            ]
        },
        {
            "name" : "Area.034_empty",
            "rotation" : [
                0,
                0.7071066498756409,
                0.70710688829422,
                2.3646992985959514e-07
            ],
            "scale" : [
                0.2061033993959427,
                0.2061033993959427,
                0.2061033993959427
            ],
            "translation" : [
                -0.1798252910375595,
                -0.27055680751800537,
                14.901457786560059
            ]
        },
        {
            "children" : [
                1,
                2,
                3
            ],
            "name" : "Empty.016",
            "scale" : [
                4.851933479309082,
                4.851933479309082,
                4.851933479309082
            ],
            "translation" : [
                -0.042853593826293945,
                -4.903627395629883,
                -2.1430389881134033
            ]
        },
        {
            "mesh" : 0,
            "name" : "Ribcage",
            "translation" : [
                0,
                0.7175951600074768,
                0.7175960540771484
            ]
        }
    ],
    "materials" : [
        {
            "doubleSided" : true,
            "name" : "Ribcage",
            "pbrMetallicRoughness" : {}
        }
    ],
    "meshes" : [
        {
            "name" : "Ribcage",
            "primitives" : [
                {
                    "attributes" : {
                        "POSITION" : 0,
                        "TEXCOORD_0" : 1,
                        "NORMAL" : 2
                    },
                    "indices" : 3,
                    "material" : 0
                }
            ]
        }
    ],
    "accessors" : [
        {
            "bufferView" : 0,
            "componentType" : 5126,
            "count" : 38682,
            "max" : [
                2.500594139099121,
                6.018316745758057,
                -0.220255047082901
            ],
            "min" : [
                -2.5519936084747314,
                -2.171459674835205,
                -10.015978813171387
            ],
            "type" : "VEC3"
        },
        {
            "bufferView" : 1,
            "componentType" : 5126,
            "count" : 38682,
            "type" : "VEC2"
        },
        {
            "bufferView" : 2,
            "componentType" : 5126,
            "count" : 38682,
            "type" : "VEC3"
        },
        {
            "bufferView" : 3,
            "componentType" : 5123,
            "count" : 209148,
            "type" : "SCALAR"
        }
    ],
    "bufferViews" : [
        {
            "buffer" : 0,
            "byteLength" : 464184,
            "byteOffset" : 0,
            "target" : 34962
        },
        {
            "buffer" : 0,
            "byteLength" : 309456,
            "byteOffset" : 464184,
            "target" : 34962
        },
        {
            "buffer" : 0,
            "byteLength" : 464184,
            "byteOffset" : 773640,
            "target" : 34962
        },
        {
            "buffer" : 0,
            "byteLength" : 418296,
            "byteOffset" : 1237824,
            "target" : 34963
        }
    ],
    "buffers" : [
        {
            "byteLength" : 1656120,
            "uri" : "data:application/octet-stream;base64,"
        }
    ]
}
