{
    "asset" : {
        "generator" : "Khronos glTF Blender I/O v3.3.27",
        "version" : "2.0"
    },
    "extensionsUsed" : [
        "KHR_materials_unlit"
    ],
    "scene" : 0,
    "scenes" : [
        {
            "name" : "Scene",
            "nodes" : [
                0
            ]
        }
    ],
    "nodes" : [
        {
            "mesh" : 0,
            "name" : "Object_7"
        }
    ],
    "materials" : [
        {
            "doubleSided" : true,
            "extensions" : {
                "KHR_materials_unlit" : {}
            },
            "name" : "Material_2.001",
            "pbrMetallicRoughness" : {
                "baseColorTexture" : {
                    "index" : 0,
                    "texCoord" : 0
                },
                "metallicFactor" : 0,
                "roughnessFactor" : 0.9
            }
        },
        {
            "doubleSided" : true,
            "extensions" : {
                "KHR_materials_unlit" : {}
            },
            "name" : "Material_0.001",
            "pbrMetallicRoughness" : {
                "baseColorTexture" : {
                    "index" : 1,
                    "texCoord" : 0
                },
                "metallicFactor" : 0,
                "roughnessFactor" : 0.9
            }
        },
        {
            "doubleSided" : true,
            "extensions" : {
                "KHR_materials_unlit" : {}
            },
            "name" : "Material_1.001",
            "pbrMetallicRoughness" : {
                "baseColorTexture" : {
                    "index" : 2,
                    "texCoord" : 0
                },
                "metallicFactor" : 0,
                "roughnessFactor" : 0.9
            }
        }
    ],
    "meshes" : [
        {
            "name" : "Object_4.001",
            "primitives" : [
                {
                    "attributes" : {
                        "POSITION" : 0,
                        "NORMAL" : 1,
                        "TEXCOORD_0" : 2
                    },
                    "indices" : 3,
                    "material" : 0
                },
                {
                    "attributes" : {
                        "POSITION" : 4,
                        "NORMAL" : 5,
                        "TEXCOORD_0" : 6
                    },
                    "indices" : 7,
                    "material" : 1
                },
                {
                    "attributes" : {
                        "POSITION" : 8,
                        "NORMAL" : 9,
                        "TEXCOORD_0" : 10
                    },
                    "indices" : 11,
                    "material" : 2
                }
            ]
        }
    ],
    "textures" : [
        {
            "sampler" : 0,
            "source" : 0
        },
        {
            "sampler" : 0,
            "source" : 1
        },
        {
            "sampler" : 0,
            "source" : 2
        }
    ],
    "images" : [
        {
            "mimeType" : "image/jpeg",
            "name" : "Material_2_baseColor",
            "uri" : "Material_2_baseColor.jpg"
        },
        {
            "mimeType" : "image/jpeg",
            "name" : "Material_0_baseColor",
            "uri" : "Material_0_baseColor.jpg"
        },
        {
            "mimeType" : "image/jpeg",
            "name" : "Material_1_baseColor",
            "uri" : "Material_1_baseColor.jpg"
        }
    ],
    "accessors" : [
        {
            "bufferView" : 0,
            "componentType" : 5126,
            "count" : 4030,
            "max" : [
                -2.780043601989746,
                6.772296905517578,
                7.578042030334473
            ],
            "min" : [
                -7.371493816375732,
                -5.084141254425049,
                2.4469375610351562
            ],
            "type" : "VEC3"
        },
        {
            "bufferView" : 1,
            "componentType" : 5126,
            "count" : 4030,
            "type" : "VEC3"
        },
        {
            "bufferView" : 2,
            "componentType" : 5126,
            "count" : 4030,
            "type" : "VEC2"
        },
        {
            "bufferView" : 3,
            "componentType" : 5123,
            "count" : 12846,
            "type" : "SCALAR"
        },
        {
            "bufferView" : 4,
            "componentType" : 5126,
            "count" : 3143,
            "max" : [
                -2.5836141109466553,
                6.440135955810547,
                7.457769870758057
            ],
            "min" : [
                -7.385237693786621,
                -5.0840277671813965,
                2.5720505714416504
            ],
            "type" : "VEC3"
        },
        {
            "bufferView" : 5,
            "componentType" : 5126,
            "count" : 3143,
            "type" : "VEC3"
        },
        {
            "bufferView" : 6,
            "componentType" : 5126,
            "count" : 3143,
            "type" : "VEC2"
        },
        {
            "bufferView" : 7,
            "componentType" : 5123,
            "count" : 14496,
            "type" : "SCALAR"
        },
        {
            "bufferView" : 8,
            "componentType" : 5126,
            "count" : 7668,
            "max" : [
                -2.5836141109466553,
                7.039582252502441,
                7.578042030334473
            ],
            "min" : [
                -7.385237693786621,
                -5.0840277671813965,
                2.360452890396118
            ],
            "type" : "VEC3"
        },
        {
            "bufferView" : 9,
            "componentType" : 5126,
            "count" : 7668,
            "type" : "VEC3"
        },
        {
            "bufferView" : 10,
            "componentType" : 5126,
            "count" : 7668,
            "type" : "VEC2"
        },
        {
            "bufferView" : 11,
            "componentType" : 5123,
            "count" : 34146,
            "type" : "SCALAR"
        }
    ],
    "bufferViews" : [
        {
            "buffer" : 0,
            "byteLength" : 48360,
            "byteOffset" : 0,
            "target" : 34962
        },
        {
            "buffer" : 0,
            "byteLength" : 48360,
            "byteOffset" : 48360,
            "target" : 34962
        },
        {
            "buffer" : 0,
            "byteLength" : 32240,
            "byteOffset" : 96720,
            "target" : 34962
        },
        {
            "buffer" : 0,
            "byteLength" : 25692,
            "byteOffset" : 128960,
            "target" : 34963
        },
        {
            "buffer" : 0,
            "byteLength" : 37716,
            "byteOffset" : 154652,
            "target" : 34962
        },
        {
            "buffer" : 0,
            "byteLength" : 37716,
            "byteOffset" : 192368,
            "target" : 34962
        },
        {
            "buffer" : 0,
            "byteLength" : 25144,
            "byteOffset" : 230084,
            "target" : 34962
        },
        {
            "buffer" : 0,
            "byteLength" : 28992,
            "byteOffset" : 255228,
            "target" : 34963
        },
        {
            "buffer" : 0,
            "byteLength" : 92016,
            "byteOffset" : 284220,
            "target" : 34962
        },
        {
            "buffer" : 0,
            "byteLength" : 92016,
            "byteOffset" : 376236,
            "target" : 34962
        },
        {
            "buffer" : 0,
            "byteLength" : 61344,
            "byteOffset" : 468252,
            "target" : 34962
        },
        {
            "buffer" : 0,
            "byteLength" : 68292,
            "byteOffset" : 529596,
            "target" : 34963
        }
    ],
    "samplers" : [
        {
            "magFilter" : 9729,
            "minFilter" : 9987
        }
    ],
    "buffers" : [
        {
            "byteLength" : 597888,
            "uri" : "dome2_windows.bin"
        }
    ]
}
