{
    "asset" : {
        "generator" : "Khronos glTF Blender I/O v3.3.27",
        "version" : "2.0"
    },
    "extensionsUsed" : [
        "KHR_materials_unlit"
    ],
    "scene" : 0,
    "scenes" : [
        {
            "name" : "Scene",
            "nodes" : [
                0
            ]
        }
    ],
    "nodes" : [
        {
            "mesh" : 0,
            "name" : "Object_7"
        }
    ],
    "materials" : [
        {
            "doubleSided" : true,
            "extensions" : {
                "KHR_materials_unlit" : {}
            },
            "name" : "Material_2.002",
            "pbrMetallicRoughness" : {
                "baseColorTexture" : {
                    "index" : 0,
                    "texCoord" : 0
                },
                "metallicFactor" : 0,
                "roughnessFactor" : 0.9
            }
        },
        {
            "doubleSided" : true,
            "extensions" : {
                "KHR_materials_unlit" : {}
            },
            "name" : "Material_1.002",
            "pbrMetallicRoughness" : {
                "baseColorTexture" : {
                    "index" : 1,
                    "texCoord" : 0
                },
                "metallicFactor" : 0,
                "roughnessFactor" : 0.9
            }
        }
    ],
    "meshes" : [
        {
            "name" : "Object_4.002",
            "primitives" : [
                {
                    "attributes" : {
                        "POSITION" : 0,
                        "NORMAL" : 1,
                        "TEXCOORD_0" : 2
                    },
                    "indices" : 3,
                    "material" : 0
                },
                {
                    "attributes" : {
                        "POSITION" : 4,
                        "NORMAL" : 5,
                        "TEXCOORD_0" : 6
                    },
                    "indices" : 7,
                    "material" : 1
                }
            ]
        }
    ],
    "textures" : [
        {
            "sampler" : 0,
            "source" : 0
        },
        {
            "sampler" : 0,
            "source" : 1
        }
    ],
    "images" : [
        {
            "mimeType" : "image/jpeg",
            "name" : "Material_2_baseColor",
            "uri" : "Material_2_baseColor.jpg"
        },
        {
            "mimeType" : "image/jpeg",
            "name" : "Material_1_baseColor",
            "uri" : "Material_1_baseColor.jpg"
        }
    ],
    "accessors" : [
        {
            "bufferView" : 0,
            "componentType" : 5126,
            "count" : 6177,
            "max" : [
                -5.266765117645264,
                -5.083840847015381,
                7.458337783813477
            ],
            "min" : [
                -7.966156005859375,
                -11.398777961730957,
                -0.24907614290714264
            ],
            "type" : "VEC3"
        },
        {
            "bufferView" : 1,
            "componentType" : 5126,
            "count" : 6177,
            "type" : "VEC3"
        },
        {
            "bufferView" : 2,
            "componentType" : 5126,
            "count" : 6177,
            "type" : "VEC2"
        },
        {
            "bufferView" : 3,
            "componentType" : 5123,
            "count" : 21663,
            "type" : "SCALAR"
        },
        {
            "bufferView" : 4,
            "componentType" : 5126,
            "count" : 1126,
            "max" : [
                -5.2686920166015625,
                -5.083840847015381,
                7.550304412841797
            ],
            "min" : [
                -7.837871551513672,
                -11.404105186462402,
                -0.25066888332366943
            ],
            "type" : "VEC3"
        },
        {
            "bufferView" : 5,
            "componentType" : 5126,
            "count" : 1126,
            "type" : "VEC3"
        },
        {
            "bufferView" : 6,
            "componentType" : 5126,
            "count" : 1126,
            "type" : "VEC2"
        },
        {
            "bufferView" : 7,
            "componentType" : 5123,
            "count" : 3405,
            "type" : "SCALAR"
        }
    ],
    "bufferViews" : [
        {
            "buffer" : 0,
            "byteLength" : 74124,
            "byteOffset" : 0,
            "target" : 34962
        },
        {
            "buffer" : 0,
            "byteLength" : 74124,
            "byteOffset" : 74124,
            "target" : 34962
        },
        {
            "buffer" : 0,
            "byteLength" : 49416,
            "byteOffset" : 148248,
            "target" : 34962
        },
        {
            "buffer" : 0,
            "byteLength" : 43326,
            "byteOffset" : 197664,
            "target" : 34963
        },
        {
            "buffer" : 0,
            "byteLength" : 13512,
            "byteOffset" : 240992,
            "target" : 34962
        },
        {
            "buffer" : 0,
            "byteLength" : 13512,
            "byteOffset" : 254504,
            "target" : 34962
        },
        {
            "buffer" : 0,
            "byteLength" : 9008,
            "byteOffset" : 268016,
            "target" : 34962
        },
        {
            "buffer" : 0,
            "byteLength" : 6810,
            "byteOffset" : 277024,
            "target" : 34963
        }
    ],
    "samplers" : [
        {
            "magFilter" : 9729,
            "minFilter" : 9987
        }
    ],
    "buffers" : [
        {
            "byteLength" : 283836,
            "uri" : "dome2_base.bin"
        }
    ]
}
