{
    "asset" : {
        "generator" : "Khronos glTF Blender I/O v3.3.27",
        "version" : "2.0"
    },
    "scene" : 0,
    "scenes" : [
        {
            "name" : "Scene",
            "nodes" : [
                5
            ]
        }
    ],
    "nodes" : [
        {
            "mesh" : 0,
            "name" : "pCylinder1_Bottlecap_0"
        },
        {
            "children" : [
                0
            ],
            "name" : "pCylinder1.001"
        },
        {
            "children" : [
                1
            ],
            "name" : "pCylinder1",
            "scale" : [
                1,
                3.803990364074707,
                1
            ],
            "translation" : [
                0,
                3.7785696983337402,
                0
            ]
        },
        {
            "children" : [
                2
            ],
            "name" : "RootNode"
        },
        {
            "children" : [
                3
            ],
            "name" : "bottlesp.fbx",
            "rotation" : [
                0.7071068286895752,
                0,
                0,
                0.7071067094802856
            ],
            "scale" : [
                0.009999999776482582,
                0.009999999776482582,
                0.009999999776482582
            ]
        },
        {
            "children" : [
                4
            ],
            "name" : "Sketchfab_model",
            "rotation" : [
                -0.7071068286895752,
                0,
                0,
                0.7071067094802856
            ]
        }
    ],
    "materials" : [
        {
            "doubleSided" : true,
            "name" : "Bottlecap",
            "normalTexture" : {
                "index" : 0
            },
            "pbrMetallicRoughness" : {
                "baseColorFactor" : [
                    0.5,
                    0.006500009912997484,
                    0.006500009912997484,
                    1
                ],
                "metallicRoughnessTexture" : {
                    "index" : 1
                }
            }
        },
        {
            "alphaMode" : "BLEND",
            "doubleSided" : true,
            "name" : "Bottleclear",
            "normalTexture" : {
                "index" : 2
            },
            "pbrMetallicRoughness" : {
                "baseColorTexture" : {
                    "index" : 3
                },
                "metallicRoughnessTexture" : {
                    "index" : 4
                }
            }
        }
    ],
    "meshes" : [
        {
            "name" : "pCylinder1_Bottlecap_0",
            "primitives" : [
                {
                    "attributes" : {
                        "POSITION" : 0,
                        "NORMAL" : 1,
                        "TEXCOORD_0" : 2,
                        "TEXCOORD_1" : 3,
                        "TEXCOORD_2" : 4,
                        "TEXCOORD_3" : 5,
                        "TEXCOORD_4" : 6,
                        "TEXCOORD_5" : 7,
                        "TEXCOORD_6" : 8,
                        "TEXCOORD_7" : 9
                    },
                    "indices" : 10,
                    "material" : 0
                },
                {
                    "attributes" : {
                        "POSITION" : 11,
                        "NORMAL" : 12,
                        "TEXCOORD_0" : 13,
                        "TEXCOORD_1" : 14,
                        "TEXCOORD_2" : 15,
                        "TEXCOORD_3" : 16,
                        "TEXCOORD_4" : 17,
                        "TEXCOORD_5" : 18,
                        "TEXCOORD_6" : 19,
                        "TEXCOORD_7" : 20
                    },
                    "indices" : 21,
                    "material" : 1
                }
            ]
        }
    ],
    "textures" : [
        {
            "sampler" : 0,
            "source" : 0
        },
        {
            "sampler" : 0,
            "source" : 1
        },
        {
            "sampler" : 0,
            "source" : 2
        },
        {
            "sampler" : 0,
            "source" : 3
        },
        {
            "sampler" : 0,
            "source" : 4
        }
    ],
    "images" : [
        {
            "mimeType" : "image/png",
            "name" : "Bottlecap_normal",
            "uri" : "Bottlecap_normal.png"
        },
        {
            "mimeType" : "image/png",
            "name" : "Bottlecap_metallicRoughness",
            "uri" : "Bottlecap_metallicRoughness.png"
        },
        {
            "mimeType" : "image/png",
            "name" : "Bottleclear_normal",
            "uri" : "Bottleclear_normal.png"
        },
        {
            "mimeType" : "image/png",
            "name" : "Bottleclear_baseColor",
            "uri" : "Bottleclear_baseColor.png"
        },
        {
            "mimeType" : "image/png",
            "name" : "Bottleclear_metallicRoughness",
            "uri" : "Bottleclear_metallicRoughness.png"
        }
    ],
    "accessors" : [
        {
            "bufferView" : 0,
            "componentType" : 5126,
            "count" : 385,
            "max" : [
                0.35852473974227905,
                0.9780561327934265,
                0.3585246503353119
            ],
            "min" : [
                -0.35852473974227905,
                0.6009847521781921,
                -0.3585248291492462
            ],
            "type" : "VEC3"
        },
        {
            "bufferView" : 1,
            "componentType" : 5126,
            "count" : 385,
            "type" : "VEC3"
        },
        {
            "bufferView" : 2,
            "componentType" : 5126,
            "count" : 385,
            "type" : "VEC2"
        },
        {
            "bufferView" : 3,
            "componentType" : 5126,
            "count" : 385,
            "type" : "VEC2"
        },
        {
            "bufferView" : 4,
            "componentType" : 5126,
            "count" : 385,
            "type" : "VEC2"
        },
        {
            "bufferView" : 5,
            "componentType" : 5126,
            "count" : 385,
            "type" : "VEC2"
        },
        {
            "bufferView" : 6,
            "componentType" : 5126,
            "count" : 385,
            "type" : "VEC2"
        },
        {
            "bufferView" : 7,
            "componentType" : 5126,
            "count" : 385,
            "type" : "VEC2"
        },
        {
            "bufferView" : 8,
            "componentType" : 5126,
            "count" : 385,
            "type" : "VEC2"
        },
        {
            "bufferView" : 9,
            "componentType" : 5126,
            "count" : 385,
            "type" : "VEC2"
        },
        {
            "bufferView" : 10,
            "componentType" : 5123,
            "count" : 1620,
            "type" : "SCALAR"
        },
        {
            "bufferView" : 11,
            "componentType" : 5126,
            "count" : 275,
            "max" : [
                0.9980891346931458,
                0.6009895205497742,
                0.9980762004852295
            ],
            "min" : [
                -0.9984308481216431,
                -0.994731605052948,
                -0.9980765581130981
            ],
            "type" : "VEC3"
        },
        {
            "bufferView" : 12,
            "componentType" : 5126,
            "count" : 275,
            "type" : "VEC3"
        },
        {
            "bufferView" : 13,
            "componentType" : 5126,
            "count" : 275,
            "type" : "VEC2"
        },
        {
            "bufferView" : 14,
            "componentType" : 5126,
            "count" : 275,
            "type" : "VEC2"
        },
        {
            "bufferView" : 15,
            "componentType" : 5126,
            "count" : 275,
            "type" : "VEC2"
        },
        {
            "bufferView" : 16,
            "componentType" : 5126,
            "count" : 275,
            "type" : "VEC2"
        },
        {
            "bufferView" : 17,
            "componentType" : 5126,
            "count" : 275,
            "type" : "VEC2"
        },
        {
            "bufferView" : 18,
            "componentType" : 5126,
            "count" : 275,
            "type" : "VEC2"
        },
        {
            "bufferView" : 19,
            "componentType" : 5126,
            "count" : 275,
            "type" : "VEC2"
        },
        {
            "bufferView" : 20,
            "componentType" : 5126,
            "count" : 275,
            "type" : "VEC2"
        },
        {
            "bufferView" : 21,
            "componentType" : 5123,
            "count" : 1206,
            "type" : "SCALAR"
        }
    ],
    "bufferViews" : [
        {
            "buffer" : 0,
            "byteLength" : 4620,
            "byteOffset" : 0,
            "target" : 34962
        },
        {
            "buffer" : 0,
            "byteLength" : 4620,
            "byteOffset" : 4620,
            "target" : 34962
        },
        {
            "buffer" : 0,
            "byteLength" : 3080,
            "byteOffset" : 9240,
            "target" : 34962
        },
        {
            "buffer" : 0,
            "byteLength" : 3080,
            "byteOffset" : 12320,
            "target" : 34962
        },
        {
            "buffer" : 0,
            "byteLength" : 3080,
            "byteOffset" : 15400,
            "target" : 34962
        },
        {
            "buffer" : 0,
            "byteLength" : 3080,
            "byteOffset" : 18480,
            "target" : 34962
        },
        {
            "buffer" : 0,
            "byteLength" : 3080,
            "byteOffset" : 21560,
            "target" : 34962
        },
        {
            "buffer" : 0,
            "byteLength" : 3080,
            "byteOffset" : 24640,
            "target" : 34962
        },
        {
            "buffer" : 0,
            "byteLength" : 3080,
            "byteOffset" : 27720,
            "target" : 34962
        },
        {
            "buffer" : 0,
            "byteLength" : 3080,
            "byteOffset" : 30800,
            "target" : 34962
        },
        {
            "buffer" : 0,
            "byteLength" : 3240,
            "byteOffset" : 33880,
            "target" : 34963
        },
        {
            "buffer" : 0,
            "byteLength" : 3300,
            "byteOffset" : 37120,
            "target" : 34962
        },
        {
            "buffer" : 0,
            "byteLength" : 3300,
            "byteOffset" : 40420,
            "target" : 34962
        },
        {
            "buffer" : 0,
            "byteLength" : 2200,
            "byteOffset" : 43720,
            "target" : 34962
        },
        {
            "buffer" : 0,
            "byteLength" : 2200,
            "byteOffset" : 45920,
            "target" : 34962
        },
        {
            "buffer" : 0,
            "byteLength" : 2200,
            "byteOffset" : 48120,
            "target" : 34962
        },
        {
            "buffer" : 0,
            "byteLength" : 2200,
            "byteOffset" : 50320,
            "target" : 34962
        },
        {
            "buffer" : 0,
            "byteLength" : 2200,
            "byteOffset" : 52520,
            "target" : 34962
        },
        {
            "buffer" : 0,
            "byteLength" : 2200,
            "byteOffset" : 54720,
            "target" : 34962
        },
        {
            "buffer" : 0,
            "byteLength" : 2200,
            "byteOffset" : 56920,
            "target" : 34962
        },
        {
            "buffer" : 0,
            "byteLength" : 2200,
            "byteOffset" : 59120,
            "target" : 34962
        },
        {
            "buffer" : 0,
            "byteLength" : 2412,
            "byteOffset" : 61320,
            "target" : 34963
        }
    ],
    "samplers" : [
        {
            "magFilter" : 9729,
            "minFilter" : 9987
        }
    ],
    "buffers" : [
        {
            "byteLength" : 63732,
            "uri" : "vodka_edited.bin"
        }
    ]
}
