{
	"asset":{
		"generator":"Khronos glTF Blender I/O v3.5.30",
		"version":"2.0"
	},
	"extensionsUsed":[
		"KHR_materials_specular",
		"KHR_materials_ior"
	],
	"scene":0,
	"scenes":[
		{
			"name":"Scene",
			"nodes":[
				2
			]
		}
	],
	"nodes":[
		{
			"mesh":0,
			"name":"Object_2"
		},
		{
			"children":[
				0
			],
			"name":"TerracottawarriorHorse-draft-exported.obj.cleaner"
		},
		{
			"children":[
				1
			],
			"name":"terracotta horse",
			"rotation":[
				-0.70710688829422,
				0,
				0,
				0.7071066498756409
			]
		}
	],
	"materials":[
		{
			"doubleSided":true,
			"extensions":{
				"KHR_materials_specular":{
					"specularColorFactor":[
						0.237135764977738,
						0.237135764977738,
						0.237135764977738
					]
				},
				"KHR_materials_ior":{
					"ior":1.4500000476837158
				}
			},
			"name":"Material_0",
			"normalTexture":{
				"index":0
			},
			"pbrMetallicRoughness":{
				"baseColorTexture":{
					"index":1
				},
				"metallicFactor":0
			}
		},
		{
			"doubleSided":true,
			"extensions":{
				"KHR_materials_specular":{
					"specularColorFactor":[
						0.237135764977738,
						0.237135764977738,
						0.237135764977738
					]
				},
				"KHR_materials_ior":{
					"ior":1.4500000476837158
				}
			},
			"name":"Material_1",
			"normalTexture":{
				"index":2
			},
			"pbrMetallicRoughness":{
				"baseColorTexture":{
					"index":3
				},
				"metallicFactor":0
			}
		}
	],
	"meshes":[
		{
			"name":"Object_0",
			"primitives":[
				{
					"attributes":{
						"POSITION":0,
						"TEXCOORD_0":1,
						"NORMAL":2
					},
					"indices":3,
					"material":0
				},
				{
					"attributes":{
						"POSITION":4,
						"TEXCOORD_0":5,
						"NORMAL":6
					},
					"indices":7,
					"material":1
				}
			]
		}
	],
	"textures":[
		{
			"sampler":0,
			"source":0
		},
		{
			"sampler":0,
			"source":1
		},
		{
			"sampler":0,
			"source":0
		},
		{
			"sampler":0,
			"source":1
		}
	],
	"images":[
		{
			"mimeType":"image/png",
			"name":"token_Normal_01",
			"uri":"textures/token_Normal_01.png"
		},
		{
			"mimeType":"image/jpeg",
			"name":"Image_1",
			"uri":"textures/Image_1.jpg"
		}
	],
	"accessors":[
		{
			"bufferView":0,
			"componentType":5126,
			"count":112,
			"max":[
				7.155909538269043,
				4.228784084320068,
				33.53061294555664
			],
			"min":[
				-11.201105117797852,
				-3.494028329849243,
				5.511706352233887
			],
			"type":"VEC3"
		},
		{
			"bufferView":1,
			"componentType":5126,
			"count":112,
			"type":"VEC2"
		},
		{
			"bufferView":2,
			"componentType":5126,
			"count":112,
			"type":"VEC3"
		},
		{
			"bufferView":3,
			"componentType":5123,
			"count":441,
			"type":"SCALAR"
		},
		{
			"bufferView":4,
			"componentType":5126,
			"count":5654,
			"max":[
				13.20145320892334,
				6.53123664855957,
				33.490875244140625
			],
			"min":[
				-14.837215423583984,
				-5.159879207611084,
				5.571747303009033
			],
			"type":"VEC3"
		},
		{
			"bufferView":5,
			"componentType":5126,
			"count":5654,
			"type":"VEC2"
		},
		{
			"bufferView":6,
			"componentType":5126,
			"count":5654,
			"type":"VEC3"
		},
		{
			"bufferView":7,
			"componentType":5123,
			"count":28581,
			"type":"SCALAR"
		}
	],
	"bufferViews":[
		{
			"buffer":0,
			"byteLength":1344,
			"byteOffset":0,
			"target":34962
		},
		{
			"buffer":0,
			"byteLength":896,
			"byteOffset":1344,
			"target":34962
		},
		{
			"buffer":0,
			"byteLength":1344,
			"byteOffset":2240,
			"target":34962
		},
		{
			"buffer":0,
			"byteLength":882,
			"byteOffset":3584,
			"target":34963
		},
		{
			"buffer":0,
			"byteLength":67848,
			"byteOffset":4468,
			"target":34962
		},
		{
			"buffer":0,
			"byteLength":45232,
			"byteOffset":72316,
			"target":34962
		},
		{
			"buffer":0,
			"byteLength":67848,
			"byteOffset":117548,
			"target":34962
		},
		{
			"buffer":0,
			"byteLength":57162,
			"byteOffset":185396,
			"target":34963
		}
	],
	"samplers":[
		{
			"magFilter":9729,
			"minFilter":9987
		}
	],
	"buffers":[
		{
			"byteLength":242560,
			"uri":"mdl_namo_krub_horse.bin"
		}
	]
}
