{
	"asset":{
		"generator":"Khronos glTF Blender I/O v3.5.30",
		"version":"2.0"
	},
	"extensionsUsed":[
		"KHR_materials_specular",
		"KHR_materials_ior"
	],
	"scene":0,
	"scenes":[
		{
			"name":"Scene",
			"nodes":[
				2
			]
		}
	],
	"nodes":[
		{
			"mesh":0,
			"name":"Object_2.001"
		},
		{
			"children":[
				0
			],
			"name":"TerracottaWarrior_5-draft-exported.obj.cleaner"
		},
		{
			"children":[
				1
			],
			"name":"Kneeling",
			"rotation":[
				-0.70710688829422,
				0,
				0,
				0.7071066498756409
			]
		}
	],
	"materials":[
		{
			"doubleSided":true,
			"extensions":{
				"KHR_materials_specular":{
					"specularColorFactor":[
						0.237135764977738,
						0.237135764977738,
						0.237135764977738
					]
				},
				"KHR_materials_ior":{
					"ior":1.4500000476837158
				}
			},
			"name":"Material_0.002",
			"normalTexture":{
				"index":0
			},
			"pbrMetallicRoughness":{
				"baseColorTexture":{
					"index":1
				},
				"metallicFactor":0
			}
		},
		{
			"doubleSided":true,
			"extensions":{
				"KHR_materials_specular":{
					"specularColorFactor":[
						0.237135764977738,
						0.237135764977738,
						0.237135764977738
					]
				},
				"KHR_materials_ior":{
					"ior":1.4500000476837158
				}
			},
			"name":"Material_1.001",
			"normalTexture":{
				"index":2
			},
			"pbrMetallicRoughness":{
				"baseColorTexture":{
					"index":3
				},
				"metallicFactor":0
			}
		}
	],
	"meshes":[
		{
			"name":"Object_0.001",
			"primitives":[
				{
					"attributes":{
						"POSITION":0,
						"TEXCOORD_0":1,
						"NORMAL":2
					},
					"indices":3,
					"material":0
				},
				{
					"attributes":{
						"POSITION":4,
						"TEXCOORD_0":5,
						"NORMAL":6
					},
					"indices":7,
					"material":1
				}
			]
		}
	],
	"textures":[
		{
			"sampler":0,
			"source":0
		},
		{
			"sampler":0,
			"source":1
		},
		{
			"sampler":0,
			"source":0
		},
		{
			"sampler":0,
			"source":2
		}
	],
	"images":[
		{
			"mimeType":"image/png",
			"name":"token_Normal_01",
			"uri":"textures/token_Normal_01.png"
		},
		{
			"mimeType":"image/jpeg",
			"name":"infantry_1",
			"uri":"textures/infantry_1.jpg"
		},
		{
			"mimeType":"image/jpeg",
			"name":"kneeling_1",
			"uri":"textures/kneeling_1.jpg"
		}
	],
	"accessors":[
		{
			"bufferView":0,
			"componentType":5126,
			"count":183,
			"max":[
				9.672465324401855,
				5.613480567932129,
				-38.16789627075195
			],
			"min":[
				-7.237065315246582,
				-13.351919174194336,
				-39.95777130126953
			],
			"type":"VEC3"
		},
		{
			"bufferView":1,
			"componentType":5126,
			"count":183,
			"type":"VEC2"
		},
		{
			"bufferView":2,
			"componentType":5126,
			"count":183,
			"type":"VEC3"
		},
		{
			"bufferView":3,
			"componentType":5123,
			"count":756,
			"type":"SCALAR"
		},
		{
			"bufferView":4,
			"componentType":5126,
			"count":5428,
			"max":[
				11.656795501708984,
				10.099287986755371,
				5.535495758056641
			],
			"min":[
				-9.139503479003906,
				-13.472946166992188,
				-39.90330505371094
			],
			"type":"VEC3"
		},
		{
			"bufferView":5,
			"componentType":5126,
			"count":5428,
			"type":"VEC2"
		},
		{
			"bufferView":6,
			"componentType":5126,
			"count":5428,
			"type":"VEC3"
		},
		{
			"bufferView":7,
			"componentType":5123,
			"count":27678,
			"type":"SCALAR"
		}
	],
	"bufferViews":[
		{
			"buffer":0,
			"byteLength":2196,
			"byteOffset":0,
			"target":34962
		},
		{
			"buffer":0,
			"byteLength":1464,
			"byteOffset":2196,
			"target":34962
		},
		{
			"buffer":0,
			"byteLength":2196,
			"byteOffset":3660,
			"target":34962
		},
		{
			"buffer":0,
			"byteLength":1512,
			"byteOffset":5856,
			"target":34963
		},
		{
			"buffer":0,
			"byteLength":65136,
			"byteOffset":7368,
			"target":34962
		},
		{
			"buffer":0,
			"byteLength":43424,
			"byteOffset":72504,
			"target":34962
		},
		{
			"buffer":0,
			"byteLength":65136,
			"byteOffset":115928,
			"target":34962
		},
		{
			"buffer":0,
			"byteLength":55356,
			"byteOffset":181064,
			"target":34963
		}
	],
	"samplers":[
		{
			"magFilter":9729,
			"minFilter":9987
		}
	],
	"buffers":[
		{
			"byteLength":236420,
			"uri":"mdl_namo_krub_kneeling.bin"
		}
	]
}
