{
	"asset":{
		"generator":"Khronos glTF Blender I/O v3.5.30",
		"version":"2.0"
	},
	"extensionsUsed":[
		"KHR_materials_specular",
		"KHR_materials_ior"
	],
	"scene":0,
	"scenes":[
		{
			"name":"Scene",
			"nodes":[
				2
			]
		}
	],
	"nodes":[
		{
			"mesh":0,
			"name":"Object_3"
		},
		{
			"children":[
				0
			],
			"name":"TerracottaWarrior2-draft-exported.obj.cleaner"
		},
		{
			"children":[
				1
			],
			"name":"Infantry",
			"rotation":[
				-0.70710688829422,
				0,
				0,
				0.7071066498756409
			]
		}
	],
	"materials":[
		{
			"doubleSided":true,
			"extensions":{
				"KHR_materials_specular":{
					"specularColorFactor":[
						0.237135764977738,
						0.237135764977738,
						0.237135764977738
					]
				},
				"KHR_materials_ior":{
					"ior":1.4500000476837158
				}
			},
			"name":"Material_0.001",
			"normalTexture":{
				"index":0
			},
			"pbrMetallicRoughness":{
				"baseColorTexture":{
					"index":1
				},
				"metallicFactor":0
			}
		}
	],
	"meshes":[
		{
			"name":"Object_1.001",
			"primitives":[
				{
					"attributes":{
						"POSITION":0,
						"TEXCOORD_0":1,
						"NORMAL":2
					},
					"indices":3,
					"material":0
				},
				{
					"attributes":{
						"POSITION":4,
						"TEXCOORD_0":5,
						"NORMAL":6
					},
					"indices":7,
					"material":0
				}
			]
		}
	],
	"textures":[
		{
			"sampler":0,
			"source":0
		},
		{
			"sampler":0,
			"source":1
		}
	],
	"images":[
		{
			"mimeType":"image/png",
			"name":"token_Normal_01",
			"uri":"textures/token_Normal_01.png"
		},
		{
			"mimeType":"image/jpeg",
			"name":"infantry_1",
			"uri":"textures/infantry_1.jpg"
		}
	],
	"accessors":[
		{
			"bufferView":0,
			"componentType":5126,
			"count":4760,
			"max":[
				8.006266593933105,
				8.559789657592773,
				53.71303176879883
			],
			"min":[
				-10.676398277282715,
				-6.768948554992676,
				4.001455307006836
			],
			"type":"VEC3"
		},
		{
			"bufferView":1,
			"componentType":5126,
			"count":4760,
			"type":"VEC2"
		},
		{
			"bufferView":2,
			"componentType":5126,
			"count":4760,
			"type":"VEC3"
		},
		{
			"bufferView":3,
			"componentType":5123,
			"count":24198,
			"type":"SCALAR"
		},
		{
			"bufferView":4,
			"componentType":5126,
			"count":47,
			"max":[
				5.036449909210205,
				4.709898948669434,
				53.71303176879883
			],
			"min":[
				-4.24219274520874,
				-4.470758438110352,
				3.9832866191864014
			],
			"type":"VEC3"
		},
		{
			"bufferView":5,
			"componentType":5126,
			"count":47,
			"type":"VEC2"
		},
		{
			"bufferView":6,
			"componentType":5126,
			"count":47,
			"type":"VEC3"
		},
		{
			"bufferView":7,
			"componentType":5123,
			"count":162,
			"type":"SCALAR"
		}
	],
	"bufferViews":[
		{
			"buffer":0,
			"byteLength":57120,
			"byteOffset":0,
			"target":34962
		},
		{
			"buffer":0,
			"byteLength":38080,
			"byteOffset":57120,
			"target":34962
		},
		{
			"buffer":0,
			"byteLength":57120,
			"byteOffset":95200,
			"target":34962
		},
		{
			"buffer":0,
			"byteLength":48396,
			"byteOffset":152320,
			"target":34963
		},
		{
			"buffer":0,
			"byteLength":564,
			"byteOffset":200716,
			"target":34962
		},
		{
			"buffer":0,
			"byteLength":376,
			"byteOffset":201280,
			"target":34962
		},
		{
			"buffer":0,
			"byteLength":564,
			"byteOffset":201656,
			"target":34962
		},
		{
			"buffer":0,
			"byteLength":324,
			"byteOffset":202220,
			"target":34963
		}
	],
	"samplers":[
		{
			"magFilter":9729,
			"minFilter":9987
		}
	],
	"buffers":[
		{
			"byteLength":202544,
			"uri":"mdl_namo_krub_infantry.bin"
		}
	]
}
