{
    "asset" : {
        "generator" : "Khronos glTF Blender I/O v3.3.27",
        "version" : "2.0"
    },
    "scene" : 0,
    "scenes" : [
        {
            "name" : "Scene",
            "nodes" : [
                0
            ]
        }
    ],
    "nodes" : [
        {
            "mesh" : 0,
            "name" : "Beer.005_bottle_m_0",
            "rotation" : [
                -0.6121922135353088,
                -0.3538658022880554,
                -0.3538658916950226,
                0.6121916770935059
            ],
            "scale" : [
                100.00001525878906,
                100.00003814697266,
                100.00004577636719
            ],
            "translation" : [
                0,
                14.5120210647583,
                0
            ]
        }
    ],
    "materials" : [
        {
            "doubleSided" : true,
            "name" : "bottle_m",
            "normalTexture" : {
                "index" : 0
            },
            "pbrMetallicRoughness" : {
                "baseColorTexture" : {
                    "index" : 1
                },
                "metallicRoughnessTexture" : {
                    "index" : 2
                }
            }
        },
        {
            "doubleSided" : true,
            "name" : "bottle_m.001",
            "normalTexture" : {
                "index" : 3
            },
            "pbrMetallicRoughness" : {
                "baseColorTexture" : {
                    "index" : 4
                },
                "metallicRoughnessTexture" : {
                    "index" : 5
                }
            }
        },
        {
            "doubleSided" : true,
            "name" : "bottle_m.002",
            "normalTexture" : {
                "index" : 6
            },
            "pbrMetallicRoughness" : {
                "baseColorTexture" : {
                    "index" : 7
                },
                "metallicRoughnessTexture" : {
                    "index" : 8
                }
            }
        },
        {
            "doubleSided" : true,
            "name" : "bottle_m.003",
            "normalTexture" : {
                "index" : 9
            },
            "pbrMetallicRoughness" : {
                "baseColorTexture" : {
                    "index" : 10
                },
                "metallicRoughnessTexture" : {
                    "index" : 11
                }
            }
        },
        {
            "doubleSided" : true,
            "name" : "bottle_m.004",
            "normalTexture" : {
                "index" : 12
            },
            "pbrMetallicRoughness" : {
                "baseColorTexture" : {
                    "index" : 13
                },
                "metallicRoughnessTexture" : {
                    "index" : 14
                }
            }
        },
        {
            "doubleSided" : true,
            "name" : "bottle_m.005",
            "normalTexture" : {
                "index" : 15
            },
            "pbrMetallicRoughness" : {
                "baseColorTexture" : {
                    "index" : 16
                },
                "metallicRoughnessTexture" : {
                    "index" : 17
                }
            }
        }
    ],
    "meshes" : [
        {
            "name" : "Beer.005_bottle_m_0",
            "primitives" : [
                {
                    "attributes" : {
                        "POSITION" : 0,
                        "NORMAL" : 1,
                        "TEXCOORD_0" : 2,
                        "TEXCOORD_1" : 3,
                        "TEXCOORD_2" : 4
                    },
                    "indices" : 5,
                    "material" : 0
                },
                {
                    "attributes" : {
                        "POSITION" : 6,
                        "NORMAL" : 7,
                        "TEXCOORD_0" : 8,
                        "TEXCOORD_1" : 9,
                        "TEXCOORD_2" : 10
                    },
                    "indices" : 11,
                    "material" : 1
                },
                {
                    "attributes" : {
                        "POSITION" : 12,
                        "NORMAL" : 13,
                        "TEXCOORD_0" : 14,
                        "TEXCOORD_1" : 15,
                        "TEXCOORD_2" : 16
                    },
                    "indices" : 17,
                    "material" : 2
                },
                {
                    "attributes" : {
                        "POSITION" : 18,
                        "NORMAL" : 19,
                        "TEXCOORD_0" : 20,
                        "TEXCOORD_1" : 21,
                        "TEXCOORD_2" : 22
                    },
                    "indices" : 23,
                    "material" : 3
                },
                {
                    "attributes" : {
                        "POSITION" : 24,
                        "NORMAL" : 25,
                        "TEXCOORD_0" : 26,
                        "TEXCOORD_1" : 27,
                        "TEXCOORD_2" : 28
                    },
                    "indices" : 29,
                    "material" : 4
                },
                {
                    "attributes" : {
                        "POSITION" : 30,
                        "NORMAL" : 31,
                        "TEXCOORD_0" : 32,
                        "TEXCOORD_1" : 33,
                        "TEXCOORD_2" : 34
                    },
                    "indices" : 35,
                    "material" : 5
                }
            ]
        }
    ],
    "textures" : [
        {
            "sampler" : 0,
            "source" : 0
        },
        {
            "sampler" : 0,
            "source" : 1
        },
        {
            "sampler" : 0,
            "source" : 2
        },
        {
            "sampler" : 0,
            "source" : 0
        },
        {
            "sampler" : 0,
            "source" : 1
        },
        {
            "sampler" : 0,
            "source" : 2
        },
        {
            "sampler" : 0,
            "source" : 0
        },
        {
            "sampler" : 0,
            "source" : 1
        },
        {
            "sampler" : 0,
            "source" : 2
        },
        {
            "sampler" : 0,
            "source" : 0
        },
        {
            "sampler" : 0,
            "source" : 1
        },
        {
            "sampler" : 0,
            "source" : 2
        },
        {
            "sampler" : 0,
            "source" : 0
        },
        {
            "sampler" : 0,
            "source" : 1
        },
        {
            "sampler" : 0,
            "source" : 2
        },
        {
            "sampler" : 0,
            "source" : 0
        },
        {
            "sampler" : 0,
            "source" : 1
        },
        {
            "sampler" : 0,
            "source" : 2
        }
    ],
    "images" : [
        {
            "mimeType" : "image/png",
            "name" : "bottle_m_normal",
            "uri" : "bottle_m_normal.png"
        },
        {
            "mimeType" : "image/png",
            "name" : "bottle_m_baseColor",
            "uri" : "bottle_m_baseColor.png"
        },
        {
            "mimeType" : "image/png",
            "name" : "bottle_m_metallicRoughness",
            "uri" : "bottle_m_metallicRoughness.png"
        }
    ],
    "accessors" : [
        {
            "bufferView" : 0,
            "componentType" : 5126,
            "count" : 566,
            "max" : [
                0.02886229194700718,
                0.029636085033416748,
                0.08277096599340439
            ],
            "min" : [
                -0.0302412249147892,
                -0.029347775503993034,
                -0.14505535364151
            ],
            "type" : "VEC3"
        },
        {
            "bufferView" : 1,
            "componentType" : 5126,
            "count" : 566,
            "type" : "VEC3"
        },
        {
            "bufferView" : 2,
            "componentType" : 5126,
            "count" : 566,
            "type" : "VEC2"
        },
        {
            "bufferView" : 3,
            "componentType" : 5126,
            "count" : 566,
            "type" : "VEC2"
        },
        {
            "bufferView" : 4,
            "componentType" : 5126,
            "count" : 566,
            "type" : "VEC2"
        },
        {
            "bufferView" : 5,
            "componentType" : 5123,
            "count" : 2271,
            "type" : "SCALAR"
        },
        {
            "bufferView" : 6,
            "componentType" : 5126,
            "count" : 566,
            "max" : [
                0.06380040943622589,
                0.0902935266494751,
                0.08277101814746857
            ],
            "min" : [
                0.004696892574429512,
                0.031309664249420166,
                -0.14505532383918762
            ],
            "type" : "VEC3"
        },
        {
            "bufferView" : 7,
            "componentType" : 5126,
            "count" : 566,
            "type" : "VEC3"
        },
        {
            "bufferView" : 8,
            "componentType" : 5126,
            "count" : 566,
            "type" : "VEC2"
        },
        {
            "bufferView" : 9,
            "componentType" : 5126,
            "count" : 566,
            "type" : "VEC2"
        },
        {
            "bufferView" : 10,
            "componentType" : 5126,
            "count" : 566,
            "type" : "VEC2"
        },
        {
            "bufferView" : 11,
            "componentType" : 5123,
            "count" : 2271,
            "type" : "SCALAR"
        },
        {
            "bufferView" : 12,
            "componentType" : 5126,
            "count" : 566,
            "max" : [
                0.09873852133750916,
                0.15095096826553345,
                0.08277104049921036
            ],
            "min" : [
                0.039635010063648224,
                0.09196709841489792,
                -0.14505529403686523
            ],
            "type" : "VEC3"
        },
        {
            "bufferView" : 13,
            "componentType" : 5126,
            "count" : 566,
            "type" : "VEC3"
        },
        {
            "bufferView" : 14,
            "componentType" : 5126,
            "count" : 566,
            "type" : "VEC2"
        },
        {
            "bufferView" : 15,
            "componentType" : 5126,
            "count" : 566,
            "type" : "VEC2"
        },
        {
            "bufferView" : 16,
            "componentType" : 5126,
            "count" : 566,
            "type" : "VEC2"
        },
        {
            "bufferView" : 17,
            "componentType" : 5123,
            "count" : 2271,
            "type" : "SCALAR"
        },
        {
            "bufferView" : 18,
            "componentType" : 5126,
            "count" : 566,
            "max" : [
                0.13367663323879242,
                0.2116083949804306,
                0.08277107030153275
            ],
            "min" : [
                0.07457312196493149,
                0.15262453258037567,
                -0.14505527913570404
            ],
            "type" : "VEC3"
        },
        {
            "bufferView" : 19,
            "componentType" : 5126,
            "count" : 566,
            "type" : "VEC3"
        },
        {
            "bufferView" : 20,
            "componentType" : 5126,
            "count" : 566,
            "type" : "VEC2"
        },
        {
            "bufferView" : 21,
            "componentType" : 5126,
            "count" : 566,
            "type" : "VEC2"
        },
        {
            "bufferView" : 22,
            "componentType" : 5126,
            "count" : 566,
            "type" : "VEC2"
        },
        {
            "bufferView" : 23,
            "componentType" : 5123,
            "count" : 2271,
            "type" : "SCALAR"
        },
        {
            "bufferView" : 24,
            "componentType" : 5126,
            "count" : 566,
            "max" : [
                0.16861474514007568,
                0.27226585149765015,
                0.08277109265327454
            ],
            "min" : [
                0.10951124131679535,
                0.21328197419643402,
                -0.14505524933338165
            ],
            "type" : "VEC3"
        },
        {
            "bufferView" : 25,
            "componentType" : 5126,
            "count" : 566,
            "type" : "VEC3"
        },
        {
            "bufferView" : 26,
            "componentType" : 5126,
            "count" : 566,
            "type" : "VEC2"
        },
        {
            "bufferView" : 27,
            "componentType" : 5126,
            "count" : 566,
            "type" : "VEC2"
        },
        {
            "bufferView" : 28,
            "componentType" : 5126,
            "count" : 566,
            "type" : "VEC2"
        },
        {
            "bufferView" : 29,
            "componentType" : 5123,
            "count" : 2271,
            "type" : "SCALAR"
        },
        {
            "bufferView" : 30,
            "componentType" : 5126,
            "count" : 566,
            "max" : [
                0.20355287194252014,
                0.3329232931137085,
                0.08277112245559692
            ],
            "min" : [
                0.1444493532180786,
                0.27393943071365356,
                -0.14505521953105927
            ],
            "type" : "VEC3"
        },
        {
            "bufferView" : 31,
            "componentType" : 5126,
            "count" : 566,
            "type" : "VEC3"
        },
        {
            "bufferView" : 32,
            "componentType" : 5126,
            "count" : 566,
            "type" : "VEC2"
        },
        {
            "bufferView" : 33,
            "componentType" : 5126,
            "count" : 566,
            "type" : "VEC2"
        },
        {
            "bufferView" : 34,
            "componentType" : 5126,
            "count" : 566,
            "type" : "VEC2"
        },
        {
            "bufferView" : 35,
            "componentType" : 5123,
            "count" : 2271,
            "type" : "SCALAR"
        }
    ],
    "bufferViews" : [
        {
            "buffer" : 0,
            "byteLength" : 6792,
            "byteOffset" : 0,
            "target" : 34962
        },
        {
            "buffer" : 0,
            "byteLength" : 6792,
            "byteOffset" : 6792,
            "target" : 34962
        },
        {
            "buffer" : 0,
            "byteLength" : 4528,
            "byteOffset" : 13584,
            "target" : 34962
        },
        {
            "buffer" : 0,
            "byteLength" : 4528,
            "byteOffset" : 18112,
            "target" : 34962
        },
        {
            "buffer" : 0,
            "byteLength" : 4528,
            "byteOffset" : 22640,
            "target" : 34962
        },
        {
            "buffer" : 0,
            "byteLength" : 4542,
            "byteOffset" : 27168,
            "target" : 34963
        },
        {
            "buffer" : 0,
            "byteLength" : 6792,
            "byteOffset" : 31712,
            "target" : 34962
        },
        {
            "buffer" : 0,
            "byteLength" : 6792,
            "byteOffset" : 38504,
            "target" : 34962
        },
        {
            "buffer" : 0,
            "byteLength" : 4528,
            "byteOffset" : 45296,
            "target" : 34962
        },
        {
            "buffer" : 0,
            "byteLength" : 4528,
            "byteOffset" : 49824,
            "target" : 34962
        },
        {
            "buffer" : 0,
            "byteLength" : 4528,
            "byteOffset" : 54352,
            "target" : 34962
        },
        {
            "buffer" : 0,
            "byteLength" : 4542,
            "byteOffset" : 58880,
            "target" : 34963
        },
        {
            "buffer" : 0,
            "byteLength" : 6792,
            "byteOffset" : 63424,
            "target" : 34962
        },
        {
            "buffer" : 0,
            "byteLength" : 6792,
            "byteOffset" : 70216,
            "target" : 34962
        },
        {
            "buffer" : 0,
            "byteLength" : 4528,
            "byteOffset" : 77008,
            "target" : 34962
        },
        {
            "buffer" : 0,
            "byteLength" : 4528,
            "byteOffset" : 81536,
            "target" : 34962
        },
        {
            "buffer" : 0,
            "byteLength" : 4528,
            "byteOffset" : 86064,
            "target" : 34962
        },
        {
            "buffer" : 0,
            "byteLength" : 4542,
            "byteOffset" : 90592,
            "target" : 34963
        },
        {
            "buffer" : 0,
            "byteLength" : 6792,
            "byteOffset" : 95136,
            "target" : 34962
        },
        {
            "buffer" : 0,
            "byteLength" : 6792,
            "byteOffset" : 101928,
            "target" : 34962
        },
        {
            "buffer" : 0,
            "byteLength" : 4528,
            "byteOffset" : 108720,
            "target" : 34962
        },
        {
            "buffer" : 0,
            "byteLength" : 4528,
            "byteOffset" : 113248,
            "target" : 34962
        },
        {
            "buffer" : 0,
            "byteLength" : 4528,
            "byteOffset" : 117776,
            "target" : 34962
        },
        {
            "buffer" : 0,
            "byteLength" : 4542,
            "byteOffset" : 122304,
            "target" : 34963
        },
        {
            "buffer" : 0,
            "byteLength" : 6792,
            "byteOffset" : 126848,
            "target" : 34962
        },
        {
            "buffer" : 0,
            "byteLength" : 6792,
            "byteOffset" : 133640,
            "target" : 34962
        },
        {
            "buffer" : 0,
            "byteLength" : 4528,
            "byteOffset" : 140432,
            "target" : 34962
        },
        {
            "buffer" : 0,
            "byteLength" : 4528,
            "byteOffset" : 144960,
            "target" : 34962
        },
        {
            "buffer" : 0,
            "byteLength" : 4528,
            "byteOffset" : 149488,
            "target" : 34962
        },
        {
            "buffer" : 0,
            "byteLength" : 4542,
            "byteOffset" : 154016,
            "target" : 34963
        },
        {
            "buffer" : 0,
            "byteLength" : 6792,
            "byteOffset" : 158560,
            "target" : 34962
        },
        {
            "buffer" : 0,
            "byteLength" : 6792,
            "byteOffset" : 165352,
            "target" : 34962
        },
        {
            "buffer" : 0,
            "byteLength" : 4528,
            "byteOffset" : 172144,
            "target" : 34962
        },
        {
            "buffer" : 0,
            "byteLength" : 4528,
            "byteOffset" : 176672,
            "target" : 34962
        },
        {
            "buffer" : 0,
            "byteLength" : 4528,
            "byteOffset" : 181200,
            "target" : 34962
        },
        {
            "buffer" : 0,
            "byteLength" : 4542,
            "byteOffset" : 185728,
            "target" : 34963
        }
    ],
    "samplers" : [
        {
            "magFilter" : 9729,
            "minFilter" : 9987
        }
    ],
    "buffers" : [
        {
            "byteLength" : 190272,
            "uri" : "beerbottle_edited_6x1.bin"
        }
    ]
}
