{
    "asset" : {
        "generator" : "Khronos glTF Blender I/O v3.3.27",
        "version" : "2.0"
    },
    "scene" : 0,
    "scenes" : [
        {
            "name" : "Scene",
            "nodes" : [
                3,
                6,
                10
            ]
        }
    ],
    "nodes" : [
        {
            "mesh" : 0,
            "name" : "defaultMaterial.001",
            "translation" : [
                -0.23301275074481964,
                109.95333862304688,
                0
            ]
        },
        {
            "children" : [
                0
            ],
            "name" : "SM_Large_Display_Case_low"
        },
        {
            "children" : [
                1
            ],
            "name" : "Collada visual scene group",
            "rotation" : [
                0.7071068286895752,
                0,
                0,
                0.7071067094802856
            ]
        },
        {
            "children" : [
                2
            ],
            "name" : "Sketchfab_model",
            "rotation" : [
                -0.7071068286895752,
                0,
                0,
                0.7071067094802856
            ]
        },
        {
            "name" : "SM_Large_Display_Case_low.001"
        },
        {
            "children" : [
                4
            ],
            "name" : "Collada visual scene group.001",
            "rotation" : [
                0.7071068286895752,
                0,
                0,
                0.7071067094802856
            ]
        },
        {
            "children" : [
                5
            ],
            "name" : "Sketchfab_model.001",
            "rotation" : [
                0,
                -0.7071066498756409,
                -0.70710688829422,
                3.090861255827804e-08
            ],
            "scale" : [
                0.1707606017589569,
                1,
                1
            ],
            "translation" : [
                -2.7752599716186523,
                0,
                -4.542950630187988
            ]
        },
        {
            "mesh" : 1,
            "name" : "defaultMaterial.002",
            "translation" : [
                0.03760121762752533,
                109.95333862304688,
                0
            ]
        },
        {
            "children" : [
                7
            ],
            "name" : "SM_Large_Display_Case_low.002"
        },
        {
            "children" : [
                8
            ],
            "name" : "Collada visual scene group.002",
            "rotation" : [
                0.7071068286895752,
                0,
                0,
                0.7071067094802856
            ]
        },
        {
            "children" : [
                9
            ],
            "name" : "Sketchfab_model.002",
            "rotation" : [
                0,
                -0.7071066498756409,
                -0.70710688829422,
                3.090861255827804e-08
            ],
            "scale" : [
                0.17639921605587006,
                1,
                1
            ],
            "translation" : [
                -3.0620856285095215,
                0,
                -4.359306335449219
            ]
        }
    ],
    "materials" : [
        {
            "alphaMode" : "BLEND",
            "doubleSided" : true,
            "emissiveFactor" : [
                1,
                1,
                1
            ],
            "emissiveTexture" : {
                "index" : 0
            },
            "name" : "M_Glass",
            "normalTexture" : {
                "index" : 1
            },
            "occlusionTexture" : {
                "index" : 2
            },
            "pbrMetallicRoughness" : {
                "baseColorTexture" : {
                    "index" : 3
                },
                "metallicRoughnessTexture" : {
                    "index" : 2
                }
            }
        },
        {
            "doubleSided" : true,
            "emissiveFactor" : [
                1,
                1,
                1
            ],
            "emissiveTexture" : {
                "index" : 4
            },
            "name" : "M_Large_Display_Case.002",
            "normalTexture" : {
                "index" : 5
            },
            "occlusionTexture" : {
                "index" : 6
            },
            "pbrMetallicRoughness" : {
                "baseColorTexture" : {
                    "index" : 7
                },
                "metallicRoughnessTexture" : {
                    "index" : 6
                }
            }
        },
        {
            "doubleSided" : true,
            "emissiveFactor" : [
                1,
                1,
                1
            ],
            "emissiveTexture" : {
                "index" : 8
            },
            "name" : "M_Large_Display_Case.003",
            "normalTexture" : {
                "index" : 9
            },
            "pbrMetallicRoughness" : {
                "baseColorTexture" : {
                    "index" : 10
                },
                "metallicRoughnessTexture" : {
                    "index" : 11
                }
            }
        }
    ],
    "meshes" : [
        {
            "name" : "defaultMaterial.003",
            "primitives" : [
                {
                    "attributes" : {
                        "POSITION" : 0,
                        "NORMAL" : 1,
                        "TEXCOORD_0" : 2
                    },
                    "indices" : 3,
                    "material" : 0
                },
                {
                    "attributes" : {
                        "POSITION" : 4,
                        "NORMAL" : 5,
                        "TEXCOORD_0" : 6
                    },
                    "indices" : 7,
                    "material" : 1
                },
                {
                    "attributes" : {
                        "POSITION" : 8,
                        "NORMAL" : 9,
                        "TEXCOORD_0" : 10
                    },
                    "indices" : 11
                }
            ]
        },
        {
            "name" : "defaultMaterial.002",
            "primitives" : [
                {
                    "attributes" : {
                        "POSITION" : 12,
                        "NORMAL" : 13,
                        "TEXCOORD_0" : 14
                    },
                    "indices" : 7,
                    "material" : 2
                },
                {
                    "attributes" : {
                        "POSITION" : 15,
                        "NORMAL" : 16,
                        "TEXCOORD_0" : 17
                    },
                    "indices" : 11
                }
            ]
        }
    ],
    "textures" : [
        {
            "sampler" : 0,
            "source" : 0
        },
        {
            "sampler" : 0,
            "source" : 1
        },
        {
            "sampler" : 0,
            "source" : 2
        },
        {
            "sampler" : 0,
            "source" : 3
        },
        {
            "sampler" : 0,
            "source" : 4
        },
        {
            "sampler" : 0,
            "source" : 5
        },
        {
            "sampler" : 0,
            "source" : 6
        },
        {
            "sampler" : 0,
            "source" : 7
        },
        {
            "sampler" : 0,
            "source" : 4
        },
        {
            "sampler" : 0,
            "source" : 5
        },
        {
            "sampler" : 0,
            "source" : 7
        },
        {
            "sampler" : 0,
            "source" : 6
        }
    ],
    "images" : [
        {
            "mimeType" : "image/jpeg",
            "name" : "M_Glass_emissive",
            "uri" : "M_Glass_emissive.jpg"
        },
        {
            "mimeType" : "image/png",
            "name" : "M_Glass_normal",
            "uri" : "M_Glass_normal.png"
        },
        {
            "mimeType" : "image/png",
            "name" : "M_Glass_metallicRoughness",
            "uri" : "M_Glass_metallicRoughness.png"
        },
        {
            "mimeType" : "image/png",
            "name" : "M_Glass_baseColor",
            "uri" : "M_Glass_baseColor.png"
        },
        {
            "mimeType" : "image/jpeg",
            "name" : "M_Large_Display_Case_emissive",
            "uri" : "M_Large_Display_Case_emissive.jpg"
        },
        {
            "mimeType" : "image/png",
            "name" : "M_Large_Display_Case_normal",
            "uri" : "M_Large_Display_Case_normal.png"
        },
        {
            "mimeType" : "image/png",
            "name" : "M_Large_Display_Case_metallicRoughness",
            "uri" : "M_Large_Display_Case_metallicRoughness.png"
        },
        {
            "mimeType" : "image/png",
            "name" : "M_Large_Display_Case_baseColor",
            "uri" : "M_Large_Display_Case_baseColor.png"
        }
    ],
    "accessors" : [
        {
            "bufferView" : 0,
            "componentType" : 5126,
            "count" : 8,
            "max" : [
                -1.32025146484375,
                126.05433654785156,
                61.823768615722656
            ],
            "min" : [
                -2.32025146484375,
                -105.20375061035156,
                -66.31568908691406
            ],
            "type" : "VEC3"
        },
        {
            "bufferView" : 1,
            "componentType" : 5126,
            "count" : 8,
            "type" : "VEC3"
        },
        {
            "bufferView" : 2,
            "componentType" : 5126,
            "count" : 8,
            "type" : "VEC2"
        },
        {
            "bufferView" : 3,
            "componentType" : 5123,
            "count" : 12,
            "type" : "SCALAR"
        },
        {
            "bufferView" : 4,
            "componentType" : 5126,
            "count" : 152,
            "max" : [
                4.933837890625,
                132.94374084472656,
                71.24840545654297
            ],
            "min" : [
                -2.4284210205078125,
                -110.06143951416016,
                -75.60952758789062
            ],
            "type" : "VEC3"
        },
        {
            "bufferView" : 5,
            "componentType" : 5126,
            "count" : 152,
            "type" : "VEC3"
        },
        {
            "bufferView" : 6,
            "componentType" : 5126,
            "count" : 152,
            "type" : "VEC2"
        },
        {
            "bufferView" : 7,
            "componentType" : 5123,
            "count" : 390,
            "type" : "SCALAR"
        },
        {
            "bufferView" : 8,
            "componentType" : 5126,
            "count" : 29,
            "max" : [
                -2.42840576171875,
                131.6881866455078,
                71.24840545654297
            ],
            "min" : [
                -2.4284210205078125,
                -110.06143951416016,
                -71.86923217773438
            ],
            "type" : "VEC3"
        },
        {
            "bufferView" : 9,
            "componentType" : 5126,
            "count" : 29,
            "type" : "VEC3"
        },
        {
            "bufferView" : 10,
            "componentType" : 5126,
            "count" : 29,
            "type" : "VEC2"
        },
        {
            "bufferView" : 11,
            "componentType" : 5123,
            "count" : 39,
            "type" : "SCALAR"
        },
        {
            "bufferView" : 12,
            "componentType" : 5126,
            "count" : 152,
            "max" : [
                4.933837890625,
                132.94374084472656,
                71.24840545654297
            ],
            "min" : [
                -2.4284210205078125,
                -110.06143951416016,
                -75.60952758789062
            ],
            "type" : "VEC3"
        },
        {
            "bufferView" : 13,
            "componentType" : 5126,
            "count" : 152,
            "type" : "VEC3"
        },
        {
            "bufferView" : 14,
            "componentType" : 5126,
            "count" : 152,
            "type" : "VEC2"
        },
        {
            "bufferView" : 15,
            "componentType" : 5126,
            "count" : 29,
            "max" : [
                -2.42840576171875,
                131.6881866455078,
                71.24840545654297
            ],
            "min" : [
                -2.4284210205078125,
                -110.06143951416016,
                -71.86923217773438
            ],
            "type" : "VEC3"
        },
        {
            "bufferView" : 16,
            "componentType" : 5126,
            "count" : 29,
            "type" : "VEC3"
        },
        {
            "bufferView" : 17,
            "componentType" : 5126,
            "count" : 29,
            "type" : "VEC2"
        }
    ],
    "bufferViews" : [
        {
            "buffer" : 0,
            "byteLength" : 96,
            "byteOffset" : 0,
            "target" : 34962
        },
        {
            "buffer" : 0,
            "byteLength" : 96,
            "byteOffset" : 96,
            "target" : 34962
        },
        {
            "buffer" : 0,
            "byteLength" : 64,
            "byteOffset" : 192,
            "target" : 34962
        },
        {
            "buffer" : 0,
            "byteLength" : 24,
            "byteOffset" : 256,
            "target" : 34963
        },
        {
            "buffer" : 0,
            "byteLength" : 1824,
            "byteOffset" : 280,
            "target" : 34962
        },
        {
            "buffer" : 0,
            "byteLength" : 1824,
            "byteOffset" : 2104,
            "target" : 34962
        },
        {
            "buffer" : 0,
            "byteLength" : 1216,
            "byteOffset" : 3928,
            "target" : 34962
        },
        {
            "buffer" : 0,
            "byteLength" : 780,
            "byteOffset" : 5144,
            "target" : 34963
        },
        {
            "buffer" : 0,
            "byteLength" : 348,
            "byteOffset" : 5924,
            "target" : 34962
        },
        {
            "buffer" : 0,
            "byteLength" : 348,
            "byteOffset" : 6272,
            "target" : 34962
        },
        {
            "buffer" : 0,
            "byteLength" : 232,
            "byteOffset" : 6620,
            "target" : 34962
        },
        {
            "buffer" : 0,
            "byteLength" : 78,
            "byteOffset" : 6852,
            "target" : 34963
        },
        {
            "buffer" : 0,
            "byteLength" : 1824,
            "byteOffset" : 6932,
            "target" : 34962
        },
        {
            "buffer" : 0,
            "byteLength" : 1824,
            "byteOffset" : 8756,
            "target" : 34962
        },
        {
            "buffer" : 0,
            "byteLength" : 1216,
            "byteOffset" : 10580,
            "target" : 34962
        },
        {
            "buffer" : 0,
            "byteLength" : 348,
            "byteOffset" : 11796,
            "target" : 34962
        },
        {
            "buffer" : 0,
            "byteLength" : 348,
            "byteOffset" : 12144,
            "target" : 34962
        },
        {
            "buffer" : 0,
            "byteLength" : 232,
            "byteOffset" : 12492,
            "target" : 34962
        }
    ],
    "samplers" : [
        {
            "magFilter" : 9729,
            "minFilter" : 9987
        }
    ],
    "buffers" : [
        {
            "byteLength" : 12724,
            "uri" : "case_toponly_door.bin"
        }
    ]
}
