{
    "asset" : {
        "generator" : "Khronos glTF Blender I/O v3.3.27",
        "version" : "2.0"
    },
    "scene" : 0,
    "scenes" : [
        {
            "name" : "Scene",
            "nodes" : [
                0
            ]
        }
    ],
    "nodes" : [
        {
            "mesh" : 0,
            "name" : "defaultMaterial.352",
            "scale" : [
                10.654083251953125,
                10.654085159301758,
                10.654085159301758
            ],
            "translation" : [
                0,
                0.08830967545509338,
                0
            ]
        }
    ],
    "materials" : [
        {
            "alphaMode" : "BLEND",
            "doubleSided" : true,
            "emissiveFactor" : [
                1,
                1,
                1
            ],
            "emissiveTexture" : {
                "index" : 0
            },
            "name" : "Cups.003",
            "normalTexture" : {
                "index" : 1
            },
            "pbrMetallicRoughness" : {
                "baseColorTexture" : {
                    "index" : 2
                },
                "metallicRoughnessTexture" : {
                    "index" : 3
                }
            }
        }
    ],
    "meshes" : [
        {
            "name" : "defaultMaterial.352",
            "primitives" : [
                {
                    "attributes" : {
                        "POSITION" : 0,
                        "NORMAL" : 1,
                        "TEXCOORD_0" : 2
                    },
                    "indices" : 3,
                    "material" : 0
                }
            ]
        }
    ],
    "textures" : [
        {
            "sampler" : 0,
            "source" : 0
        },
        {
            "sampler" : 0,
            "source" : 1
        },
        {
            "sampler" : 0,
            "source" : 2
        },
        {
            "sampler" : 0,
            "source" : 3
        }
    ],
    "images" : [
        {
            "mimeType" : "image/jpeg",
            "name" : "Cups_emissive",
            "uri" : "Cups_emissive.jpg"
        },
        {
            "mimeType" : "image/png",
            "name" : "Cups_normal",
            "uri" : "Cups_normal.png"
        },
        {
            "mimeType" : "image/png",
            "name" : "Cups_baseColor",
            "uri" : "Cups_baseColor.png"
        },
        {
            "mimeType" : "image/png",
            "name" : "Cups_metallicRoughness",
            "uri" : "Cups_metallicRoughness.png"
        }
    ],
    "accessors" : [
        {
            "bufferView" : 0,
            "componentType" : 5126,
            "count" : 1975,
            "max" : [
                0.01570141315460205,
                0.0087653249502182,
                0.009707540273666382
            ],
            "min" : [
                -0.016219615936279297,
                -0.008257444947957993,
                -0.009619757533073425
            ],
            "type" : "VEC3"
        },
        {
            "bufferView" : 1,
            "componentType" : 5126,
            "count" : 1975,
            "type" : "VEC3"
        },
        {
            "bufferView" : 2,
            "componentType" : 5126,
            "count" : 1975,
            "type" : "VEC2"
        },
        {
            "bufferView" : 3,
            "componentType" : 5123,
            "count" : 5193,
            "type" : "SCALAR"
        }
    ],
    "bufferViews" : [
        {
            "buffer" : 0,
            "byteLength" : 23700,
            "byteOffset" : 0,
            "target" : 34962
        },
        {
            "buffer" : 0,
            "byteLength" : 23700,
            "byteOffset" : 23700,
            "target" : 34962
        },
        {
            "buffer" : 0,
            "byteLength" : 15800,
            "byteOffset" : 47400,
            "target" : 34962
        },
        {
            "buffer" : 0,
            "byteLength" : 10386,
            "byteOffset" : 63200,
            "target" : 34963
        }
    ],
    "samplers" : [
        {
            "magFilter" : 9729,
            "minFilter" : 9987
        }
    ],
    "buffers" : [
        {
            "byteLength" : 73588,
            "uri" : "pintglass_3x2x2.bin"
        }
    ]
}
