{
    "asset" : {
        "generator" : "Khronos glTF Blender I/O v3.3.27",
        "version" : "2.0"
    },
    "scene" : 0,
    "scenes" : [
        {
            "name" : "Scene",
            "nodes" : [
                7,
                14,
                21
            ]
        }
    ],
    "nodes" : [
        {
            "name" : "Chromes"
        },
        {
            "name" : "holders"
        },
        {
            "name" : "Rest"
        },
        {
            "mesh" : 0,
            "name" : "Sit_sit_0"
        },
        {
            "children" : [
                3
            ],
            "name" : "Sit"
        },
        {
            "children" : [
                0,
                1,
                2,
                4
            ],
            "name" : "RootNode"
        },
        {
            "children" : [
                5
            ],
            "name" : "dlX - Bar Stool (Vigando).fbx"
        },
        {
            "children" : [
                6
            ],
            "name" : "Sketchfab_model"
        },
        {
            "name" : "Chromes.001"
        },
        {
            "name" : "holders.001"
        },
        {
            "name" : "Rest.001"
        },
        {
            "name" : "Sit.001"
        },
        {
            "children" : [
                8,
                9,
                10,
                11
            ],
            "name" : "RootNode.001"
        },
        {
            "children" : [
                12
            ],
            "name" : "dlX - Bar Stool (Vigando).fbx.001",
            "rotation" : [
                0.7071068286895752,
                0,
                0,
                0.7071067094802856
            ],
            "scale" : [
                0.009999999776482582,
                0.009999999776482582,
                0.009999999776482582
            ]
        },
        {
            "children" : [
                13
            ],
            "name" : "Sketchfab_model.001",
            "rotation" : [
                -0.7071068286895752,
                0,
                0,
                0.7071067094802856
            ],
            "translation" : [
                1,
                0,
                0
            ]
        },
        {
            "name" : "Chromes.002"
        },
        {
            "name" : "holders.002"
        },
        {
            "name" : "Rest.002"
        },
        {
            "name" : "Sit.002"
        },
        {
            "children" : [
                15,
                16,
                17,
                18
            ],
            "name" : "RootNode.002"
        },
        {
            "children" : [
                19
            ],
            "name" : "dlX - Bar Stool (Vigando).fbx.002",
            "rotation" : [
                0.7071068286895752,
                0,
                0,
                0.7071067094802856
            ],
            "scale" : [
                0.009999999776482582,
                0.009999999776482582,
                0.009999999776482582
            ]
        },
        {
            "children" : [
                20
            ],
            "name" : "Sketchfab_model.002",
            "rotation" : [
                -0.7071068286895752,
                0,
                0,
                0.7071067094802856
            ],
            "translation" : [
                1,
                0,
                0
            ]
        }
    ],
    "materials" : [
        {
            "doubleSided" : true,
            "name" : "material",
            "normalTexture" : {
                "index" : 0
            },
            "pbrMetallicRoughness" : {
                "baseColorTexture" : {
                    "index" : 1
                },
                "metallicFactor" : 0,
                "roughnessFactor" : 0.7699040770530701
            }
        },
        {
            "doubleSided" : true,
            "name" : "Chrome",
            "pbrMetallicRoughness" : {
                "baseColorTexture" : {
                    "index" : 2
                },
                "roughnessFactor" : 0
            }
        },
        {
            "doubleSided" : true,
            "name" : "Chrome_Dark",
            "pbrMetallicRoughness" : {
                "baseColorFactor" : [
                    0.016789177432656288,
                    0.016789177432656288,
                    0.016789177432656288,
                    1
                ],
                "metallicFactor" : 0.7603832483291626,
                "roughnessFactor" : 0
            }
        }
    ],
    "meshes" : [
        {
            "name" : "Sit_sit_0",
            "primitives" : [
                {
                    "attributes" : {
                        "POSITION" : 0,
                        "NORMAL" : 1,
                        "TEXCOORD_0" : 2
                    },
                    "indices" : 3,
                    "material" : 0
                },
                {
                    "attributes" : {
                        "POSITION" : 4,
                        "NORMAL" : 5,
                        "TEXCOORD_0" : 6
                    },
                    "indices" : 7,
                    "material" : 1
                },
                {
                    "attributes" : {
                        "POSITION" : 8,
                        "NORMAL" : 9,
                        "TEXCOORD_0" : 10
                    },
                    "indices" : 11,
                    "material" : 2
                }
            ]
        }
    ],
    "textures" : [
        {
            "sampler" : 0,
            "source" : 0
        },
        {
            "sampler" : 0,
            "source" : 1
        },
        {
            "sampler" : 0,
            "source" : 2
        }
    ],
    "images" : [
        {
            "mimeType" : "image/png",
            "name" : "material_normal",
            "uri" : "material_normal.png"
        },
        {
            "mimeType" : "image/png",
            "name" : "chair",
            "uri" : "chair.png"
        },
        {
            "mimeType" : "image/png",
            "name" : "Untitled",
            "uri" : "Untitled.png"
        }
    ],
    "accessors" : [
        {
            "bufferView" : 0,
            "componentType" : 5126,
            "count" : 1092,
            "max" : [
                0.20000003278255463,
                0.9709010124206543,
                0.2600000500679016
            ],
            "min" : [
                -0.19999997317790985,
                0.7004783749580383,
                -0.20000001788139343
            ],
            "type" : "VEC3"
        },
        {
            "bufferView" : 1,
            "componentType" : 5126,
            "count" : 1092,
            "type" : "VEC3"
        },
        {
            "bufferView" : 2,
            "componentType" : 5126,
            "count" : 1092,
            "type" : "VEC2"
        },
        {
            "bufferView" : 3,
            "componentType" : 5123,
            "count" : 5130,
            "type" : "SCALAR"
        },
        {
            "bufferView" : 4,
            "componentType" : 5126,
            "count" : 1353,
            "max" : [
                0.185536727309227,
                0.9635065793991089,
                0.25132453441619873
            ],
            "min" : [
                -0.185536727309227,
                -3.725290298461914e-09,
                -0.18397314846515656
            ],
            "type" : "VEC3"
        },
        {
            "bufferView" : 5,
            "componentType" : 5126,
            "count" : 1353,
            "type" : "VEC3"
        },
        {
            "bufferView" : 6,
            "componentType" : 5126,
            "count" : 1353,
            "type" : "VEC2"
        },
        {
            "bufferView" : 7,
            "componentType" : 5123,
            "count" : 5142,
            "type" : "SCALAR"
        },
        {
            "bufferView" : 8,
            "componentType" : 5126,
            "count" : 1225,
            "max" : [
                0.17685073614120483,
                0.7787298560142517,
                0.2505826950073242
            ],
            "min" : [
                -0.17682456970214844,
                0.019999997690320015,
                -0.14326967298984528
            ],
            "type" : "VEC3"
        },
        {
            "bufferView" : 9,
            "componentType" : 5126,
            "count" : 1225,
            "type" : "VEC3"
        },
        {
            "bufferView" : 10,
            "componentType" : 5126,
            "count" : 1225,
            "type" : "VEC2"
        },
        {
            "bufferView" : 11,
            "componentType" : 5123,
            "count" : 3447,
            "type" : "SCALAR"
        }
    ],
    "bufferViews" : [
        {
            "buffer" : 0,
            "byteLength" : 13104,
            "byteOffset" : 0,
            "target" : 34962
        },
        {
            "buffer" : 0,
            "byteLength" : 13104,
            "byteOffset" : 13104,
            "target" : 34962
        },
        {
            "buffer" : 0,
            "byteLength" : 8736,
            "byteOffset" : 26208,
            "target" : 34962
        },
        {
            "buffer" : 0,
            "byteLength" : 10260,
            "byteOffset" : 34944,
            "target" : 34963
        },
        {
            "buffer" : 0,
            "byteLength" : 16236,
            "byteOffset" : 45204,
            "target" : 34962
        },
        {
            "buffer" : 0,
            "byteLength" : 16236,
            "byteOffset" : 61440,
            "target" : 34962
        },
        {
            "buffer" : 0,
            "byteLength" : 10824,
            "byteOffset" : 77676,
            "target" : 34962
        },
        {
            "buffer" : 0,
            "byteLength" : 10284,
            "byteOffset" : 88500,
            "target" : 34963
        },
        {
            "buffer" : 0,
            "byteLength" : 14700,
            "byteOffset" : 98784,
            "target" : 34962
        },
        {
            "buffer" : 0,
            "byteLength" : 14700,
            "byteOffset" : 113484,
            "target" : 34962
        },
        {
            "buffer" : 0,
            "byteLength" : 9800,
            "byteOffset" : 128184,
            "target" : 34962
        },
        {
            "buffer" : 0,
            "byteLength" : 6894,
            "byteOffset" : 137984,
            "target" : 34963
        }
    ],
    "samplers" : [
        {
            "magFilter" : 9729,
            "minFilter" : 9987
        }
    ],
    "buffers" : [
        {
            "byteLength" : 144880,
            "uri" : "stool2.bin"
        }
    ]
}
