{
    "asset" : {
        "generator" : "Khronos glTF Blender I/O v3.3.27",
        "version" : "2.0"
    },
    "scene" : 0,
    "scenes" : [
        {
            "name" : "Scene",
            "nodes" : [
                0
            ]
        }
    ],
    "nodes" : [
        {
            "mesh" : 0,
            "name" : "Stella_Pump_029_Material #194_0"
        }
    ],
    "materials" : [
        {
            "doubleSided" : true,
            "name" : "jgrms",
            "pbrMetallicRoughness" : {
                "baseColorFactor" : [
                    0.5178320407867432,
                    0.5178320407867432,
                    0.5178320407867432,
                    1
                ],
                "metallicFactor" : 0.8858612775802612,
                "roughnessFactor" : 0.29938939213752747
            }
        },
        {
            "doubleSided" : true,
            "name" : "Bar_outer",
            "normalTexture" : {
                "index" : 0
            },
            "pbrMetallicRoughness" : {
                "baseColorTexture" : {
                    "index" : 1
                },
                "metallicFactor" : 0,
                "roughnessFactor" : 0.6000000238418579
            }
        },
        {
            "doubleSided" : true,
            "name" : "jgrms.001",
            "pbrMetallicRoughness" : {
                "baseColorFactor" : [
                    0.5178320407867432,
                    0.5178320407867432,
                    0.5178320407867432,
                    1
                ],
                "metallicFactor" : 0.8858612775802612,
                "roughnessFactor" : 0.29938939213752747
            }
        }
    ],
    "meshes" : [
        {
            "name" : "Stella_Pump_029_Material #194_0",
            "primitives" : [
                {
                    "attributes" : {
                        "POSITION" : 0,
                        "NORMAL" : 1,
                        "TEXCOORD_0" : 2
                    },
                    "indices" : 3,
                    "material" : 0
                },
                {
                    "attributes" : {
                        "POSITION" : 4,
                        "NORMAL" : 5,
                        "TEXCOORD_0" : 6
                    },
                    "indices" : 7,
                    "material" : 1
                },
                {
                    "attributes" : {
                        "POSITION" : 8,
                        "NORMAL" : 9,
                        "TEXCOORD_0" : 10
                    },
                    "indices" : 11,
                    "material" : 2
                }
            ]
        }
    ],
    "textures" : [
        {
            "sampler" : 0,
            "source" : 0
        },
        {
            "sampler" : 0,
            "source" : 1
        }
    ],
    "images" : [
        {
            "mimeType" : "image/png",
            "name" : "Bar_outer_normal",
            "uri" : "Bar_outer_normal.png"
        },
        {
            "mimeType" : "image/png",
            "name" : "BarTap",
            "uri" : "BarTap.png"
        }
    ],
    "accessors" : [
        {
            "bufferView" : 0,
            "componentType" : 5126,
            "count" : 622,
            "max" : [
                3.1751708984375,
                27.52376937866211,
                9.036346435546875
            ],
            "min" : [
                -3.12860107421875,
                0.027379989624023438,
                -3.143264055252075
            ],
            "type" : "VEC3"
        },
        {
            "bufferView" : 1,
            "componentType" : 5126,
            "count" : 622,
            "type" : "VEC3"
        },
        {
            "bufferView" : 2,
            "componentType" : 5126,
            "count" : 622,
            "type" : "VEC2"
        },
        {
            "bufferView" : 3,
            "componentType" : 5123,
            "count" : 1929,
            "type" : "SCALAR"
        },
        {
            "bufferView" : 4,
            "componentType" : 5126,
            "count" : 739,
            "max" : [
                1.2978515625,
                11.461957931518555,
                4.9011311531066895
            ],
            "min" : [
                -1.251312255859375,
                -0.41340160369873047,
                -4.411050796508789
            ],
            "type" : "VEC3"
        },
        {
            "bufferView" : 5,
            "componentType" : 5126,
            "count" : 739,
            "type" : "VEC3"
        },
        {
            "bufferView" : 6,
            "componentType" : 5126,
            "count" : 739,
            "type" : "VEC2"
        },
        {
            "bufferView" : 7,
            "componentType" : 5123,
            "count" : 2574,
            "type" : "SCALAR"
        },
        {
            "bufferView" : 8,
            "componentType" : 5126,
            "count" : 52,
            "max" : [
                1.263153076171875,
                13.083395004272461,
                -0.3547826409339905
            ],
            "min" : [
                -1.216064453125,
                11.366903305053711,
                -1.2772448062896729
            ],
            "type" : "VEC3"
        },
        {
            "bufferView" : 9,
            "componentType" : 5126,
            "count" : 52,
            "type" : "VEC3"
        },
        {
            "bufferView" : 10,
            "componentType" : 5126,
            "count" : 52,
            "type" : "VEC2"
        },
        {
            "bufferView" : 11,
            "componentType" : 5123,
            "count" : 180,
            "type" : "SCALAR"
        }
    ],
    "bufferViews" : [
        {
            "buffer" : 0,
            "byteLength" : 7464,
            "byteOffset" : 0,
            "target" : 34962
        },
        {
            "buffer" : 0,
            "byteLength" : 7464,
            "byteOffset" : 7464,
            "target" : 34962
        },
        {
            "buffer" : 0,
            "byteLength" : 4976,
            "byteOffset" : 14928,
            "target" : 34962
        },
        {
            "buffer" : 0,
            "byteLength" : 3858,
            "byteOffset" : 19904,
            "target" : 34963
        },
        {
            "buffer" : 0,
            "byteLength" : 8868,
            "byteOffset" : 23764,
            "target" : 34962
        },
        {
            "buffer" : 0,
            "byteLength" : 8868,
            "byteOffset" : 32632,
            "target" : 34962
        },
        {
            "buffer" : 0,
            "byteLength" : 5912,
            "byteOffset" : 41500,
            "target" : 34962
        },
        {
            "buffer" : 0,
            "byteLength" : 5148,
            "byteOffset" : 47412,
            "target" : 34963
        },
        {
            "buffer" : 0,
            "byteLength" : 624,
            "byteOffset" : 52560,
            "target" : 34962
        },
        {
            "buffer" : 0,
            "byteLength" : 624,
            "byteOffset" : 53184,
            "target" : 34962
        },
        {
            "buffer" : 0,
            "byteLength" : 416,
            "byteOffset" : 53808,
            "target" : 34962
        },
        {
            "buffer" : 0,
            "byteLength" : 360,
            "byteOffset" : 54224,
            "target" : 34963
        }
    ],
    "samplers" : [
        {
            "magFilter" : 9729,
            "minFilter" : 9987
        }
    ],
    "buffers" : [
        {
            "byteLength" : 54584,
            "uri" : "tap.bin"
        }
    ]
}
