{
    "asset" : {
        "generator" : "Khronos glTF Blender I/O v3.3.27",
        "version" : "2.0"
    },
    "scene" : 0,
    "scenes" : [
        {
            "name" : "Scene",
            "nodes" : [
                2,
                5,
                8,
                11,
                15,
                18,
                21
            ]
        }
    ],
    "nodes" : [
        {
            "name" : "Cylinder",
            "scale" : [
                2.326849937438965,
                2.326849937438965,
                3.2270102500915527
            ]
        },
        {
            "children" : [
                0
            ],
            "name" : "Root"
        },
        {
            "children" : [
                1
            ],
            "name" : "Sketchfab_model",
            "rotation" : [
                -0.7071068286895752,
                0,
                0,
                0.7071067094802856
            ]
        },
        {
            "name" : "Cylinder.001",
            "scale" : [
                2.326849937438965,
                2.326849937438965,
                3.2270102500915527
            ]
        },
        {
            "children" : [
                3
            ],
            "name" : "Root.001"
        },
        {
            "children" : [
                4
            ],
            "name" : "Sketchfab_model.001",
            "rotation" : [
                -0.7071068286895752,
                0,
                0,
                0.7071067094802856
            ],
            "translation" : [
                6.332484245300293,
                0,
                0
            ]
        },
        {
            "name" : "Cylinder.002",
            "scale" : [
                2.326849937438965,
                2.326849937438965,
                3.2270102500915527
            ]
        },
        {
            "children" : [
                6
            ],
            "name" : "Root.002"
        },
        {
            "children" : [
                7
            ],
            "name" : "Sketchfab_model.002",
            "rotation" : [
                -0.7071068286895752,
                0,
                0,
                0.7071067094802856
            ],
            "translation" : [
                13.376103401184082,
                0,
                0
            ]
        },
        {
            "name" : "Cylinder.003",
            "scale" : [
                2.326849937438965,
                2.326849937438965,
                3.2270102500915527
            ]
        },
        {
            "children" : [
                9
            ],
            "name" : "Root.003"
        },
        {
            "children" : [
                10
            ],
            "name" : "Sketchfab_model.003",
            "rotation" : [
                -0.7071068286895752,
                0,
                0,
                0.7071067094802856
            ],
            "translation" : [
                6,
                0,
                0
            ]
        },
        {
            "mesh" : 0,
            "name" : "Cylinder_0.002",
            "rotation" : [
                0,
                0,
                -0.47726312279701233,
                0.8787604570388794
            ]
        },
        {
            "children" : [
                12
            ],
            "name" : "Cylinder.004",
            "scale" : [
                2.326849937438965,
                2.326849937438965,
                3.2270102500915527
            ]
        },
        {
            "children" : [
                13
            ],
            "name" : "Root.004"
        },
        {
            "children" : [
                14
            ],
            "name" : "Sketchfab_model.004",
            "rotation" : [
                -0.7071068286895752,
                0,
                0,
                0.7071067094802856
            ],
            "translation" : [
                12,
                0,
                0
            ]
        },
        {
            "name" : "Cylinder.005",
            "scale" : [
                2.326849937438965,
                2.326849937438965,
                3.2270102500915527
            ]
        },
        {
            "children" : [
                16
            ],
            "name" : "Root.005"
        },
        {
            "children" : [
                17
            ],
            "name" : "Sketchfab_model.005",
            "rotation" : [
                -0.7071068286895752,
                0,
                0,
                0.7071067094802856
            ],
            "translation" : [
                -6,
                0,
                0
            ]
        },
        {
            "name" : "Cylinder.006",
            "scale" : [
                2.326849937438965,
                2.326849937438965,
                3.2270102500915527
            ]
        },
        {
            "children" : [
                19
            ],
            "name" : "Root.006"
        },
        {
            "children" : [
                20
            ],
            "name" : "Sketchfab_model.006",
            "rotation" : [
                -0.7071068286895752,
                0,
                0,
                0.7071067094802856
            ],
            "translation" : [
                -12,
                0,
                0
            ]
        }
    ],
    "materials" : [
        {
            "doubleSided" : true,
            "name" : "Material.005",
            "normalTexture" : {
                "index" : 0
            },
            "pbrMetallicRoughness" : {
                "baseColorTexture" : {
                    "index" : 1
                },
                "metallicFactor" : 0.6785442233085632,
                "metallicRoughnessTexture" : {
                    "index" : 2
                },
                "roughnessFactor" : 0.3431783616542816
            }
        },
        {
            "doubleSided" : true,
            "name" : "Material.004",
            "normalTexture" : {
                "index" : 3
            },
            "pbrMetallicRoughness" : {
                "baseColorTexture" : {
                    "index" : 4
                },
                "metallicFactor" : 0.6785442233085632,
                "metallicRoughnessTexture" : {
                    "index" : 5
                },
                "roughnessFactor" : 0.3431783616542816
            }
        },
        {
            "doubleSided" : true,
            "name" : "Material.006",
            "normalTexture" : {
                "index" : 6
            },
            "pbrMetallicRoughness" : {
                "baseColorTexture" : {
                    "index" : 7
                },
                "metallicFactor" : 0.6785442233085632,
                "metallicRoughnessTexture" : {
                    "index" : 8
                },
                "roughnessFactor" : 0.3431783616542816
            }
        },
        {
            "doubleSided" : true,
            "name" : "Material.007",
            "normalTexture" : {
                "index" : 9
            },
            "pbrMetallicRoughness" : {
                "baseColorTexture" : {
                    "index" : 10
                },
                "metallicFactor" : 0.6785442233085632,
                "metallicRoughnessTexture" : {
                    "index" : 11
                },
                "roughnessFactor" : 0.3431783616542816
            }
        },
        {
            "doubleSided" : true,
            "name" : "Material.001",
            "normalTexture" : {
                "index" : 12
            },
            "pbrMetallicRoughness" : {
                "baseColorTexture" : {
                    "index" : 13
                },
                "metallicFactor" : 0.6785442233085632,
                "metallicRoughnessTexture" : {
                    "index" : 14
                },
                "roughnessFactor" : 0.3431783616542816
            }
        }
    ],
    "meshes" : [
        {
            "name" : "Cylinder_0.004",
            "primitives" : [
                {
                    "attributes" : {
                        "POSITION" : 0,
                        "NORMAL" : 1,
                        "TEXCOORD_0" : 2
                    },
                    "indices" : 3,
                    "material" : 0
                },
                {
                    "attributes" : {
                        "POSITION" : 4,
                        "NORMAL" : 5,
                        "TEXCOORD_0" : 6
                    },
                    "indices" : 3,
                    "material" : 1
                },
                {
                    "attributes" : {
                        "POSITION" : 7,
                        "NORMAL" : 8,
                        "TEXCOORD_0" : 9
                    },
                    "indices" : 3,
                    "material" : 2
                },
                {
                    "attributes" : {
                        "POSITION" : 10,
                        "NORMAL" : 11,
                        "TEXCOORD_0" : 12
                    },
                    "indices" : 3,
                    "material" : 3
                },
                {
                    "attributes" : {
                        "POSITION" : 13,
                        "NORMAL" : 14,
                        "TEXCOORD_0" : 15
                    },
                    "indices" : 3,
                    "material" : 4
                }
            ]
        }
    ],
    "textures" : [
        {
            "sampler" : 0,
            "source" : 0
        },
        {
            "sampler" : 0,
            "source" : 1
        },
        {
            "sampler" : 0,
            "source" : 2
        },
        {
            "sampler" : 0,
            "source" : 0
        },
        {
            "sampler" : 0,
            "source" : 1
        },
        {
            "sampler" : 0,
            "source" : 2
        },
        {
            "sampler" : 0,
            "source" : 0
        },
        {
            "sampler" : 0,
            "source" : 1
        },
        {
            "sampler" : 0,
            "source" : 2
        },
        {
            "sampler" : 0,
            "source" : 0
        },
        {
            "sampler" : 0,
            "source" : 1
        },
        {
            "sampler" : 0,
            "source" : 2
        },
        {
            "sampler" : 0,
            "source" : 0
        },
        {
            "sampler" : 0,
            "source" : 1
        },
        {
            "sampler" : 0,
            "source" : 2
        }
    ],
    "images" : [
        {
            "mimeType" : "image/png",
            "name" : "Material_001_normal",
            "uri" : "Material_001_normal.png"
        },
        {
            "mimeType" : "image/jpeg",
            "name" : "Material_001_baseColor",
            "uri" : "Material_001_baseColor.jpg"
        },
        {
            "mimeType" : "image/png",
            "name" : "Material_001_metallicRoughness",
            "uri" : "Material_001_metallicRoughness.png"
        }
    ],
    "accessors" : [
        {
            "bufferView" : 0,
            "componentType" : 5126,
            "count" : 576,
            "max" : [
                0.9945200085639954,
                1,
                1.3132799863815308
            ],
            "min" : [
                -0.9945200085639954,
                -1,
                -1.408519983291626
            ],
            "type" : "VEC3"
        },
        {
            "bufferView" : 1,
            "componentType" : 5126,
            "count" : 576,
            "type" : "VEC3"
        },
        {
            "bufferView" : 2,
            "componentType" : 5126,
            "count" : 576,
            "type" : "VEC2"
        },
        {
            "bufferView" : 3,
            "componentType" : 5123,
            "count" : 2508,
            "type" : "SCALAR"
        },
        {
            "bufferView" : 4,
            "componentType" : 5126,
            "count" : 576,
            "max" : [
                -0.4052666425704956,
                -1.1642775535583496,
                1.3132798671722412
            ],
            "min" : [
                -2.4025111198425293,
                -3.161569118499756,
                -1.4085203409194946
            ],
            "type" : "VEC3"
        },
        {
            "bufferView" : 5,
            "componentType" : 5126,
            "count" : 576,
            "type" : "VEC3"
        },
        {
            "bufferView" : 6,
            "componentType" : 5126,
            "count" : 576,
            "type" : "VEC2"
        },
        {
            "bufferView" : 7,
            "componentType" : 5126,
            "count" : 576,
            "max" : [
                -3.2119741439819336,
                -5.491946220397949,
                1.313279151916504
            ],
            "min" : [
                -5.211359977722168,
                -7.485595703125,
                -1.4085208177566528
            ],
            "type" : "VEC3"
        },
        {
            "bufferView" : 8,
            "componentType" : 5126,
            "count" : 576,
            "type" : "VEC3"
        },
        {
            "bufferView" : 9,
            "componentType" : 5126,
            "count" : 576,
            "type" : "VEC2"
        },
        {
            "bufferView" : 10,
            "componentType" : 5126,
            "count" : 576,
            "max" : [
                -4.616934299468994,
                -7.653049468994141,
                1.3132790327072144
            ],
            "min" : [
                -6.6141791343688965,
                -9.650341033935547,
                -1.4085211753845215
            ],
            "type" : "VEC3"
        },
        {
            "bufferView" : 11,
            "componentType" : 5126,
            "count" : 576,
            "type" : "VEC3"
        },
        {
            "bufferView" : 12,
            "componentType" : 5126,
            "count" : 576,
            "type" : "VEC2"
        },
        {
            "bufferView" : 13,
            "componentType" : 5126,
            "count" : 576,
            "max" : [
                -1.8092801570892334,
                -3.3270936012268066,
                1.313279628753662
            ],
            "min" : [
                -3.8062760829925537,
                -5.324600696563721,
                -1.4085208177566528
            ],
            "type" : "VEC3"
        },
        {
            "bufferView" : 14,
            "componentType" : 5126,
            "count" : 576,
            "type" : "VEC3"
        },
        {
            "bufferView" : 15,
            "componentType" : 5126,
            "count" : 576,
            "type" : "VEC2"
        }
    ],
    "bufferViews" : [
        {
            "buffer" : 0,
            "byteLength" : 6912,
            "byteOffset" : 0,
            "target" : 34962
        },
        {
            "buffer" : 0,
            "byteLength" : 6912,
            "byteOffset" : 6912,
            "target" : 34962
        },
        {
            "buffer" : 0,
            "byteLength" : 4608,
            "byteOffset" : 13824,
            "target" : 34962
        },
        {
            "buffer" : 0,
            "byteLength" : 5016,
            "byteOffset" : 18432,
            "target" : 34963
        },
        {
            "buffer" : 0,
            "byteLength" : 6912,
            "byteOffset" : 23448,
            "target" : 34962
        },
        {
            "buffer" : 0,
            "byteLength" : 6912,
            "byteOffset" : 30360,
            "target" : 34962
        },
        {
            "buffer" : 0,
            "byteLength" : 4608,
            "byteOffset" : 37272,
            "target" : 34962
        },
        {
            "buffer" : 0,
            "byteLength" : 6912,
            "byteOffset" : 41880,
            "target" : 34962
        },
        {
            "buffer" : 0,
            "byteLength" : 6912,
            "byteOffset" : 48792,
            "target" : 34962
        },
        {
            "buffer" : 0,
            "byteLength" : 4608,
            "byteOffset" : 55704,
            "target" : 34962
        },
        {
            "buffer" : 0,
            "byteLength" : 6912,
            "byteOffset" : 60312,
            "target" : 34962
        },
        {
            "buffer" : 0,
            "byteLength" : 6912,
            "byteOffset" : 67224,
            "target" : 34962
        },
        {
            "buffer" : 0,
            "byteLength" : 4608,
            "byteOffset" : 74136,
            "target" : 34962
        },
        {
            "buffer" : 0,
            "byteLength" : 6912,
            "byteOffset" : 78744,
            "target" : 34962
        },
        {
            "buffer" : 0,
            "byteLength" : 6912,
            "byteOffset" : 85656,
            "target" : 34962
        },
        {
            "buffer" : 0,
            "byteLength" : 4608,
            "byteOffset" : 92568,
            "target" : 34962
        }
    ],
    "samplers" : [
        {
            "magFilter" : 9729,
            "minFilter" : 9987
        }
    ],
    "buffers" : [
        {
            "byteLength" : 97176,
            "uri" : "can_edited_5.bin"
        }
    ]
}
