{
    "asset" : {
        "generator" : "Khronos glTF Blender I/O v3.3.27",
        "version" : "2.0"
    },
    "scene" : 0,
    "scenes" : [
        {
            "name" : "Scene",
            "nodes" : [
                17,
                33,
                50
            ]
        }
    ],
    "nodes" : [
        {
            "name" : "Object_4",
            "translation" : [
                1.2159347534179688e-05,
                0,
                -2.297228320458089e-06
            ]
        },
        {
            "children" : [
                0
            ],
            "name" : "Camera 1",
            "rotation" : [
                -0.05516267567873001,
                0.4190027117729187,
                -0.11829694360494614,
                0.8985542058944702
            ],
            "translation" : [
                -12.505901336669922,
                7.2131500244140625,
                14.904000282287598
            ]
        },
        {
            "name" : "VINUM EXTREME CHARDONNAY.003",
            "translation" : [
                0,
                0,
                1.52587890625e-05
            ]
        },
        {
            "children" : [
                2
            ],
            "name" : "VINUM EXTREME CHARDONNAY.002",
            "translation" : [
                0,
                0,
                1.52587890625e-05
            ]
        },
        {
            "children" : [
                3
            ],
            "name" : "VINUM EXTREME CHARDONNAY.001",
            "translation" : [
                0,
                0,
                1.52587890625e-05
            ]
        },
        {
            "children" : [
                4
            ],
            "name" : "VINUM EXTREME CHARDONNAY",
            "translation" : [
                0,
                0,
                156.38499450683594
            ]
        },
        {
            "name" : "vitis cabernet.003"
        },
        {
            "children" : [
                6
            ],
            "name" : "vitis cabernet.002"
        },
        {
            "children" : [
                7
            ],
            "name" : "vitis cabernet.001"
        },
        {
            "children" : [
                8
            ],
            "name" : "vitis cabernet"
        },
        {
            "name" : "VITIS RIESLING.003",
            "translation" : [
                0,
                0,
                -1.52587890625e-05
            ]
        },
        {
            "children" : [
                10
            ],
            "name" : "VITIS RIESLING.002",
            "translation" : [
                0,
                0,
                -1.52587890625e-05
            ]
        },
        {
            "children" : [
                11
            ],
            "name" : "VITIS RIESLING.001",
            "translation" : [
                0,
                0,
                -1.52587890625e-05
            ]
        },
        {
            "children" : [
                12
            ],
            "name" : "VITIS RIESLING",
            "translation" : [
                0,
                0,
                -148.74600219726562
            ]
        },
        {
            "children" : [
                5,
                9,
                13
            ],
            "name" : "Default"
        },
        {
            "children" : [
                1,
                14
            ],
            "name" : "RootNode"
        },
        {
            "children" : [
                15
            ],
            "name" : "2b863841e21a48b585e41ebf8bda80c8.fbx",
            "rotation" : [
                0.7071068286895752,
                0,
                0,
                0.7071067094802856
            ]
        },
        {
            "children" : [
                16
            ],
            "name" : "Sketchfab_model",
            "rotation" : [
                -0.7071068286895752,
                0,
                0,
                0.7071067094802856
            ],
            "translation" : [
                -60.14444351196289,
                0,
                0
            ]
        },
        {
            "name" : "VINUM EXTREME CHARDONNAY.004",
            "translation" : [
                0,
                0,
                1.52587890625e-05
            ]
        },
        {
            "children" : [
                18
            ],
            "name" : "VINUM EXTREME CHARDONNAY.005",
            "translation" : [
                0,
                0,
                1.52587890625e-05
            ]
        },
        {
            "children" : [
                19
            ],
            "name" : "VINUM EXTREME CHARDONNAY.006",
            "translation" : [
                0,
                0,
                1.52587890625e-05
            ]
        },
        {
            "children" : [
                20
            ],
            "name" : "VINUM EXTREME CHARDONNAY.007",
            "translation" : [
                0,
                0,
                156.38499450683594
            ]
        },
        {
            "name" : "vitis cabernet.004"
        },
        {
            "children" : [
                22
            ],
            "name" : "vitis cabernet.005"
        },
        {
            "children" : [
                23
            ],
            "name" : "vitis cabernet.006"
        },
        {
            "children" : [
                24
            ],
            "name" : "vitis cabernet.007"
        },
        {
            "name" : "VITIS RIESLING.004",
            "translation" : [
                0,
                0,
                -1.52587890625e-05
            ]
        },
        {
            "children" : [
                26
            ],
            "name" : "VITIS RIESLING.005",
            "translation" : [
                0,
                0,
                -1.52587890625e-05
            ]
        },
        {
            "children" : [
                27
            ],
            "name" : "VITIS RIESLING.006",
            "translation" : [
                0,
                0,
                -1.52587890625e-05
            ]
        },
        {
            "children" : [
                28
            ],
            "name" : "VITIS RIESLING.007",
            "translation" : [
                0,
                0,
                -148.74600219726562
            ]
        },
        {
            "children" : [
                21,
                25,
                29
            ],
            "name" : "Default.001"
        },
        {
            "children" : [
                30
            ],
            "name" : "RootNode.001"
        },
        {
            "children" : [
                31
            ],
            "name" : "2b863841e21a48b585e41ebf8bda80c8.fbx.001",
            "rotation" : [
                0.7071068286895752,
                0,
                0,
                0.7071067094802856
            ]
        },
        {
            "children" : [
                32
            ],
            "name" : "Sketchfab_model.001",
            "rotation" : [
                -0.7071068286895752,
                0,
                0,
                0.7071067094802856
            ],
            "translation" : [
                60.79115676879883,
                0,
                0
            ]
        },
        {
            "name" : "VINUM EXTREME CHARDONNAY.008",
            "translation" : [
                0,
                0,
                1.52587890625e-05
            ]
        },
        {
            "children" : [
                34
            ],
            "name" : "VINUM EXTREME CHARDONNAY.009",
            "translation" : [
                0,
                0,
                1.52587890625e-05
            ]
        },
        {
            "children" : [
                35
            ],
            "name" : "VINUM EXTREME CHARDONNAY.010",
            "translation" : [
                0,
                0,
                1.52587890625e-05
            ]
        },
        {
            "children" : [
                36
            ],
            "name" : "VINUM EXTREME CHARDONNAY.011",
            "translation" : [
                0,
                0,
                156.38499450683594
            ]
        },
        {
            "mesh" : 0,
            "name" : "vitis cabernet_Glass Basic White_0.001",
            "rotation" : [
                0,
                0,
                -1,
                4.371138828673793e-08
            ],
            "translation" : [
                0,
                259.9791259765625,
                0
            ]
        },
        {
            "children" : [
                38
            ],
            "name" : "vitis cabernet.008"
        },
        {
            "children" : [
                39
            ],
            "name" : "vitis cabernet.009"
        },
        {
            "children" : [
                40
            ],
            "name" : "vitis cabernet.010"
        },
        {
            "children" : [
                41
            ],
            "name" : "vitis cabernet.011"
        },
        {
            "name" : "VITIS RIESLING.008",
            "translation" : [
                0,
                0,
                -1.52587890625e-05
            ]
        },
        {
            "children" : [
                43
            ],
            "name" : "VITIS RIESLING.009",
            "translation" : [
                0,
                0,
                -1.52587890625e-05
            ]
        },
        {
            "children" : [
                44
            ],
            "name" : "VITIS RIESLING.010",
            "translation" : [
                0,
                0,
                -1.52587890625e-05
            ]
        },
        {
            "children" : [
                45
            ],
            "name" : "VITIS RIESLING.011",
            "translation" : [
                0,
                0,
                -148.74600219726562
            ]
        },
        {
            "children" : [
                37,
                42,
                46
            ],
            "name" : "Default.002"
        },
        {
            "children" : [
                47
            ],
            "name" : "RootNode.002"
        },
        {
            "children" : [
                48
            ],
            "name" : "2b863841e21a48b585e41ebf8bda80c8.fbx.002",
            "rotation" : [
                0.7071068286895752,
                0,
                0,
                0.7071067094802856
            ]
        },
        {
            "children" : [
                49
            ],
            "name" : "Sketchfab_model.002",
            "rotation" : [
                -0.7071068286895752,
                0,
                0,
                0.7071067094802856
            ],
            "translation" : [
                60.85806655883789,
                0,
                0
            ]
        }
    ],
    "materials" : [
        {
            "alphaMode" : "BLEND",
            "doubleSided" : true,
            "emissiveFactor" : [
                1,
                1,
                1
            ],
            "emissiveTexture" : {
                "index" : 0
            },
            "name" : "Cups.001",
            "normalTexture" : {
                "index" : 1
            },
            "pbrMetallicRoughness" : {
                "baseColorTexture" : {
                    "index" : 2
                },
                "metallicRoughnessTexture" : {
                    "index" : 3
                }
            }
        },
        {
            "alphaMode" : "BLEND",
            "doubleSided" : true,
            "emissiveFactor" : [
                1,
                1,
                1
            ],
            "emissiveTexture" : {
                "index" : 4
            },
            "name" : "Cups.003",
            "normalTexture" : {
                "index" : 5
            },
            "pbrMetallicRoughness" : {
                "baseColorTexture" : {
                    "index" : 6
                },
                "metallicRoughnessTexture" : {
                    "index" : 7
                }
            }
        }
    ],
    "meshes" : [
        {
            "name" : "vitis cabernet_Glass Basic White_0.002",
            "primitives" : [
                {
                    "attributes" : {
                        "POSITION" : 0,
                        "NORMAL" : 1,
                        "TEXCOORD_0" : 2
                    },
                    "indices" : 3,
                    "material" : 0
                },
                {
                    "attributes" : {
                        "POSITION" : 4,
                        "NORMAL" : 5,
                        "TEXCOORD_0" : 6
                    },
                    "indices" : 7,
                    "material" : 1
                }
            ]
        }
    ],
    "textures" : [
        {
            "sampler" : 0,
            "source" : 0
        },
        {
            "sampler" : 0,
            "source" : 1
        },
        {
            "sampler" : 0,
            "source" : 2
        },
        {
            "sampler" : 0,
            "source" : 3
        },
        {
            "sampler" : 0,
            "source" : 0
        },
        {
            "sampler" : 0,
            "source" : 1
        },
        {
            "sampler" : 0,
            "source" : 2
        },
        {
            "sampler" : 0,
            "source" : 3
        }
    ],
    "images" : [
        {
            "mimeType" : "image/jpeg",
            "name" : "Cups_emissive",
            "uri" : "Cups_emissive.jpg"
        },
        {
            "mimeType" : "image/png",
            "name" : "Cups_normal",
            "uri" : "Cups_normal.png"
        },
        {
            "mimeType" : "image/png",
            "name" : "Cups_baseColor",
            "uri" : "Cups_baseColor.png"
        },
        {
            "mimeType" : "image/png",
            "name" : "Cups_metallicRoughness",
            "uri" : "Cups_metallicRoughness.png"
        }
    ],
    "accessors" : [
        {
            "bufferView" : 0,
            "componentType" : 5126,
            "count" : 3382,
            "max" : [
                57.01799011230469,
                260.5038757324219,
                213.44659423828125
            ],
            "min" : [
                -56.78593444824219,
                0,
                -192.82235717773438
            ],
            "type" : "VEC3"
        },
        {
            "bufferView" : 1,
            "componentType" : 5126,
            "count" : 3382,
            "type" : "VEC3"
        },
        {
            "bufferView" : 2,
            "componentType" : 5126,
            "count" : 3382,
            "type" : "VEC2"
        },
        {
            "bufferView" : 3,
            "componentType" : 5123,
            "count" : 14610,
            "type" : "SCALAR"
        },
        {
            "bufferView" : 4,
            "componentType" : 5126,
            "count" : 3387,
            "max" : [
                178.0205078125,
                260.5038757324219,
                213.44659423828125
            ],
            "min" : [
                64.21658325195312,
                -5.257995326246601e-06,
                -192.82235717773438
            ],
            "type" : "VEC3"
        },
        {
            "bufferView" : 5,
            "componentType" : 5126,
            "count" : 3387,
            "type" : "VEC3"
        },
        {
            "bufferView" : 6,
            "componentType" : 5126,
            "count" : 3387,
            "type" : "VEC2"
        },
        {
            "bufferView" : 7,
            "componentType" : 5123,
            "count" : 14610,
            "type" : "SCALAR"
        }
    ],
    "bufferViews" : [
        {
            "buffer" : 0,
            "byteLength" : 40584,
            "byteOffset" : 0,
            "target" : 34962
        },
        {
            "buffer" : 0,
            "byteLength" : 40584,
            "byteOffset" : 40584,
            "target" : 34962
        },
        {
            "buffer" : 0,
            "byteLength" : 27056,
            "byteOffset" : 81168,
            "target" : 34962
        },
        {
            "buffer" : 0,
            "byteLength" : 29220,
            "byteOffset" : 108224,
            "target" : 34963
        },
        {
            "buffer" : 0,
            "byteLength" : 40644,
            "byteOffset" : 137444,
            "target" : 34962
        },
        {
            "buffer" : 0,
            "byteLength" : 40644,
            "byteOffset" : 178088,
            "target" : 34962
        },
        {
            "buffer" : 0,
            "byteLength" : 27096,
            "byteOffset" : 218732,
            "target" : 34962
        },
        {
            "buffer" : 0,
            "byteLength" : 29220,
            "byteOffset" : 245828,
            "target" : 34963
        }
    ],
    "samplers" : [
        {
            "magFilter" : 9729,
            "minFilter" : 9987
        }
    ],
    "buffers" : [
        {
            "byteLength" : 275048,
            "uri" : "wineglasses_3x2_texturefromglasses.bin"
        }
    ]
}
