{
  "accessors": [
    {
      "bufferView": 2,
      "componentType": 5126,
      "count": 213,
      "max": [
        1.5740489959716797,
        3.950735330581665,
        1.4255670309066772
      ],
      "min": [
        0.23019492626190186,
        -7.545010566711426,
        -1.440293788909912
      ],
      "type": "VEC3"
    },
    {
      "bufferView": 2,
      "byteOffset": 2556,
      "componentType": 5126,
      "count": 213,
      "max": [
        0.9936485290527344,
        1.0,
        0.9999448657035828
      ],
      "min": [
        -0.7696417570114136,
        -0.9437800645828247,
        -0.9903131127357483
      ],
      "type": "VEC3"
    },
    {
      "bufferView": 1,
      "componentType": 5126,
      "count": 213,
      "max": [
        0.65625,
        1.0
      ],
      "min": [
        0.375,
        1.4901161193847656e-08
      ],
      "type": "VEC2"
    },
    {
      "bufferView": 0,
      "componentType": 5125,
      "count": 366,
      "type": "SCALAR"
    },
    {
      "bufferView": 2,
      "byteOffset": 5112,
      "componentType": 5126,
      "count": 100,
      "max": [
        1.4603898525238037,
        3.0209827423095703,
        1.0501614809036255
      ],
      "min": [
        0.23019495606422424,
        -4.837657451629639,
        -1.1543606519699097
      ],
      "type": "VEC3"
    },
    {
      "bufferView": 2,
      "byteOffset": 6312,
      "componentType": 5126,
      "count": 100,
      "max": [
        0.9833930134773254,
        0.309536874294281,
        0.9556905031204224
      ],
      "min": [
        -4.811297458218178e-07,
        -0.8577914237976074,
        -0.9850884079933167
      ],
      "type": "VEC3"
    },
    {
      "bufferView": 1,
      "byteOffset": 1704,
      "componentType": 5126,
      "count": 100,
      "max": [
        0.65625,
        0.9860215187072754
      ],
      "min": [
        0.4951518774032593,
        -2.5873327103909105e-05
      ],
      "type": "VEC2"
    },
    {
      "bufferView": 0,
      "byteOffset": 1464,
      "componentType": 5125,
      "count": 174,
      "type": "SCALAR"
    },
    {
      "bufferView": 2,
      "byteOffset": 7512,
      "componentType": 5126,
      "count": 214,
      "max": [
        1.5740489959716797,
        3.950735330581665,
        1.4255670309066772
      ],
      "min": [
        0.23019492626190186,
        -7.545010566711426,
        -1.440293788909912
      ],
      "type": "VEC3"
    },
    {
      "bufferView": 2,
      "byteOffset": 10080,
      "componentType": 5126,
      "count": 214,
      "max": [
        0.9936485290527344,
        1.0,
        0.9999448657035828
      ],
      "min": [
        -0.7696417570114136,
        -0.9437800645828247,
        -0.9903131127357483
      ],
      "type": "VEC3"
    },
    {
      "bufferView": 1,
      "byteOffset": 2504,
      "componentType": 5126,
      "count": 214,
      "max": [
        0.65625,
        1.0
      ],
      "min": [
        0.375,
        1.4901161193847656e-08
      ],
      "type": "VEC2"
    },
    {
      "bufferView": 0,
      "byteOffset": 2160,
      "componentType": 5125,
      "count": 369,
      "type": "SCALAR"
    },
    {
      "bufferView": 2,
      "byteOffset": 12648,
      "componentType": 5126,
      "count": 97,
      "max": [
        1.4603898525238037,
        3.0209827423095703,
        0.9920254349708557
      ],
      "min": [
        0.23019495606422424,
        -4.837657451629639,
        -1.1543606519699097
      ],
      "type": "VEC3"
    },
    {
      "bufferView": 2,
      "byteOffset": 13812,
      "componentType": 5126,
      "count": 97,
      "max": [
        0.9833930134773254,
        0.309536874294281,
        0.9556905031204224
      ],
      "min": [
        -4.811297458218178e-07,
        -0.8577914237976074,
        -0.9850884079933167
      ],
      "type": "VEC3"
    },
    {
      "bufferView": 1,
      "byteOffset": 4216,
      "componentType": 5126,
      "count": 97,
      "max": [
        0.65625,
        0.9860215187072754
      ],
      "min": [
        0.4951518774032593,
        -2.5873327103909105e-05
      ],
      "type": "VEC2"
    },
    {
      "bufferView": 0,
      "byteOffset": 3636,
      "componentType": 5125,
      "count": 171,
      "type": "SCALAR"
    }
  ],
  "asset": {
    "extras": {
      "author": "SandW (https://sketchfab.com/SandW)",
      "license": "CC-BY-4.0 (http://creativecommons.org/licenses/by/4.0/)",
      "source": "https://sketchfab.com/3d-models/low-poly-clown-fish-2b87abcca38640189442d26a992e5db7",
      "title": "Low poly clown Fish"
    },
    "generator": "Sketchfab-12.67.0",
    "version": "2.0"
  },
  "bufferViews": [
    {
      "buffer": 0,
      "byteLength": 4320,
      "name": "floatBufferViews",
      "target": 34963
    },
    {
      "buffer": 0,
      "byteLength": 4992,
      "byteOffset": 4320,
      "byteStride": 8,
      "name": "floatBufferViews",
      "target": 34962
    },
    {
      "buffer": 0,
      "byteLength": 14976,
      "byteOffset": 9312,
      "byteStride": 12,
      "name": "floatBufferViews",
      "target": 34962
    }
  ],
  "buffers": [
    {
      "byteLength": 24288,
      "uri": "scene.bin"
    }
  ],
  "materials": [
    {
      "doubleSided": true,
      "name": "phong1",
      "pbrMetallicRoughness": {
        "baseColorFactor": [
          0.5783,
          0.1426,
          0.0,
          1.0
        ],
        "metallicFactor": 0.0
      }
    },
    {
      "doubleSided": true,
      "name": "phong2",
      "pbrMetallicRoughness": {
        "metallicFactor": 0.0
      }
    }
  ],
  "meshes": [
    {
      "name": "pCylinder1_phong1_0",
      "primitives": [
        {
          "attributes": {
            "NORMAL": 1,
            "POSITION": 0,
            "TEXCOORD_0": 2
          },
          "indices": 3,
          "material": 0,
          "mode": 4
        }
      ]
    },
    {
      "name": "pCylinder1_phong2_0",
      "primitives": [
        {
          "attributes": {
            "NORMAL": 5,
            "POSITION": 4,
            "TEXCOORD_0": 6
          },
          "indices": 7,
          "material": 1,
          "mode": 4
        }
      ]
    },
    {
      "name": "pCylinder2_phong1_0",
      "primitives": [
        {
          "attributes": {
            "NORMAL": 9,
            "POSITION": 8,
            "TEXCOORD_0": 10
          },
          "indices": 11,
          "material": 0,
          "mode": 4
        }
      ]
    },
    {
      "name": "pCylinder2_phong2_0",
      "primitives": [
        {
          "attributes": {
            "NORMAL": 13,
            "POSITION": 12,
            "TEXCOORD_0": 14
          },
          "indices": 15,
          "material": 1,
          "mode": 4
        }
      ]
    }
  ],
  "nodes": [
    {
      "children": [
        1
      ],
      "matrix": [
        1.0,
        0.0,
        0.0,
        0.0,
        0.0,
        2.220446049250313e-16,
        -1.0,
        0.0,
        0.0,
        1.0,
        2.220446049250313e-16,
        0.0,
        0.0,
        0.0,
        0.0,
        1.0
      ],
      "name": "Sketchfab_model"
    },
    {
      "children": [
        2
      ],
      "matrix": [
        1.0,
        0.0,
        0.0,
        0.0,
        0.0,
        0.0,
        1.0,
        0.0,
        0.0,
        -1.0,
        0.0,
        0.0,
        0.0,
        0.0,
        0.0,
        1.0
      ],
      "name": "c4110b4ab466474ba9b1345a2fa6dba5.fbx"
    },
    {
      "children": [
        3
      ],
      "name": "RootNode"
    },
    {
      "children": [
        4,
        7
      ],
      "name": "group1"
    },
    {
      "children": [
        5,
        6
      ],
      "matrix": [
        1.0,
        0.0,
        0.0,
        0.0,
        0.0,
        0.009217293709433916,
        0.9999575198460552,
        0.0,
        0.0,
        -2.03299826521808,
        0.018739538179751405,
        0.0,
        0.6203375458717346,
        0.11406844109296799,
        1.711026668548584,
        1.0
      ],
      "name": "pCylinder1"
    },
    {
      "mesh": 0,
      "name": "pCylinder1_phong1_0"
    },
    {
      "mesh": 1,
      "name": "pCylinder1_phong2_0"
    },
    {
      "children": [
        8,
        9
      ],
      "matrix": [
        -1.0,
        -0.0,
        -0.0,
        -0.0,
        -0.0,
        0.009217293709434138,
        0.9999575198460552,
        -0.0,
        -0.0,
        -2.03299826521808,
        0.018739538179751856,
        -0.0,
        1.0738846063613892,
        0.11406844109296799,
        1.711026668548584,
        1.0
      ],
      "name": "pCylinder2"
    },
    {
      "mesh": 2,
      "name": "pCylinder2_phong1_0"
    },
    {
      "mesh": 3,
      "name": "pCylinder2_phong2_0"
    }
  ],
  "scene": 0,
  "scenes": [
    {
      "name": "Sketchfab_Scene",
      "nodes": [
        0
      ]
    }
  ]
}
