{
    "asset" : {
        "generator" : "Khronos glTF Blender I/O v3.3.27",
        "version" : "2.0"
    },
    "scene" : 0,
    "scenes" : [
        {
            "name" : "Scene",
            "nodes" : [
                0
            ]
        }
    ],
    "nodes" : [
        {
            "mesh" : 0,
            "name" : "ivy leaf a 1-1.017_leaf a 1_0"
        }
    ],
    "materials" : [
        {
            "alphaCutoff" : 0.30000001192092896,
            "alphaMode" : "MASK",
            "doubleSided" : true,
            "emissiveFactor" : [
                0.15000000596046448,
                0.15000000596046448,
                0.15000000596046448
            ],
            "emissiveTexture" : {
                "index" : 0
            },
            "name" : "leaf_a_1",
            "normalTexture" : {
                "index" : 1
            },
            "pbrMetallicRoughness" : {
                "baseColorTexture" : {
                    "index" : 2
                },
                "metallicFactor" : 0,
                "roughnessFactor" : 0.6000000238418579
            }
        },
        {
            "alphaCutoff" : 0.30000001192092896,
            "alphaMode" : "MASK",
            "doubleSided" : true,
            "emissiveFactor" : [
                0.15000000596046448,
                0.15000000596046448,
                0.15000000596046448
            ],
            "emissiveTexture" : {
                "index" : 3
            },
            "name" : "leaf_a_2",
            "normalTexture" : {
                "index" : 4
            },
            "pbrMetallicRoughness" : {
                "baseColorTexture" : {
                    "index" : 5
                },
                "metallicFactor" : 0,
                "roughnessFactor" : 0.6000000238418579
            }
        },
        {
            "doubleSided" : true,
            "name" : "stem",
            "pbrMetallicRoughness" : {
                "baseColorTexture" : {
                    "index" : 6
                },
                "metallicFactor" : 0,
                "roughnessFactor" : 0.8040408492088318
            }
        }
    ],
    "meshes" : [
        {
            "name" : "ivy leaf a 1-1.017_leaf a 1_0",
            "primitives" : [
                {
                    "attributes" : {
                        "POSITION" : 0,
                        "NORMAL" : 1,
                        "TEXCOORD_0" : 2,
                        "TEXCOORD_1" : 3,
                        "TEXCOORD_2" : 4
                    },
                    "indices" : 5,
                    "material" : 0
                },
                {
                    "attributes" : {
                        "POSITION" : 6,
                        "NORMAL" : 7,
                        "TEXCOORD_0" : 8,
                        "TEXCOORD_1" : 9,
                        "TEXCOORD_2" : 10
                    },
                    "indices" : 11,
                    "material" : 1
                },
                {
                    "attributes" : {
                        "POSITION" : 12,
                        "NORMAL" : 13,
                        "TEXCOORD_0" : 14,
                        "TEXCOORD_1" : 15,
                        "TEXCOORD_2" : 16
                    },
                    "indices" : 17,
                    "material" : 2
                }
            ]
        }
    ],
    "textures" : [
        {
            "sampler" : 0,
            "source" : 0
        },
        {
            "sampler" : 0,
            "source" : 1
        },
        {
            "sampler" : 0,
            "source" : 2
        },
        {
            "sampler" : 0,
            "source" : 3
        },
        {
            "sampler" : 0,
            "source" : 4
        },
        {
            "sampler" : 0,
            "source" : 5
        },
        {
            "sampler" : 0,
            "source" : 6
        }
    ],
    "images" : [
        {
            "mimeType" : "image/png",
            "name" : "leaf_a_1_emissive",
            "uri" : "leaf_a_1_emissive.png"
        },
        {
            "mimeType" : "image/png",
            "name" : "leaf_a_1_normal",
            "uri" : "leaf_a_1_normal.png"
        },
        {
            "mimeType" : "image/png",
            "name" : "leaf_a_1_baseColor",
            "uri" : "leaf_a_1_baseColor.png"
        },
        {
            "mimeType" : "image/png",
            "name" : "leaf_a_2_emissive",
            "uri" : "leaf_a_2_emissive.png"
        },
        {
            "mimeType" : "image/png",
            "name" : "leaf_a_2_normal",
            "uri" : "leaf_a_2_normal.png"
        },
        {
            "mimeType" : "image/png",
            "name" : "leaf_a_2_baseColor",
            "uri" : "leaf_a_2_baseColor.png"
        },
        {
            "mimeType" : "image/jpeg",
            "name" : "stem_baseColor",
            "uri" : "stem_baseColor.jpg"
        }
    ],
    "accessors" : [
        {
            "bufferView" : 0,
            "componentType" : 5126,
            "count" : 2936,
            "max" : [
                13.572977066040039,
                18.95709991455078,
                13.41701889038086
            ],
            "min" : [
                -12.026886940002441,
                -38.94114685058594,
                -15.505523681640625
            ],
            "type" : "VEC3"
        },
        {
            "bufferView" : 1,
            "componentType" : 5126,
            "count" : 2936,
            "type" : "VEC3"
        },
        {
            "bufferView" : 2,
            "componentType" : 5126,
            "count" : 2936,
            "type" : "VEC2"
        },
        {
            "bufferView" : 3,
            "componentType" : 5126,
            "count" : 2936,
            "type" : "VEC2"
        },
        {
            "bufferView" : 4,
            "componentType" : 5126,
            "count" : 2936,
            "type" : "VEC2"
        },
        {
            "bufferView" : 5,
            "componentType" : 5123,
            "count" : 7515,
            "type" : "SCALAR"
        },
        {
            "bufferView" : 6,
            "componentType" : 5126,
            "count" : 3909,
            "max" : [
                14.324874877929688,
                20.140892028808594,
                12.312459945678711
            ],
            "min" : [
                -11.486878395080566,
                -39.22706604003906,
                -16.424697875976562
            ],
            "type" : "VEC3"
        },
        {
            "bufferView" : 7,
            "componentType" : 5126,
            "count" : 3909,
            "type" : "VEC3"
        },
        {
            "bufferView" : 8,
            "componentType" : 5126,
            "count" : 3909,
            "type" : "VEC2"
        },
        {
            "bufferView" : 9,
            "componentType" : 5126,
            "count" : 3909,
            "type" : "VEC2"
        },
        {
            "bufferView" : 10,
            "componentType" : 5126,
            "count" : 3909,
            "type" : "VEC2"
        },
        {
            "bufferView" : 11,
            "componentType" : 5123,
            "count" : 10932,
            "type" : "SCALAR"
        },
        {
            "bufferView" : 12,
            "componentType" : 5126,
            "count" : 574,
            "max" : [
                13.683694839477539,
                17.178375244140625,
                9.139111518859863
            ],
            "min" : [
                -10.56575870513916,
                -35.39802551269531,
                -13.409420013427734
            ],
            "type" : "VEC3"
        },
        {
            "bufferView" : 13,
            "componentType" : 5126,
            "count" : 574,
            "type" : "VEC3"
        },
        {
            "bufferView" : 14,
            "componentType" : 5126,
            "count" : 574,
            "type" : "VEC2"
        },
        {
            "bufferView" : 15,
            "componentType" : 5126,
            "count" : 574,
            "type" : "VEC2"
        },
        {
            "bufferView" : 16,
            "componentType" : 5126,
            "count" : 574,
            "type" : "VEC2"
        },
        {
            "bufferView" : 17,
            "componentType" : 5123,
            "count" : 1554,
            "type" : "SCALAR"
        }
    ],
    "bufferViews" : [
        {
            "buffer" : 0,
            "byteLength" : 35232,
            "byteOffset" : 0,
            "target" : 34962
        },
        {
            "buffer" : 0,
            "byteLength" : 35232,
            "byteOffset" : 35232,
            "target" : 34962
        },
        {
            "buffer" : 0,
            "byteLength" : 23488,
            "byteOffset" : 70464,
            "target" : 34962
        },
        {
            "buffer" : 0,
            "byteLength" : 23488,
            "byteOffset" : 93952,
            "target" : 34962
        },
        {
            "buffer" : 0,
            "byteLength" : 23488,
            "byteOffset" : 117440,
            "target" : 34962
        },
        {
            "buffer" : 0,
            "byteLength" : 15030,
            "byteOffset" : 140928,
            "target" : 34963
        },
        {
            "buffer" : 0,
            "byteLength" : 46908,
            "byteOffset" : 155960,
            "target" : 34962
        },
        {
            "buffer" : 0,
            "byteLength" : 46908,
            "byteOffset" : 202868,
            "target" : 34962
        },
        {
            "buffer" : 0,
            "byteLength" : 31272,
            "byteOffset" : 249776,
            "target" : 34962
        },
        {
            "buffer" : 0,
            "byteLength" : 31272,
            "byteOffset" : 281048,
            "target" : 34962
        },
        {
            "buffer" : 0,
            "byteLength" : 31272,
            "byteOffset" : 312320,
            "target" : 34962
        },
        {
            "buffer" : 0,
            "byteLength" : 21864,
            "byteOffset" : 343592,
            "target" : 34963
        },
        {
            "buffer" : 0,
            "byteLength" : 6888,
            "byteOffset" : 365456,
            "target" : 34962
        },
        {
            "buffer" : 0,
            "byteLength" : 6888,
            "byteOffset" : 372344,
            "target" : 34962
        },
        {
            "buffer" : 0,
            "byteLength" : 4592,
            "byteOffset" : 379232,
            "target" : 34962
        },
        {
            "buffer" : 0,
            "byteLength" : 4592,
            "byteOffset" : 383824,
            "target" : 34962
        },
        {
            "buffer" : 0,
            "byteLength" : 4592,
            "byteOffset" : 388416,
            "target" : 34962
        },
        {
            "buffer" : 0,
            "byteLength" : 3108,
            "byteOffset" : 393008,
            "target" : 34963
        }
    ],
    "samplers" : [
        {
            "magFilter" : 9729,
            "minFilter" : 9987
        }
    ],
    "buffers" : [
        {
            "byteLength" : 396116,
            "uri" : "ivy_decimate_nopot.bin"
        }
    ]
}
