{
    "asset" : {
        "generator" : "Khronos glTF Blender I/O v3.3.27",
        "version" : "2.0"
    },
    "scene" : 0,
    "scenes" : [
        {
            "name" : "Scene",
            "nodes" : [
                0
            ]
        }
    ],
    "nodes" : [
        {
            "mesh" : 0,
            "name" : "PaintBrush3_PaintBrush3_0",
            "rotation" : [
                -0.7408135533332825,
                -0.19498567283153534,
                0.16361252963542938,
                0.6216163635253906
            ],
            "scale" : [
                1.2699999809265137,
                1.2700003385543823,
                1.2700003385543823
            ],
            "translation" : [
                -6.0227512221899815e-06,
                6.93076229095459,
                0
            ]
        }
    ],
    "materials" : [
        {
            "name" : "PaintBrush3",
            "pbrMetallicRoughness" : {
                "baseColorTexture" : {
                    "index" : 0
                },
                "roughnessFactor" : 0.25
            }
        }
    ],
    "meshes" : [
        {
            "name" : "PaintBrush3_PaintBrush3_0",
            "primitives" : [
                {
                    "attributes" : {
                        "POSITION" : 0,
                        "NORMAL" : 1,
                        "TEXCOORD_0" : 2,
                        "TEXCOORD_1" : 3,
                        "TEXCOORD_2" : 4
                    },
                    "indices" : 5,
                    "material" : 0
                }
            ]
        }
    ],
    "textures" : [
        {
            "sampler" : 0,
            "source" : 0
        }
    ],
    "images" : [
        {
            "mimeType" : "image/png",
            "name" : "basecolor_copper",
            "uri" : "basecolor_copper.png"
        }
    ],
    "accessors" : [
        {
            "bufferView" : 0,
            "componentType" : 5126,
            "count" : 242,
            "max" : [
                2.1837873458862305,
                1.914604663848877,
                -3.242669105529785
            ],
            "min" : [
                -5.468829154968262,
                0.07781237363815308,
                -7.226737022399902
            ],
            "type" : "VEC3"
        },
        {
            "bufferView" : 1,
            "componentType" : 5126,
            "count" : 242,
            "type" : "VEC3"
        },
        {
            "bufferView" : 2,
            "componentType" : 5126,
            "count" : 242,
            "type" : "VEC2"
        },
        {
            "bufferView" : 3,
            "componentType" : 5126,
            "count" : 242,
            "type" : "VEC2"
        },
        {
            "bufferView" : 4,
            "componentType" : 5126,
            "count" : 242,
            "type" : "VEC2"
        },
        {
            "bufferView" : 5,
            "componentType" : 5123,
            "count" : 894,
            "type" : "SCALAR"
        }
    ],
    "bufferViews" : [
        {
            "buffer" : 0,
            "byteLength" : 2904,
            "byteOffset" : 0,
            "target" : 34962
        },
        {
            "buffer" : 0,
            "byteLength" : 2904,
            "byteOffset" : 2904,
            "target" : 34962
        },
        {
            "buffer" : 0,
            "byteLength" : 1936,
            "byteOffset" : 5808,
            "target" : 34962
        },
        {
            "buffer" : 0,
            "byteLength" : 1936,
            "byteOffset" : 7744,
            "target" : 34962
        },
        {
            "buffer" : 0,
            "byteLength" : 1936,
            "byteOffset" : 9680,
            "target" : 34962
        },
        {
            "buffer" : 0,
            "byteLength" : 1788,
            "byteOffset" : 11616,
            "target" : 34963
        }
    ],
    "samplers" : [
        {
            "magFilter" : 9729,
            "minFilter" : 9987
        }
    ],
    "buffers" : [
        {
            "byteLength" : 13404,
            "uri" : "brush_copper.bin"
        }
    ]
}
