{
    "asset" : {
        "generator" : "Khronos glTF Blender I/O v3.3.27",
        "version" : "2.0"
    },
    "scene" : 0,
    "scenes" : [
        {
            "name" : "Scene",
            "nodes" : [
                3,
                7,
                11,
                15,
                19,
                23,
                27,
                31,
                35,
                39,
                44
            ]
        }
    ],
    "nodes" : [
        {
            "name" : "polySurface17",
            "translation" : [
                0,
                48.87357711791992,
                0
            ]
        },
        {
            "children" : [
                0
            ],
            "name" : "RootNode"
        },
        {
            "children" : [
                1
            ],
            "name" : "ob_Marble railing.fbx",
            "rotation" : [
                0.7071068286895752,
                0,
                0,
                0.7071067094802856
            ]
        },
        {
            "children" : [
                2
            ],
            "name" : "Sketchfab_model",
            "rotation" : [
                -0.7071068286895752,
                0,
                0,
                0.7071067094802856
            ]
        },
        {
            "name" : "polySurface17.001",
            "translation" : [
                0,
                48.87357711791992,
                0
            ]
        },
        {
            "children" : [
                4
            ],
            "name" : "RootNode.001"
        },
        {
            "children" : [
                5
            ],
            "name" : "ob_Marble railing.fbx.001",
            "rotation" : [
                0.7071068286895752,
                0,
                0,
                0.7071067094802856
            ]
        },
        {
            "children" : [
                6
            ],
            "name" : "Sketchfab_model.001",
            "rotation" : [
                -0.7071068286895752,
                0,
                0,
                0.7071067094802856
            ]
        },
        {
            "name" : "polySurface17.002",
            "translation" : [
                0,
                48.87357711791992,
                0
            ]
        },
        {
            "children" : [
                8
            ],
            "name" : "RootNode.002"
        },
        {
            "children" : [
                9
            ],
            "name" : "ob_Marble railing.fbx.002",
            "rotation" : [
                0.7071068286895752,
                0,
                0,
                0.7071067094802856
            ]
        },
        {
            "children" : [
                10
            ],
            "name" : "Sketchfab_model.002",
            "rotation" : [
                -0.7071068286895752,
                0,
                0,
                0.7071067094802856
            ]
        },
        {
            "name" : "polySurface17.003",
            "translation" : [
                0,
                48.87357711791992,
                0
            ]
        },
        {
            "children" : [
                12
            ],
            "name" : "RootNode.003"
        },
        {
            "children" : [
                13
            ],
            "name" : "ob_Marble railing.fbx.003",
            "rotation" : [
                0.7071068286895752,
                0,
                0,
                0.7071067094802856
            ]
        },
        {
            "children" : [
                14
            ],
            "name" : "Sketchfab_model.003",
            "rotation" : [
                -0.7071068286895752,
                0,
                0,
                0.7071067094802856
            ]
        },
        {
            "name" : "polySurface17.004",
            "translation" : [
                0,
                48.87357711791992,
                0
            ]
        },
        {
            "children" : [
                16
            ],
            "name" : "RootNode.004"
        },
        {
            "children" : [
                17
            ],
            "name" : "ob_Marble railing.fbx.004",
            "rotation" : [
                0.7071068286895752,
                0,
                0,
                0.7071067094802856
            ]
        },
        {
            "children" : [
                18
            ],
            "name" : "Sketchfab_model.004",
            "rotation" : [
                -0.7071068286895752,
                0,
                0,
                0.7071067094802856
            ]
        },
        {
            "name" : "polySurface17.005",
            "translation" : [
                0,
                48.87357711791992,
                0
            ]
        },
        {
            "children" : [
                20
            ],
            "name" : "RootNode.005"
        },
        {
            "children" : [
                21
            ],
            "name" : "ob_Marble railing.fbx.005",
            "rotation" : [
                0.7071068286895752,
                0,
                0,
                0.7071067094802856
            ]
        },
        {
            "children" : [
                22
            ],
            "name" : "Sketchfab_model.005",
            "rotation" : [
                -0.7071068286895752,
                0,
                0,
                0.7071067094802856
            ]
        },
        {
            "name" : "polySurface17.006",
            "translation" : [
                0,
                48.87357711791992,
                0
            ]
        },
        {
            "children" : [
                24
            ],
            "name" : "RootNode.006"
        },
        {
            "children" : [
                25
            ],
            "name" : "ob_Marble railing.fbx.006",
            "rotation" : [
                0.7071068286895752,
                0,
                0,
                0.7071067094802856
            ]
        },
        {
            "children" : [
                26
            ],
            "name" : "Sketchfab_model.006",
            "rotation" : [
                -0.7071068286895752,
                0,
                0,
                0.7071067094802856
            ]
        },
        {
            "name" : "polySurface17.007",
            "translation" : [
                0,
                48.87357711791992,
                0
            ]
        },
        {
            "children" : [
                28
            ],
            "name" : "RootNode.007"
        },
        {
            "children" : [
                29
            ],
            "name" : "ob_Marble railing.fbx.007",
            "rotation" : [
                0.7071068286895752,
                0,
                0,
                0.7071067094802856
            ]
        },
        {
            "children" : [
                30
            ],
            "name" : "Sketchfab_model.007",
            "rotation" : [
                -0.7071068286895752,
                0,
                0,
                0.7071067094802856
            ]
        },
        {
            "name" : "polySurface17.008",
            "translation" : [
                0,
                48.87357711791992,
                0
            ]
        },
        {
            "children" : [
                32
            ],
            "name" : "RootNode.008"
        },
        {
            "children" : [
                33
            ],
            "name" : "ob_Marble railing.fbx.008",
            "rotation" : [
                0.7071068286895752,
                0,
                0,
                0.7071067094802856
            ]
        },
        {
            "children" : [
                34
            ],
            "name" : "Sketchfab_model.008",
            "rotation" : [
                -0.7071068286895752,
                0,
                0,
                0.7071067094802856
            ]
        },
        {
            "name" : "polySurface17.009",
            "translation" : [
                0,
                48.87357711791992,
                0
            ]
        },
        {
            "children" : [
                36
            ],
            "name" : "RootNode.009"
        },
        {
            "children" : [
                37
            ],
            "name" : "ob_Marble railing.fbx.009",
            "rotation" : [
                0.7071068286895752,
                0,
                0,
                0.7071067094802856
            ]
        },
        {
            "children" : [
                38
            ],
            "name" : "Sketchfab_model.009",
            "rotation" : [
                -0.7071068286895752,
                0,
                0,
                0.7071067094802856
            ]
        },
        {
            "mesh" : 0,
            "name" : "polySurface17_M_tesuri_0",
            "translation" : [
                0,
                -5.233959197998047,
                0
            ]
        },
        {
            "children" : [
                40
            ],
            "name" : "polySurface17.010",
            "translation" : [
                0,
                48.87357711791992,
                0
            ]
        },
        {
            "children" : [
                41
            ],
            "name" : "RootNode.010"
        },
        {
            "children" : [
                42
            ],
            "name" : "ob_Marble railing.fbx.010",
            "rotation" : [
                0.7071068286895752,
                0,
                0,
                0.7071067094802856
            ]
        },
        {
            "children" : [
                43
            ],
            "name" : "Sketchfab_model.010",
            "rotation" : [
                -0.7071068286895752,
                0,
                0,
                0.7071067094802856
            ]
        }
    ],
    "materials" : [
        {
            "doubleSided" : true,
            "name" : "M_tesuri.006",
            "normalTexture" : {
                "index" : 0,
                "scale" : 0.5
            },
            "occlusionTexture" : {
                "index" : 1
            },
            "pbrMetallicRoughness" : {
                "baseColorTexture" : {
                    "index" : 2
                },
                "metallicFactor" : 0,
                "roughnessFactor" : 0.25
            }
        }
    ],
    "meshes" : [
        {
            "name" : "polySurface17_M_tesuri_0.006",
            "primitives" : [
                {
                    "attributes" : {
                        "POSITION" : 0,
                        "NORMAL" : 1,
                        "TEXCOORD_0" : 2
                    },
                    "indices" : 3,
                    "material" : 0
                }
            ]
        }
    ],
    "textures" : [
        {
            "sampler" : 0,
            "source" : 0
        },
        {
            "sampler" : 0,
            "source" : 1
        },
        {
            "sampler" : 0,
            "source" : 2
        }
    ],
    "images" : [
        {
            "mimeType" : "image/png",
            "name" : "M_tesuri_normal",
            "uri" : "M_tesuri_normal.png"
        },
        {
            "mimeType" : "image/png",
            "name" : "M_tesuri_metallicRoughness",
            "uri" : "M_tesuri_metallicRoughness.png"
        },
        {
            "mimeType" : "image/png",
            "name" : "M_tesuri_baseColor",
            "uri" : "M_tesuri_baseColor.png"
        }
    ],
    "accessors" : [
        {
            "bufferView" : 0,
            "componentType" : 5126,
            "count" : 4786,
            "max" : [
                17.353759765625,
                53.417320251464844,
                217.74749755859375
            ],
            "min" : [
                -18.39013671875,
                -43.79253387451172,
                -220.98670959472656
            ],
            "type" : "VEC3"
        },
        {
            "bufferView" : 1,
            "componentType" : 5126,
            "count" : 4786,
            "type" : "VEC3"
        },
        {
            "bufferView" : 2,
            "componentType" : 5126,
            "count" : 4786,
            "type" : "VEC2"
        },
        {
            "bufferView" : 3,
            "componentType" : 5123,
            "count" : 21984,
            "type" : "SCALAR"
        }
    ],
    "bufferViews" : [
        {
            "buffer" : 0,
            "byteLength" : 57432,
            "byteOffset" : 0,
            "target" : 34962
        },
        {
            "buffer" : 0,
            "byteLength" : 57432,
            "byteOffset" : 57432,
            "target" : 34962
        },
        {
            "buffer" : 0,
            "byteLength" : 38288,
            "byteOffset" : 114864,
            "target" : 34962
        },
        {
            "buffer" : 0,
            "byteLength" : 43968,
            "byteOffset" : 153152,
            "target" : 34963
        }
    ],
    "samplers" : [
        {
            "magFilter" : 9729,
            "minFilter" : 9987
        }
    ],
    "buffers" : [
        {
            "byteLength" : 197120,
            "uri" : "railing_edited_top.bin"
        }
    ]
}
