{
    "asset" : {
        "generator" : "Khronos glTF Blender I/O v3.3.27",
        "version" : "2.0"
    },
    "scene" : 0,
    "scenes" : [
        {
            "name" : "Scene",
            "nodes" : [
                0
            ]
        }
    ],
    "nodes" : [
        {
            "mesh" : 0,
            "name" : "polySurface168_Bar_counter_0",
            "scale" : [
                0.009999999776482582,
                0.010000001639127731,
                0.010000001639127731
            ]
        }
    ],
    "materials" : [
        {
            "doubleSided" : true,
            "name" : "Bar_counter",
            "pbrMetallicRoughness" : {
                "baseColorTexture" : {
                    "index" : 0
                },
                "metallicFactor" : 0,
                "roughnessFactor" : 0.4273221790790558
            }
        }
    ],
    "meshes" : [
        {
            "name" : "polySurface168_Bar_counter_0",
            "primitives" : [
                {
                    "attributes" : {
                        "POSITION" : 0,
                        "NORMAL" : 1,
                        "TEXCOORD_0" : 2
                    },
                    "indices" : 3,
                    "material" : 0
                }
            ]
        }
    ],
    "textures" : [
        {
            "sampler" : 0,
            "source" : 0
        }
    ],
    "images" : [
        {
            "mimeType" : "image/png",
            "name" : "Top",
            "uri" : "Top.png"
        }
    ],
    "accessors" : [
        {
            "bufferView" : 0,
            "componentType" : 5126,
            "count" : 5699,
            "max" : [
                30.580833435058594,
                3.0258853435516357,
                -3.211411714553833
            ],
            "min" : [
                0,
                2.1055219173431396,
                -14.615691184997559
            ],
            "type" : "VEC3"
        },
        {
            "bufferView" : 1,
            "componentType" : 5126,
            "count" : 5699,
            "type" : "VEC3"
        },
        {
            "bufferView" : 2,
            "componentType" : 5126,
            "count" : 5699,
            "type" : "VEC2"
        },
        {
            "bufferView" : 3,
            "componentType" : 5123,
            "count" : 15261,
            "type" : "SCALAR"
        }
    ],
    "bufferViews" : [
        {
            "buffer" : 0,
            "byteLength" : 68388,
            "byteOffset" : 0,
            "target" : 34962
        },
        {
            "buffer" : 0,
            "byteLength" : 68388,
            "byteOffset" : 68388,
            "target" : 34962
        },
        {
            "buffer" : 0,
            "byteLength" : 45592,
            "byteOffset" : 136776,
            "target" : 34962
        },
        {
            "buffer" : 0,
            "byteLength" : 30522,
            "byteOffset" : 182368,
            "target" : 34963
        }
    ],
    "samplers" : [
        {
            "magFilter" : 9729,
            "minFilter" : 9987
        }
    ],
    "buffers" : [
        {
            "byteLength" : 212892,
            "uri" : "bartest_top1.bin"
        }
    ]
}
