{
    "asset" : {
        "generator" : "Khronos glTF Blender I/O v3.3.27",
        "version" : "2.0"
    },
    "scene" : 0,
    "scenes" : [
        {
            "name" : "Scene",
            "nodes" : [
                2
            ]
        }
    ],
    "nodes" : [
        {
            "mesh" : 0,
            "name" : "Object_2",
            "rotation" : [
                0,
                0,
                1,
                4.371138828673793e-08
            ]
        },
        {
            "children" : [
                0
            ],
            "name" : "6f501bbedcd64864ba6fc522a3af76fb.obj.cleaner.materialmerger.gle"
        },
        {
            "children" : [
                1
            ],
            "name" : "Sketchfab_model",
            "rotation" : [
                -0.7071068286895752,
                0,
                0,
                0.7071067094802856
            ]
        }
    ],
    "materials" : [
        {
            "doubleSided" : true,
            "emissiveFactor" : [
                1,
                1,
                1
            ],
            "emissiveTexture" : {
                "index" : 0
            },
            "name" : "thomas1lambert9SG",
            "normalTexture" : {
                "index" : 1
            },
            "pbrMetallicRoughness" : {
                "baseColorTexture" : {
                    "index" : 2
                },
                "metallicRoughnessTexture" : {
                    "index" : 3
                }
            }
        }
    ],
    "meshes" : [
        {
            "name" : "Object_0",
            "primitives" : [
                {
                    "attributes" : {
                        "POSITION" : 0,
                        "NORMAL" : 1,
                        "TEXCOORD_0" : 2
                    },
                    "indices" : 3,
                    "material" : 0
                }
            ]
        }
    ],
    "textures" : [
        {
            "sampler" : 0,
            "source" : 0
        },
        {
            "sampler" : 0,
            "source" : 1
        },
        {
            "sampler" : 0,
            "source" : 2
        },
        {
            "sampler" : 0,
            "source" : 3
        }
    ],
    "images" : [
        {
            "mimeType" : "image/png",
            "name" : "thomas1lambert9SG_emissive",
            "uri" : "thomas1lambert9SG_emissive.png"
        },
        {
            "mimeType" : "image/png",
            "name" : "thomas1lambert9SG_normal",
            "uri" : "thomas1lambert9SG_normal.png"
        },
        {
            "mimeType" : "image/png",
            "name" : "thomas1lambert9SG_baseColor",
            "uri" : "thomas1lambert9SG_baseColor.png"
        },
        {
            "mimeType" : "image/png",
            "name" : "thomas1lambert9SG_metallicRoughness",
            "uri" : "thomas1lambert9SG_metallicRoughness.png"
        }
    ],
    "accessors" : [
        {
            "bufferView" : 0,
            "componentType" : 5126,
            "count" : 4425,
            "max" : [
                4.864278793334961,
                5.421877861022949,
                9.731090545654297
            ],
            "min" : [
                -4.862162113189697,
                -5.77705192565918,
                0.8250589966773987
            ],
            "type" : "VEC3"
        },
        {
            "bufferView" : 1,
            "componentType" : 5126,
            "count" : 4425,
            "type" : "VEC3"
        },
        {
            "bufferView" : 2,
            "componentType" : 5126,
            "count" : 4425,
            "type" : "VEC2"
        },
        {
            "bufferView" : 3,
            "componentType" : 5123,
            "count" : 14382,
            "type" : "SCALAR"
        }
    ],
    "bufferViews" : [
        {
            "buffer" : 0,
            "byteLength" : 53100,
            "byteOffset" : 0,
            "target" : 34962
        },
        {
            "buffer" : 0,
            "byteLength" : 53100,
            "byteOffset" : 53100,
            "target" : 34962
        },
        {
            "buffer" : 0,
            "byteLength" : 35400,
            "byteOffset" : 106200,
            "target" : 34962
        },
        {
            "buffer" : 0,
            "byteLength" : 28764,
            "byteOffset" : 141600,
            "target" : 34963
        }
    ],
    "samplers" : [
        {
            "magFilter" : 9729,
            "minFilter" : 9987
        }
    ],
    "buffers" : [
        {
            "byteLength" : 170364,
            "uri" : "mdl_franch_rave_helmet.bin"
        }
    ]
}
