{
    "asset" : {
        "generator" : "Khronos glTF Blender I/O v3.3.27",
        "version" : "2.0"
    },
    "scene" : 0,
    "scenes" : [
        {
            "name" : "Scene",
            "nodes" : [
                8
            ]
        }
    ],
    "nodes" : [
        {
            "mesh" : 0,
            "name" : "Object_4"
        },
        {
            "children" : [
                0
            ],
            "name" : "bottiglia_0",
            "rotation" : [
                0,
                -0.6273894309997559,
                0,
                0.7787056565284729
            ],
            "scale" : [
                0.07999999821186066,
                0.17499999701976776,
                0.07999999821186066
            ]
        },
        {
            "mesh" : 1,
            "name" : "Object_8",
            "translation" : [
                0,
                0.031073404476046562,
                0
            ]
        },
        {
            "children" : [
                2
            ],
            "name" : "etichetta_2",
            "rotation" : [
                0,
                0,
                -0.7071066498756409,
                0.70710688829422
            ],
            "scale" : [
                0.0924544408917427,
                0.18490886688232422,
                0.12111248075962067
            ],
            "translation" : [
                0.12731753289699554,
                -0.023513777181506157,
                0
            ]
        },
        {
            "mesh" : 2,
            "name" : "Object_6"
        },
        {
            "children" : [
                4
            ],
            "name" : "tappo_1",
            "scale" : [
                0.025510456413030624,
                0.016532709822058678,
                0.025510452687740326
            ],
            "translation" : [
                0,
                0.21845683455467224,
                0
            ]
        },
        {
            "children" : [
                1,
                3,
                5
            ],
            "name" : "GLTF_SceneRootNode",
            "rotation" : [
                0.7071068286895752,
                0,
                0,
                0.7071067094802856
            ]
        },
        {
            "children" : [
                6
            ],
            "name" : "root"
        },
        {
            "children" : [
                7
            ],
            "name" : "Sketchfab_model",
            "rotation" : [
                -0.7071068286895752,
                0,
                0,
                0.7071067094802856
            ],
            "scale" : [
                0.5113820433616638,
                0.5113820433616638,
                0.5113820433616638
            ]
        }
    ],
    "materials" : [
        {
            "doubleSided" : true,
            "name" : "bottiglia",
            "normalTexture" : {
                "index" : 0,
                "scale" : 0.14000000059604645
            },
            "pbrMetallicRoughness" : {
                "baseColorTexture" : {
                    "index" : 1
                },
                "metallicRoughnessTexture" : {
                    "index" : 2
                }
            }
        },
        {
            "alphaCutoff" : 0.05931992083787918,
            "alphaMode" : "MASK",
            "doubleSided" : true,
            "name" : "etichetta",
            "pbrMetallicRoughness" : {
                "baseColorTexture" : {
                    "index" : 3
                },
                "metallicFactor" : 0,
                "metallicRoughnessTexture" : {
                    "index" : 4
                }
            }
        },
        {
            "doubleSided" : true,
            "name" : "tappo",
            "normalTexture" : {
                "index" : 5
            },
            "pbrMetallicRoughness" : {
                "baseColorTexture" : {
                    "index" : 6
                },
                "metallicFactor" : 0,
                "metallicRoughnessTexture" : {
                    "index" : 7
                }
            }
        }
    ],
    "meshes" : [
        {
            "name" : "Object_0",
            "primitives" : [
                {
                    "attributes" : {
                        "POSITION" : 0,
                        "NORMAL" : 1,
                        "TEXCOORD_0" : 2,
                        "TEXCOORD_1" : 3,
                        "TEXCOORD_2" : 4,
                        "TEXCOORD_3" : 5,
                        "TEXCOORD_4" : 6
                    },
                    "indices" : 7,
                    "material" : 0
                }
            ]
        },
        {
            "name" : "Object_2",
            "primitives" : [
                {
                    "attributes" : {
                        "POSITION" : 8,
                        "NORMAL" : 9,
                        "TEXCOORD_0" : 10,
                        "TEXCOORD_1" : 11,
                        "TEXCOORD_2" : 12
                    },
                    "indices" : 13,
                    "material" : 1
                }
            ]
        },
        {
            "name" : "Object_1",
            "primitives" : [
                {
                    "attributes" : {
                        "POSITION" : 14,
                        "NORMAL" : 15,
                        "TEXCOORD_0" : 16,
                        "TEXCOORD_1" : 17,
                        "TEXCOORD_2" : 18,
                        "TEXCOORD_3" : 19,
                        "TEXCOORD_4" : 20
                    },
                    "indices" : 21,
                    "material" : 2
                }
            ]
        }
    ],
    "textures" : [
        {
            "sampler" : 0,
            "source" : 0
        },
        {
            "sampler" : 0,
            "source" : 1
        },
        {
            "sampler" : 0,
            "source" : 2
        },
        {
            "sampler" : 0,
            "source" : 3
        },
        {
            "sampler" : 0,
            "source" : 4
        },
        {
            "sampler" : 0,
            "source" : 5
        },
        {
            "sampler" : 0,
            "source" : 6
        },
        {
            "sampler" : 0,
            "source" : 7
        }
    ],
    "images" : [
        {
            "mimeType" : "image/png",
            "name" : "bottiglia_normal",
            "uri" : "bottiglia_normal.png"
        },
        {
            "mimeType" : "image/png",
            "name" : "bottiglia_baseColor",
            "uri" : "bottiglia_baseColor.png"
        },
        {
            "mimeType" : "image/png",
            "name" : "bottiglia_metallicRoughness",
            "uri" : "bottiglia_metallicRoughness.png"
        },
        {
            "mimeType" : "image/png",
            "name" : "etichetta_baseColor_rotated",
            "uri" : "etichetta_baseColor_rotated.png"
        },
        {
            "mimeType" : "image/png",
            "name" : "etichetta_metallicRoughness_rotated",
            "uri" : "etichetta_metallicRoughness_rotated.png"
        },
        {
            "mimeType" : "image/png",
            "name" : "tappo_normal",
            "uri" : "tappo_normal.png"
        },
        {
            "mimeType" : "image/png",
            "name" : "tappo_baseColor",
            "uri" : "tappo_baseColor.png"
        },
        {
            "mimeType" : "image/png",
            "name" : "tappo_metallicRoughness",
            "uri" : "tappo_metallicRoughness.png"
        }
    ],
    "accessors" : [
        {
            "bufferView" : 0,
            "componentType" : 5126,
            "count" : 2379,
            "max" : [
                1.1311347484588623,
                1.2854212522506714,
                1.130684494972229
            ],
            "min" : [
                -1.131414532661438,
                -1.0173203945159912,
                -1.131143569946289
            ],
            "type" : "VEC3"
        },
        {
            "bufferView" : 1,
            "componentType" : 5126,
            "count" : 2379,
            "type" : "VEC3"
        },
        {
            "bufferView" : 2,
            "componentType" : 5126,
            "count" : 2379,
            "type" : "VEC2"
        },
        {
            "bufferView" : 3,
            "componentType" : 5126,
            "count" : 2379,
            "type" : "VEC2"
        },
        {
            "bufferView" : 4,
            "componentType" : 5126,
            "count" : 2379,
            "type" : "VEC2"
        },
        {
            "bufferView" : 5,
            "componentType" : 5126,
            "count" : 2379,
            "type" : "VEC2"
        },
        {
            "bufferView" : 6,
            "componentType" : 5126,
            "count" : 2379,
            "type" : "VEC2"
        },
        {
            "bufferView" : 7,
            "componentType" : 5123,
            "count" : 8700,
            "type" : "SCALAR"
        },
        {
            "bufferView" : 8,
            "componentType" : 5126,
            "count" : 71,
            "max" : [
                0.9381380081176758,
                -0.1982267200946808,
                0.526660144329071
            ],
            "min" : [
                -1.0814546346664429,
                -0.36675506830215454,
                -0.5166711807250977
            ],
            "type" : "VEC3"
        },
        {
            "bufferView" : 9,
            "componentType" : 5126,
            "count" : 71,
            "type" : "VEC3"
        },
        {
            "bufferView" : 10,
            "componentType" : 5126,
            "count" : 71,
            "type" : "VEC2"
        },
        {
            "bufferView" : 11,
            "componentType" : 5126,
            "count" : 71,
            "type" : "VEC2"
        },
        {
            "bufferView" : 12,
            "componentType" : 5126,
            "count" : 71,
            "type" : "VEC2"
        },
        {
            "bufferView" : 13,
            "componentType" : 5123,
            "count" : 303,
            "type" : "SCALAR"
        },
        {
            "bufferView" : 14,
            "componentType" : 5126,
            "count" : 184,
            "max" : [
                1.0481882095336914,
                1.798964023590088,
                1.0330219268798828
            ],
            "min" : [
                -1.0532599687576294,
                -1,
                -1.0330218076705933
            ],
            "type" : "VEC3"
        },
        {
            "bufferView" : 15,
            "componentType" : 5126,
            "count" : 184,
            "type" : "VEC3"
        },
        {
            "bufferView" : 16,
            "componentType" : 5126,
            "count" : 184,
            "type" : "VEC2"
        },
        {
            "bufferView" : 17,
            "componentType" : 5126,
            "count" : 184,
            "type" : "VEC2"
        },
        {
            "bufferView" : 18,
            "componentType" : 5126,
            "count" : 184,
            "type" : "VEC2"
        },
        {
            "bufferView" : 19,
            "componentType" : 5126,
            "count" : 184,
            "type" : "VEC2"
        },
        {
            "bufferView" : 20,
            "componentType" : 5126,
            "count" : 184,
            "type" : "VEC2"
        },
        {
            "bufferView" : 21,
            "componentType" : 5123,
            "count" : 504,
            "type" : "SCALAR"
        }
    ],
    "bufferViews" : [
        {
            "buffer" : 0,
            "byteLength" : 28548,
            "byteOffset" : 0,
            "target" : 34962
        },
        {
            "buffer" : 0,
            "byteLength" : 28548,
            "byteOffset" : 28548,
            "target" : 34962
        },
        {
            "buffer" : 0,
            "byteLength" : 19032,
            "byteOffset" : 57096,
            "target" : 34962
        },
        {
            "buffer" : 0,
            "byteLength" : 19032,
            "byteOffset" : 76128,
            "target" : 34962
        },
        {
            "buffer" : 0,
            "byteLength" : 19032,
            "byteOffset" : 95160,
            "target" : 34962
        },
        {
            "buffer" : 0,
            "byteLength" : 19032,
            "byteOffset" : 114192,
            "target" : 34962
        },
        {
            "buffer" : 0,
            "byteLength" : 19032,
            "byteOffset" : 133224,
            "target" : 34962
        },
        {
            "buffer" : 0,
            "byteLength" : 17400,
            "byteOffset" : 152256,
            "target" : 34963
        },
        {
            "buffer" : 0,
            "byteLength" : 852,
            "byteOffset" : 169656,
            "target" : 34962
        },
        {
            "buffer" : 0,
            "byteLength" : 852,
            "byteOffset" : 170508,
            "target" : 34962
        },
        {
            "buffer" : 0,
            "byteLength" : 568,
            "byteOffset" : 171360,
            "target" : 34962
        },
        {
            "buffer" : 0,
            "byteLength" : 568,
            "byteOffset" : 171928,
            "target" : 34962
        },
        {
            "buffer" : 0,
            "byteLength" : 568,
            "byteOffset" : 172496,
            "target" : 34962
        },
        {
            "buffer" : 0,
            "byteLength" : 606,
            "byteOffset" : 173064,
            "target" : 34963
        },
        {
            "buffer" : 0,
            "byteLength" : 2208,
            "byteOffset" : 173672,
            "target" : 34962
        },
        {
            "buffer" : 0,
            "byteLength" : 2208,
            "byteOffset" : 175880,
            "target" : 34962
        },
        {
            "buffer" : 0,
            "byteLength" : 1472,
            "byteOffset" : 178088,
            "target" : 34962
        },
        {
            "buffer" : 0,
            "byteLength" : 1472,
            "byteOffset" : 179560,
            "target" : 34962
        },
        {
            "buffer" : 0,
            "byteLength" : 1472,
            "byteOffset" : 181032,
            "target" : 34962
        },
        {
            "buffer" : 0,
            "byteLength" : 1472,
            "byteOffset" : 182504,
            "target" : 34962
        },
        {
            "buffer" : 0,
            "byteLength" : 1472,
            "byteOffset" : 183976,
            "target" : 34962
        },
        {
            "buffer" : 0,
            "byteLength" : 1008,
            "byteOffset" : 185448,
            "target" : 34963
        }
    ],
    "samplers" : [
        {
            "magFilter" : 9729,
            "minFilter" : 9987
        }
    ],
    "buffers" : [
        {
            "byteLength" : 186456,
            "uri" : "rum2_rotatelabel.bin"
        }
    ]
}
