{
    "asset" : {
        "generator" : "Khronos glTF Blender I/O v3.3.27",
        "version" : "2.0"
    },
    "scene" : 0,
    "scenes" : [
        {
            "name" : "Scene",
            "nodes" : [
                6
            ]
        }
    ],
    "nodes" : [
        {
            "mesh" : 0,
            "name" : "Cylinder014_glass_0"
        },
        {
            "mesh" : 1,
            "name" : "Cylinder014_metal_0"
        },
        {
            "children" : [
                0,
                1
            ],
            "name" : "Object_4",
            "translation" : [
                0,
                -4.6047556679695845e-05,
                0
            ]
        },
        {
            "children" : [
                2
            ],
            "name" : "Cylinder014",
            "rotation" : [
                -0.7071068286895752,
                0,
                0,
                0.7071067094802856
            ],
            "translation" : [
                0,
                0,
                -0.00021198688773438334
            ]
        },
        {
            "children" : [
                3
            ],
            "name" : "RootNode"
        },
        {
            "children" : [
                4
            ],
            "name" : "lamp lowpoly.FBX",
            "rotation" : [
                0.7071068286895752,
                0,
                0,
                0.7071067094802856
            ]
        },
        {
            "children" : [
                5
            ],
            "name" : "Sketchfab_model",
            "rotation" : [
                -0.7071068286895752,
                0,
                0,
                0.7071067094802856
            ],
            "scale" : [
                0.0011031579924747348,
                0.0011031581088900566,
                0.0011031581088900566
            ]
        }
    ],
    "materials" : [
        {
            "doubleSided" : true,
            "emissiveFactor" : [
                1,
                1,
                1
            ],
            "emissiveTexture" : {
                "index" : 0
            },
            "name" : "glass",
            "normalTexture" : {
                "index" : 1
            },
            "pbrMetallicRoughness" : {
                "baseColorTexture" : {
                    "index" : 2
                },
                "metallicFactor" : 0,
                "roughnessFactor" : 0
            }
        },
        {
            "name" : "metal",
            "normalTexture" : {
                "index" : 3
            },
            "pbrMetallicRoughness" : {
                "baseColorTexture" : {
                    "index" : 4
                },
                "metallicRoughnessTexture" : {
                    "index" : 5
                },
                "roughnessFactor" : 0.48342224955558777
            }
        }
    ],
    "meshes" : [
        {
            "name" : "Cylinder014_glass_0",
            "primitives" : [
                {
                    "attributes" : {
                        "POSITION" : 0,
                        "NORMAL" : 1,
                        "TEXCOORD_0" : 2
                    },
                    "indices" : 3,
                    "material" : 0
                }
            ]
        },
        {
            "name" : "Cylinder014_metal_0",
            "primitives" : [
                {
                    "attributes" : {
                        "POSITION" : 4,
                        "NORMAL" : 5,
                        "TEXCOORD_0" : 6
                    },
                    "indices" : 7,
                    "material" : 1
                }
            ]
        }
    ],
    "textures" : [
        {
            "sampler" : 0,
            "source" : 0
        },
        {
            "sampler" : 0,
            "source" : 1
        },
        {
            "sampler" : 0,
            "source" : 2
        },
        {
            "sampler" : 0,
            "source" : 3
        },
        {
            "sampler" : 0,
            "source" : 4
        },
        {
            "sampler" : 0,
            "source" : 5
        }
    ],
    "images" : [
        {
            "mimeType" : "image/png",
            "name" : "glass_emissive",
            "uri" : "glass_emissive.png"
        },
        {
            "mimeType" : "image/png",
            "name" : "glass_normal",
            "uri" : "glass_normal.png"
        },
        {
            "mimeType" : "image/png",
            "name" : "glass_baseColor",
            "uri" : "glass_baseColor.png"
        },
        {
            "mimeType" : "image/png",
            "name" : "metal_normal",
            "uri" : "metal_normal.png"
        },
        {
            "mimeType" : "image/png",
            "name" : "metal_baseColor",
            "uri" : "metal_baseColor.png"
        },
        {
            "mimeType" : "image/png",
            "name" : "metal_metallicRoughness",
            "uri" : "metal_metallicRoughness.png"
        }
    ],
    "accessors" : [
        {
            "bufferView" : 0,
            "componentType" : 5126,
            "count" : 996,
            "max" : [
                317.2873840332031,
                117.94593048095703,
                2106.89111328125
            ],
            "min" : [
                -317.2873840332031,
                -117.94612884521484,
                1869.6995849609375
            ],
            "type" : "VEC3"
        },
        {
            "bufferView" : 1,
            "componentType" : 5126,
            "count" : 996,
            "type" : "VEC3"
        },
        {
            "bufferView" : 2,
            "componentType" : 5126,
            "count" : 996,
            "type" : "VEC2"
        },
        {
            "bufferView" : 3,
            "componentType" : 5123,
            "count" : 5040,
            "type" : "SCALAR"
        },
        {
            "bufferView" : 4,
            "componentType" : 5126,
            "count" : 4374,
            "max" : [
                262.37579345703125,
                126.5,
                1979.5040283203125
            ],
            "min" : [
                -262.37579345703125,
                -126.5,
                -3.62396240234375e-05
            ],
            "type" : "VEC3"
        },
        {
            "bufferView" : 5,
            "componentType" : 5126,
            "count" : 4374,
            "type" : "VEC3"
        },
        {
            "bufferView" : 6,
            "componentType" : 5126,
            "count" : 4374,
            "type" : "VEC2"
        },
        {
            "bufferView" : 7,
            "componentType" : 5123,
            "count" : 18213,
            "type" : "SCALAR"
        }
    ],
    "bufferViews" : [
        {
            "buffer" : 0,
            "byteLength" : 11952,
            "byteOffset" : 0,
            "target" : 34962
        },
        {
            "buffer" : 0,
            "byteLength" : 11952,
            "byteOffset" : 11952,
            "target" : 34962
        },
        {
            "buffer" : 0,
            "byteLength" : 7968,
            "byteOffset" : 23904,
            "target" : 34962
        },
        {
            "buffer" : 0,
            "byteLength" : 10080,
            "byteOffset" : 31872,
            "target" : 34963
        },
        {
            "buffer" : 0,
            "byteLength" : 52488,
            "byteOffset" : 41952,
            "target" : 34962
        },
        {
            "buffer" : 0,
            "byteLength" : 52488,
            "byteOffset" : 94440,
            "target" : 34962
        },
        {
            "buffer" : 0,
            "byteLength" : 34992,
            "byteOffset" : 146928,
            "target" : 34962
        },
        {
            "buffer" : 0,
            "byteLength" : 36426,
            "byteOffset" : 181920,
            "target" : 34963
        }
    ],
    "samplers" : [
        {
            "magFilter" : 9729,
            "minFilter" : 9987
        }
    ],
    "buffers" : [
        {
            "byteLength" : 218348,
            "uri" : "scene.bin"
        }
    ]
}
