{
    "asset" : {
        "generator" : "Khronos glTF Blender I/O v3.3.27",
        "version" : "2.0"
    },
    "extensionsUsed" : [
        "KHR_materials_clearcoat",
        "KHR_materials_transmission"
    ],
    "scene" : 0,
    "scenes" : [
        {
            "name" : "Scene",
            "nodes" : [
                8
            ]
        }
    ],
    "nodes" : [
        {
            "mesh" : 0,
            "name" : "Object_4"
        },
        {
            "children" : [
                0
            ],
            "name" : "Employee Id Card Design_2"
        },
        {
            "mesh" : 1,
            "name" : "Object_6"
        },
        {
            "children" : [
                2
            ],
            "name" : "Plastic Wrap_3"
        },
        {
            "mesh" : 2,
            "name" : "Object_8"
        },
        {
            "children" : [
                4
            ],
            "name" : "Ribbon_4"
        },
        {
            "children" : [
                1,
                3,
                5
            ],
            "name" : "GLTF_SceneRootNode"
        },
        {
            "children" : [
                6
            ],
            "name" : "root"
        },
        {
            "children" : [
                7
            ],
            "name" : "Sketchfab_model",
            "rotation" : [
                0,
                0.7071068286895752,
                0,
                0.7071067094802856
            ]
        }
    ],
    "materials" : [
        {
            "alphaMode" : "BLEND",
            "name" : "Employee_Id_Card_Design",
            "pbrMetallicRoughness" : {
                "baseColorFactor" : [
                    1,
                    1,
                    1,
                    0.9788361191749573
                ],
                "baseColorTexture" : {
                    "index" : 0
                },
                "metallicFactor" : 0.3597613573074341,
                "metallicRoughnessTexture" : {
                    "index" : 1
                },
                "roughnessFactor" : 0.6268132328987122
            }
        },
        {
            "alphaMode" : "BLEND",
            "extensions" : {
                "KHR_materials_clearcoat" : {
                    "clearcoatFactor" : 0.960628092288971,
                    "clearcoatRoughnessFactor" : 0
                },
                "KHR_materials_transmission" : {
                    "transmissionFactor" : 1
                }
            },
            "name" : "Plastic",
            "pbrMetallicRoughness" : {
                "baseColorFactor" : [
                    0.800000011920929,
                    0.800000011920929,
                    0.800000011920929,
                    0.25
                ],
                "metallicFactor" : 0,
                "roughnessFactor" : 0.523635983467102
            }
        },
        {
            "name" : "Ribbon",
            "normalTexture" : {
                "index" : 2
            },
            "pbrMetallicRoughness" : {
                "baseColorTexture" : {
                    "index" : 3
                },
                "metallicRoughnessTexture" : {
                    "index" : 4
                },
                "roughnessFactor" : 0.6127269864082336
            }
        }
    ],
    "meshes" : [
        {
            "name" : "Object_0",
            "primitives" : [
                {
                    "attributes" : {
                        "POSITION" : 0,
                        "NORMAL" : 1,
                        "TEXCOORD_0" : 2
                    },
                    "indices" : 3,
                    "material" : 0
                }
            ]
        },
        {
            "name" : "Object_1",
            "primitives" : [
                {
                    "attributes" : {
                        "POSITION" : 4,
                        "NORMAL" : 5,
                        "TEXCOORD_0" : 6
                    },
                    "indices" : 7,
                    "material" : 1
                }
            ]
        },
        {
            "name" : "Object_2",
            "primitives" : [
                {
                    "attributes" : {
                        "POSITION" : 8,
                        "NORMAL" : 9,
                        "TEXCOORD_0" : 10
                    },
                    "indices" : 11,
                    "material" : 2
                }
            ]
        }
    ],
    "textures" : [
        {
            "sampler" : 0,
            "source" : 0
        },
        {
            "sampler" : 0,
            "source" : 1
        },
        {
            "sampler" : 0,
            "source" : 2
        },
        {
            "sampler" : 0,
            "source" : 3
        },
        {
            "sampler" : 0,
            "source" : 4
        }
    ],
    "images" : [
        {
            "mimeType" : "image/png",
            "name" : "Employee_Id_Card_Design_baseColor",
            "uri" : "Employee_Id_Card_Design_baseColor.png"
        },
        {
            "mimeType" : "image/png",
            "name" : "Employee_Id_Card_Design_metallicRoughness",
            "uri" : "Employee_Id_Card_Design_metallicRoughness.png"
        },
        {
            "mimeType" : "image/png",
            "name" : "Ribbon_normal",
            "uri" : "Ribbon_normal.png"
        },
        {
            "mimeType" : "image/png",
            "name" : "Ribbon_baseColor",
            "uri" : "Ribbon_baseColor.png"
        },
        {
            "mimeType" : "image/png",
            "name" : "Ribbon_metallicRoughness",
            "uri" : "Ribbon_metallicRoughness.png"
        }
    ],
    "accessors" : [
        {
            "bufferView" : 0,
            "componentType" : 5126,
            "count" : 4,
            "max" : [
                1.5062889360706322e-05,
                0.5000001192092896,
                0.33333340287208557
            ],
            "min" : [
                -1.5062889360706322e-05,
                -0.5000001192092896,
                -0.33333340287208557
            ],
            "type" : "VEC3"
        },
        {
            "bufferView" : 1,
            "componentType" : 5126,
            "count" : 4,
            "type" : "VEC3"
        },
        {
            "bufferView" : 2,
            "componentType" : 5126,
            "count" : 4,
            "type" : "VEC2"
        },
        {
            "bufferView" : 3,
            "componentType" : 5123,
            "count" : 6,
            "type" : "SCALAR"
        },
        {
            "bufferView" : 4,
            "componentType" : 5126,
            "count" : 408,
            "max" : [
                0.0026864975225180387,
                0.5474710464477539,
                0.352882444858551
            ],
            "min" : [
                -0.0026386301033198833,
                -0.5293235182762146,
                -0.352882444858551
            ],
            "type" : "VEC3"
        },
        {
            "bufferView" : 5,
            "componentType" : 5126,
            "count" : 408,
            "type" : "VEC3"
        },
        {
            "bufferView" : 6,
            "componentType" : 5126,
            "count" : 408,
            "type" : "VEC2"
        },
        {
            "bufferView" : 7,
            "componentType" : 5123,
            "count" : 408,
            "type" : "SCALAR"
        },
        {
            "bufferView" : 8,
            "componentType" : 5126,
            "count" : 337,
            "max" : [
                0.17365308105945587,
                2.942070484161377,
                0.14641840755939484
            ],
            "min" : [
                -0.20812459290027618,
                0.5194767713546753,
                -0.11728262156248093
            ],
            "type" : "VEC3"
        },
        {
            "bufferView" : 9,
            "componentType" : 5126,
            "count" : 337,
            "type" : "VEC3"
        },
        {
            "bufferView" : 10,
            "componentType" : 5126,
            "count" : 337,
            "type" : "VEC2"
        },
        {
            "bufferView" : 11,
            "componentType" : 5123,
            "count" : 1227,
            "type" : "SCALAR"
        }
    ],
    "bufferViews" : [
        {
            "buffer" : 0,
            "byteLength" : 48,
            "byteOffset" : 0,
            "target" : 34962
        },
        {
            "buffer" : 0,
            "byteLength" : 48,
            "byteOffset" : 48,
            "target" : 34962
        },
        {
            "buffer" : 0,
            "byteLength" : 32,
            "byteOffset" : 96,
            "target" : 34962
        },
        {
            "buffer" : 0,
            "byteLength" : 12,
            "byteOffset" : 128,
            "target" : 34963
        },
        {
            "buffer" : 0,
            "byteLength" : 4896,
            "byteOffset" : 140,
            "target" : 34962
        },
        {
            "buffer" : 0,
            "byteLength" : 4896,
            "byteOffset" : 5036,
            "target" : 34962
        },
        {
            "buffer" : 0,
            "byteLength" : 3264,
            "byteOffset" : 9932,
            "target" : 34962
        },
        {
            "buffer" : 0,
            "byteLength" : 816,
            "byteOffset" : 13196,
            "target" : 34963
        },
        {
            "buffer" : 0,
            "byteLength" : 4044,
            "byteOffset" : 14012,
            "target" : 34962
        },
        {
            "buffer" : 0,
            "byteLength" : 4044,
            "byteOffset" : 18056,
            "target" : 34962
        },
        {
            "buffer" : 0,
            "byteLength" : 2696,
            "byteOffset" : 22100,
            "target" : 34962
        },
        {
            "buffer" : 0,
            "byteLength" : 2454,
            "byteOffset" : 24796,
            "target" : 34963
        }
    ],
    "samplers" : [
        {
            "magFilter" : 9729,
            "minFilter" : 9987
        }
    ],
    "buffers" : [
        {
            "byteLength" : 27252,
            "uri" : "badge_rotated3.bin"
        }
    ]
}
