{
    "asset" : {
        "generator" : "Khronos glTF Blender I/O v3.3.27",
        "version" : "2.0"
    },
    "scene" : 0,
    "scenes" : [
        {
            "name" : "Scene",
            "nodes" : [
                4
            ]
        }
    ],
    "nodes" : [
        {
            "mesh" : 0,
            "name" : "#LMP0006_Deco_Wall_Metal_Black_#LMP0006_Textures_0"
        },
        {
            "children" : [
                0
            ],
            "name" : "#LMP0006_Deco_Wall_Metal_Black",
            "rotation" : [
                -0.7071068286895752,
                0,
                0,
                0.7071067094802856
            ]
        },
        {
            "children" : [
                1
            ],
            "name" : "RootNode"
        },
        {
            "children" : [
                2
            ],
            "name" : "Art_Deco_Wall_Light.fbx",
            "rotation" : [
                0.7071068286895752,
                0,
                0,
                0.7071067094802856
            ]
        },
        {
            "children" : [
                3
            ],
            "name" : "Sketchfab_model",
            "rotation" : [
                -0.7071068286895752,
                0,
                0,
                0.7071067094802856
            ]
        }
    ],
    "materials" : [
        {
            "doubleSided" : true,
            "emissiveFactor" : [
                1,
                1,
                1
            ],
            "emissiveTexture" : {
                "index" : 0
            },
            "name" : "LMP0006_Textures",
            "normalTexture" : {
                "index" : 1
            },
            "occlusionTexture" : {
                "index" : 2
            },
            "pbrMetallicRoughness" : {
                "baseColorTexture" : {
                    "index" : 3
                },
                "metallicRoughnessTexture" : {
                    "index" : 2
                }
            }
        }
    ],
    "meshes" : [
        {
            "name" : "#LMP0006_Deco_Wall_Metal_Black_#LMP0006_Textures_0",
            "primitives" : [
                {
                    "attributes" : {
                        "POSITION" : 0,
                        "NORMAL" : 1,
                        "TEXCOORD_0" : 2
                    },
                    "indices" : 3,
                    "material" : 0
                }
            ]
        }
    ],
    "textures" : [
        {
            "sampler" : 0,
            "source" : 0
        },
        {
            "sampler" : 0,
            "source" : 1
        },
        {
            "sampler" : 0,
            "source" : 2
        },
        {
            "sampler" : 0,
            "source" : 3
        }
    ],
    "images" : [
        {
            "mimeType" : "image/png",
            "name" : "LMP0006_Textures_emissive",
            "uri" : "LMP0006_Textures_emissive.png"
        },
        {
            "mimeType" : "image/png",
            "name" : "LMP0006_Textures_normal",
            "uri" : "LMP0006_Textures_normal.png"
        },
        {
            "mimeType" : "image/png",
            "name" : "LMP0006_Textures_metallicRoughness",
            "uri" : "LMP0006_Textures_metallicRoughness.png"
        },
        {
            "mimeType" : "image/png",
            "name" : "LMP0006_Textures_baseColor",
            "uri" : "LMP0006_Textures_baseColor.png"
        }
    ],
    "accessors" : [
        {
            "bufferView" : 0,
            "componentType" : 5126,
            "count" : 936,
            "max" : [
                0.09450170397758484,
                2.4194861225623754e-08,
                0.20465683937072754
            ],
            "min" : [
                -0.09450168907642365,
                -0.23449397087097168,
                -0.21525359153747559
            ],
            "type" : "VEC3"
        },
        {
            "bufferView" : 1,
            "componentType" : 5126,
            "count" : 936,
            "type" : "VEC3"
        },
        {
            "bufferView" : 2,
            "componentType" : 5126,
            "count" : 936,
            "type" : "VEC2"
        },
        {
            "bufferView" : 3,
            "componentType" : 5123,
            "count" : 2301,
            "type" : "SCALAR"
        }
    ],
    "bufferViews" : [
        {
            "buffer" : 0,
            "byteLength" : 11232,
            "byteOffset" : 0,
            "target" : 34962
        },
        {
            "buffer" : 0,
            "byteLength" : 11232,
            "byteOffset" : 11232,
            "target" : 34962
        },
        {
            "buffer" : 0,
            "byteLength" : 7488,
            "byteOffset" : 22464,
            "target" : 34962
        },
        {
            "buffer" : 0,
            "byteLength" : 4602,
            "byteOffset" : 29952,
            "target" : 34963
        }
    ],
    "samplers" : [
        {
            "magFilter" : 9729,
            "minFilter" : 9987
        }
    ],
    "buffers" : [
        {
            "byteLength" : 34556,
            "uri" : "scene.bin"
        }
    ]
}
