{
    "asset" : {
        "generator" : "Khronos glTF Blender I/O v3.3.27",
        "version" : "2.0"
    },
    "scene" : 0,
    "scenes" : [
        {
            "name" : "Scene",
            "nodes" : [
                13
            ]
        }
    ],
    "nodes" : [
        {
            "name" : "Object_7"
        },
        {
            "children" : [
                0
            ],
            "name" : "Camera",
            "rotation" : [
                -0.2125573456287384,
                0.9047969579696655,
                -0.08438929170370102,
                0.35922181606292725
            ],
            "scale" : [
                99.99999237060547,
                100.00000762939453,
                99.99999237060547
            ],
            "translation" : [
                735.88916015625,
                495.8309326171875,
                692.5791015625
            ]
        },
        {
            "name" : "Cylinder",
            "rotation" : [
                -0.7071068286895752,
                0,
                0,
                0.7071067094802856
            ],
            "scale" : [
                64.35954284667969,
                64.00074005126953,
                110.98434448242188
            ],
            "translation" : [
                4.149899482727051,
                -115.6281967163086,
                0
            ]
        },
        {
            "name" : "Cylinder.001",
            "rotation" : [
                -0.7071068286895752,
                0,
                0,
                0.7071067094802856
            ],
            "scale" : [
                33.130680084228516,
                33.13066482543945,
                8.839319229125977
            ],
            "translation" : [
                1.0052814483642578,
                261.6470947265625,
                -5.341041105566546e-05
            ]
        },
        {
            "name" : "Cylinder.003",
            "rotation" : [
                -0.7071068286895752,
                0,
                0,
                0.7071067094802856
            ],
            "scale" : [
                63.115638732910156,
                62.7637825012207,
                108.83930206298828
            ],
            "translation" : [
                4.149899482727051,
                -115.6281967163086,
                -0.12733978033065796
            ]
        },
        {
            "mesh" : 0,
            "name" : "Cylinder.005_Material.007_0"
        },
        {
            "children" : [
                5
            ],
            "name" : "Cylinder.005",
            "rotation" : [
                -0.7071068286895752,
                0,
                0,
                0.7071067094802856
            ],
            "scale" : [
                64.98571014404297,
                67.15767669677734,
                112.06415557861328
            ],
            "translation" : [
                4.149899482727051,
                -123.54358673095703,
                -61.49400329589844
            ]
        },
        {
            "name" : "Object_5"
        },
        {
            "children" : [
                7
            ],
            "name" : "Object_4",
            "rotation" : [
                0.7071068286895752,
                0,
                0,
                0.7071067094802856
            ]
        },
        {
            "children" : [
                8
            ],
            "name" : "Light",
            "rotation" : [
                -0.6356038451194763,
                -0.21045257151126862,
                0.7419275641441345,
                0.03551211580634117
            ],
            "scale" : [
                100.00004577636719,
                100.00004577636719,
                100.00003051757812
            ],
            "translation" : [
                407.6245422363281,
                590.38623046875,
                -100.54539489746094
            ]
        },
        {
            "name" : "stock-vector-vintage-mexican-tequila-label-for-bottle-illustrat",
            "rotation" : [
                0,
                -0.008246628567576408,
                0,
                0.999966025352478
            ],
            "scale" : [
                134.09457397460938,
                134.09457397460938,
                134.09457397460938
            ],
            "translation" : [
                4.149899482727051,
                -103.50305938720703,
                64.46782684326172
            ]
        },
        {
            "children" : [
                1,
                2,
                3,
                4,
                6,
                9,
                10
            ],
            "name" : "RootNode"
        },
        {
            "children" : [
                11
            ],
            "name" : "ce940a6d612a4a1f842f4a721c7d8e4a.fbx",
            "rotation" : [
                0.7071068286895752,
                0,
                0,
                0.7071067094802856
            ]
        },
        {
            "children" : [
                12
            ],
            "name" : "Sketchfab_model",
            "rotation" : [
                -0.7071068286895752,
                0,
                0,
                0.7071067094802856
            ]
        }
    ],
    "materials" : [
        {
            "doubleSided" : true,
            "emissiveFactor" : [
                0.003904589917510748,
                0.003904589917510748,
                0.003904589917510748
            ],
            "name" : "Material.007",
            "pbrMetallicRoughness" : {
                "baseColorFactor" : [
                    0,
                    0,
                    0,
                    1
                ],
                "metallicFactor" : 0.3239808976650238,
                "roughnessFactor" : 0.29965856671333313
            }
        },
        {
            "doubleSided" : true,
            "name" : "Material.002",
            "pbrMetallicRoughness" : {
                "baseColorFactor" : [
                    0,
                    0,
                    0,
                    1
                ],
                "metallicFactor" : 0.6948962807655334,
                "roughnessFactor" : 0
            }
        },
        {
            "doubleSided" : true,
            "name" : "Material.005",
            "pbrMetallicRoughness" : {
                "baseColorFactor" : [
                    0,
                    0,
                    0,
                    1
                ],
                "metallicFactor" : 0.7861049771308899,
                "roughnessFactor" : 0.3719901144504547
            }
        },
        {
            "doubleSided" : true,
            "name" : "stock-vector-vintage-mexican-tequila-label-for-bottle-illustrat",
            "pbrMetallicRoughness" : {
                "baseColorTexture" : {
                    "index" : 0
                },
                "metallicFactor" : 0,
                "roughnessFactor" : 0.8211145401000977
            }
        }
    ],
    "meshes" : [
        {
            "name" : "Cylinder.005_Material.007_0",
            "primitives" : [
                {
                    "attributes" : {
                        "POSITION" : 0,
                        "NORMAL" : 1,
                        "TEXCOORD_0" : 2
                    },
                    "indices" : 3,
                    "material" : 0
                },
                {
                    "attributes" : {
                        "POSITION" : 4,
                        "NORMAL" : 5,
                        "TEXCOORD_0" : 6
                    },
                    "indices" : 7,
                    "material" : 1
                },
                {
                    "attributes" : {
                        "POSITION" : 8,
                        "NORMAL" : 9,
                        "TEXCOORD_0" : 10
                    },
                    "indices" : 11,
                    "material" : 2
                },
                {
                    "attributes" : {
                        "POSITION" : 12,
                        "NORMAL" : 13,
                        "TEXCOORD_0" : 14
                    },
                    "indices" : 15,
                    "material" : 3
                }
            ]
        }
    ],
    "textures" : [
        {
            "sampler" : 0,
            "source" : 0
        }
    ],
    "images" : [
        {
            "mimeType" : "image/jpeg",
            "name" : "stock-vector-vintage-mexican-tequila-label-for-bottle-illustrat_baseColor",
            "uri" : "stock-vector-vintage-mexican-tequila-label-for-bottle-illustrat_baseColor.jpg"
        }
    ],
    "accessors" : [
        {
            "bufferView" : 0,
            "componentType" : 5126,
            "count" : 128,
            "max" : [
                0.3233579099178314,
                -0.5979121923446655,
                3.3758137226104736
            ],
            "min" : [
                -0.3233572542667389,
                -1.2446269989013672,
                1.709436297416687
            ],
            "type" : "VEC3"
        },
        {
            "bufferView" : 1,
            "componentType" : 5126,
            "count" : 128,
            "type" : "VEC3"
        },
        {
            "bufferView" : 2,
            "componentType" : 5126,
            "count" : 128,
            "type" : "VEC2"
        },
        {
            "bufferView" : 3,
            "componentType" : 5123,
            "count" : 192,
            "type" : "SCALAR"
        },
        {
            "bufferView" : 4,
            "componentType" : 5126,
            "count" : 2838,
            "max" : [
                0.9984239935874939,
                0.0451432466506958,
                3.4229965209960938
            ],
            "min" : [
                -0.9984883666038513,
                -1.8764755725860596,
                -0.9020688533782959
            ],
            "type" : "VEC3"
        },
        {
            "bufferView" : 5,
            "componentType" : 5126,
            "count" : 2838,
            "type" : "VEC3"
        },
        {
            "bufferView" : 6,
            "componentType" : 5126,
            "count" : 2838,
            "type" : "VEC2"
        },
        {
            "bufferView" : 7,
            "componentType" : 5123,
            "count" : 4938,
            "type" : "SCALAR"
        },
        {
            "bufferView" : 8,
            "componentType" : 5126,
            "count" : 1678,
            "max" : [
                0.4422934055328369,
                -0.48314547538757324,
                3.688575267791748
            ],
            "min" : [
                -0.44156160950660706,
                -1.343385100364685,
                3.3592090606689453
            ],
            "type" : "VEC3"
        },
        {
            "bufferView" : 9,
            "componentType" : 5126,
            "count" : 1678,
            "type" : "VEC3"
        },
        {
            "bufferView" : 10,
            "componentType" : 5126,
            "count" : 1678,
            "type" : "VEC2"
        },
        {
            "bufferView" : 11,
            "componentType" : 5123,
            "count" : 3966,
            "type" : "SCALAR"
        },
        {
            "bufferView" : 12,
            "componentType" : 5126,
            "count" : 1526,
            "max" : [
                0.7241126298904419,
                -1.6105313301086426,
                0.7772409915924072
            ],
            "min" : [
                -0.7253177762031555,
                -1.9034790992736816,
                -0.4213731288909912
            ],
            "type" : "VEC3"
        },
        {
            "bufferView" : 13,
            "componentType" : 5126,
            "count" : 1526,
            "type" : "VEC3"
        },
        {
            "bufferView" : 14,
            "componentType" : 5126,
            "count" : 1526,
            "type" : "VEC2"
        },
        {
            "bufferView" : 15,
            "componentType" : 5123,
            "count" : 1530,
            "type" : "SCALAR"
        }
    ],
    "bufferViews" : [
        {
            "buffer" : 0,
            "byteLength" : 1536,
            "byteOffset" : 0,
            "target" : 34962
        },
        {
            "buffer" : 0,
            "byteLength" : 1536,
            "byteOffset" : 1536,
            "target" : 34962
        },
        {
            "buffer" : 0,
            "byteLength" : 1024,
            "byteOffset" : 3072,
            "target" : 34962
        },
        {
            "buffer" : 0,
            "byteLength" : 384,
            "byteOffset" : 4096,
            "target" : 34963
        },
        {
            "buffer" : 0,
            "byteLength" : 34056,
            "byteOffset" : 4480,
            "target" : 34962
        },
        {
            "buffer" : 0,
            "byteLength" : 34056,
            "byteOffset" : 38536,
            "target" : 34962
        },
        {
            "buffer" : 0,
            "byteLength" : 22704,
            "byteOffset" : 72592,
            "target" : 34962
        },
        {
            "buffer" : 0,
            "byteLength" : 9876,
            "byteOffset" : 95296,
            "target" : 34963
        },
        {
            "buffer" : 0,
            "byteLength" : 20136,
            "byteOffset" : 105172,
            "target" : 34962
        },
        {
            "buffer" : 0,
            "byteLength" : 20136,
            "byteOffset" : 125308,
            "target" : 34962
        },
        {
            "buffer" : 0,
            "byteLength" : 13424,
            "byteOffset" : 145444,
            "target" : 34962
        },
        {
            "buffer" : 0,
            "byteLength" : 7932,
            "byteOffset" : 158868,
            "target" : 34963
        },
        {
            "buffer" : 0,
            "byteLength" : 18312,
            "byteOffset" : 166800,
            "target" : 34962
        },
        {
            "buffer" : 0,
            "byteLength" : 18312,
            "byteOffset" : 185112,
            "target" : 34962
        },
        {
            "buffer" : 0,
            "byteLength" : 12208,
            "byteOffset" : 203424,
            "target" : 34962
        },
        {
            "buffer" : 0,
            "byteLength" : 3060,
            "byteOffset" : 215632,
            "target" : 34963
        }
    ],
    "samplers" : [
        {
            "magFilter" : 9729,
            "minFilter" : 9987
        }
    ],
    "buffers" : [
        {
            "byteLength" : 218692,
            "uri" : "tequila_edited.bin"
        }
    ]
}
