{
    "asset" : {
        "generator" : "Khronos glTF Blender I/O v3.3.27",
        "version" : "2.0"
    },
    "extensionsUsed" : [
        "KHR_materials_transmission"
    ],
    "scene" : 0,
    "scenes" : [
        {
            "name" : "Scene",
            "nodes" : [
                7
            ]
        }
    ],
    "nodes" : [
        {
            "mesh" : 0,
            "name" : "Loft001_Material #59_0"
        },
        {
            "mesh" : 1,
            "name" : "Loft001_Material #60_0"
        },
        {
            "mesh" : 2,
            "name" : "Loft001_Material #61_0"
        },
        {
            "mesh" : 3,
            "name" : "Loft001_Material #62_0"
        },
        {
            "children" : [
                0,
                1,
                2,
                3
            ],
            "name" : "Loft001",
            "rotation" : [
                -0.70710688829422,
                0,
                0.7071066498756409,
                5.7601170055932016e-08
            ],
            "translation" : [
                -98.98503112792969,
                12.65838623046875,
                3.533339500427246
            ]
        },
        {
            "children" : [
                4
            ],
            "name" : "RootNode"
        },
        {
            "children" : [
                5
            ],
            "name" : "65784a8683f64a47abcd3cd84a8f8683.fbx",
            "rotation" : [
                0.7071068286895752,
                0,
                0,
                0.7071067094802856
            ]
        },
        {
            "children" : [
                6
            ],
            "name" : "Sketchfab_model",
            "rotation" : [
                -0.7071068286895752,
                0,
                0,
                0.7071067094802856
            ]
        }
    ],
    "materials" : [
        {
            "doubleSided" : true,
            "name" : "Material_59",
            "pbrMetallicRoughness" : {
                "baseColorTexture" : {
                    "index" : 0
                },
                "metallicFactor" : 0.026105182245373726,
                "roughnessFactor" : 0.1690167635679245
            }
        },
        {
            "alphaMode" : "BLEND",
            "doubleSided" : true,
            "name" : "Material_60",
            "pbrMetallicRoughness" : {
                "baseColorTexture" : {
                    "index" : 1
                },
                "metallicFactor" : 0,
                "roughnessFactor" : 0.8929713368415833
            }
        },
        {
            "doubleSided" : true,
            "name" : "Material_61",
            "pbrMetallicRoughness" : {
                "baseColorFactor" : [
                    0.1333329975605011,
                    0.050980400294065475,
                    0.050980400294065475,
                    1
                ],
                "metallicFactor" : 0.6846417784690857,
                "roughnessFactor" : 0.24828505516052246
            }
        },
        {
            "alphaMode" : "BLEND",
            "doubleSided" : true,
            "extensions" : {
                "KHR_materials_transmission" : {
                    "transmissionFactor" : 0.04706554859876633
                }
            },
            "name" : "Material_62",
            "pbrMetallicRoughness" : {
                "baseColorFactor" : [
                    0.051542650908231735,
                    0.19138507544994354,
                    0.33582139015197754,
                    0.9529344439506531
                ],
                "metallicFactor" : 0.4163490831851959,
                "roughnessFactor" : 0.0958460345864296
            }
        }
    ],
    "meshes" : [
        {
            "name" : "Loft001_Material #59_0",
            "primitives" : [
                {
                    "attributes" : {
                        "POSITION" : 0,
                        "NORMAL" : 1,
                        "TEXCOORD_0" : 2
                    },
                    "indices" : 3,
                    "material" : 0
                }
            ]
        },
        {
            "name" : "Loft001_Material #60_0",
            "primitives" : [
                {
                    "attributes" : {
                        "POSITION" : 4,
                        "NORMAL" : 5,
                        "TEXCOORD_0" : 6,
                        "TEXCOORD_1" : 7
                    },
                    "indices" : 8,
                    "material" : 1
                }
            ]
        },
        {
            "name" : "Loft001_Material #61_0",
            "primitives" : [
                {
                    "attributes" : {
                        "POSITION" : 9,
                        "NORMAL" : 10,
                        "TEXCOORD_0" : 11
                    },
                    "indices" : 12,
                    "material" : 2
                }
            ]
        },
        {
            "name" : "Loft001_Material #62_0",
            "primitives" : [
                {
                    "attributes" : {
                        "POSITION" : 13,
                        "NORMAL" : 14,
                        "TEXCOORD_0" : 15
                    },
                    "indices" : 16,
                    "material" : 3
                }
            ]
        }
    ],
    "textures" : [
        {
            "sampler" : 0,
            "source" : 0
        },
        {
            "sampler" : 0,
            "source" : 1
        }
    ],
    "images" : [
        {
            "mimeType" : "image/jpeg",
            "name" : "Material_59_baseColor",
            "uri" : "Material_59_baseColor.jpg"
        },
        {
            "mimeType" : "image/png",
            "name" : "Material_60_baseColor",
            "uri" : "Material_60_baseColor.png"
        }
    ],
    "accessors" : [
        {
            "bufferView" : 0,
            "componentType" : 5126,
            "count" : 52,
            "max" : [
                158.8344268798828,
                644.4193115234375,
                212.0154571533203
            ],
            "min" : [
                -158.62232971191406,
                -296.5357360839844,
                211.44187927246094
            ],
            "type" : "VEC3"
        },
        {
            "bufferView" : 1,
            "componentType" : 5126,
            "count" : 52,
            "type" : "VEC3"
        },
        {
            "bufferView" : 2,
            "componentType" : 5126,
            "count" : 52,
            "type" : "VEC2"
        },
        {
            "bufferView" : 3,
            "componentType" : 5123,
            "count" : 84,
            "type" : "SCALAR"
        },
        {
            "bufferView" : 4,
            "componentType" : 5126,
            "count" : 72,
            "max" : [
                43.18692398071289,
                -440.3276672363281,
                113.6035385131836
            ],
            "min" : [
                -55.818870544433594,
                -654.0924072265625,
                62.66634750366211
            ],
            "type" : "VEC3"
        },
        {
            "bufferView" : 5,
            "componentType" : 5126,
            "count" : 72,
            "type" : "VEC3"
        },
        {
            "bufferView" : 6,
            "componentType" : 5126,
            "count" : 72,
            "type" : "VEC2"
        },
        {
            "bufferView" : 7,
            "componentType" : 5126,
            "count" : 72,
            "type" : "VEC2"
        },
        {
            "bufferView" : 8,
            "componentType" : 5123,
            "count" : 327,
            "type" : "SCALAR"
        },
        {
            "bufferView" : 9,
            "componentType" : 5126,
            "count" : 334,
            "max" : [
                83.91988372802734,
                -513.1802978515625,
                83.91988372802734
            ],
            "min" : [
                -83.91988372802734,
                -697.576904296875,
                -83.91988372802734
            ],
            "type" : "VEC3"
        },
        {
            "bufferView" : 10,
            "componentType" : 5126,
            "count" : 334,
            "type" : "VEC3"
        },
        {
            "bufferView" : 11,
            "componentType" : 5126,
            "count" : 334,
            "type" : "VEC2"
        },
        {
            "bufferView" : 12,
            "componentType" : 5123,
            "count" : 1638,
            "type" : "SCALAR"
        },
        {
            "bufferView" : 13,
            "componentType" : 5126,
            "count" : 631,
            "max" : [
                212.7259979248047,
                697.5770263671875,
                212.7679443359375
            ],
            "min" : [
                -212.76441955566406,
                -513.180419921875,
                -212.76345825195312
            ],
            "type" : "VEC3"
        },
        {
            "bufferView" : 14,
            "componentType" : 5126,
            "count" : 631,
            "type" : "VEC3"
        },
        {
            "bufferView" : 15,
            "componentType" : 5126,
            "count" : 631,
            "type" : "VEC2"
        },
        {
            "bufferView" : 16,
            "componentType" : 5123,
            "count" : 2769,
            "type" : "SCALAR"
        }
    ],
    "bufferViews" : [
        {
            "buffer" : 0,
            "byteLength" : 624,
            "byteOffset" : 0,
            "target" : 34962
        },
        {
            "buffer" : 0,
            "byteLength" : 624,
            "byteOffset" : 624,
            "target" : 34962
        },
        {
            "buffer" : 0,
            "byteLength" : 416,
            "byteOffset" : 1248,
            "target" : 34962
        },
        {
            "buffer" : 0,
            "byteLength" : 168,
            "byteOffset" : 1664,
            "target" : 34963
        },
        {
            "buffer" : 0,
            "byteLength" : 864,
            "byteOffset" : 1832,
            "target" : 34962
        },
        {
            "buffer" : 0,
            "byteLength" : 864,
            "byteOffset" : 2696,
            "target" : 34962
        },
        {
            "buffer" : 0,
            "byteLength" : 576,
            "byteOffset" : 3560,
            "target" : 34962
        },
        {
            "buffer" : 0,
            "byteLength" : 576,
            "byteOffset" : 4136,
            "target" : 34962
        },
        {
            "buffer" : 0,
            "byteLength" : 654,
            "byteOffset" : 4712,
            "target" : 34963
        },
        {
            "buffer" : 0,
            "byteLength" : 4008,
            "byteOffset" : 5368,
            "target" : 34962
        },
        {
            "buffer" : 0,
            "byteLength" : 4008,
            "byteOffset" : 9376,
            "target" : 34962
        },
        {
            "buffer" : 0,
            "byteLength" : 2672,
            "byteOffset" : 13384,
            "target" : 34962
        },
        {
            "buffer" : 0,
            "byteLength" : 3276,
            "byteOffset" : 16056,
            "target" : 34963
        },
        {
            "buffer" : 0,
            "byteLength" : 7572,
            "byteOffset" : 19332,
            "target" : 34962
        },
        {
            "buffer" : 0,
            "byteLength" : 7572,
            "byteOffset" : 26904,
            "target" : 34962
        },
        {
            "buffer" : 0,
            "byteLength" : 5048,
            "byteOffset" : 34476,
            "target" : 34962
        },
        {
            "buffer" : 0,
            "byteLength" : 5538,
            "byteOffset" : 39524,
            "target" : 34963
        }
    ],
    "samplers" : [
        {
            "magFilter" : 9729,
            "minFilter" : 9987
        }
    ],
    "buffers" : [
        {
            "byteLength" : 45064,
            "uri" : "gin_bombay_edited.bin"
        }
    ]
}
