{
  "accessors": [
    {
      "bufferView": 2,
      "componentType": 5126,
      "count": 1011,
      "max": [
        -79.53894805908203,
        -34.36853790283203,
        5.646160125732422
      ],
      "min": [
        -140.53045654296875,
        -95.07814025878906,
        2.3176488876342773
      ],
      "type": "VEC3"
    },
    {
      "bufferView": 2,
      "byteOffset": 12132,
      "componentType": 5126,
      "count": 1011,
      "max": [
        0.9909752607345581,
        0.9861181378364563,
        0.9999924898147583
      ],
      "min": [
        -0.9849987626075745,
        -0.9968196153640747,
        -0.9999998807907104
      ],
      "type": "VEC3"
    },
    {
      "bufferView": 3,
      "componentType": 5126,
      "count": 1011,
      "max": [
        0.9595372080802917,
        0.9873842597007751,
        0.9729177355766296,
        1.0
      ],
      "min": [
        -0.9999896883964539,
        -0.9999522566795349,
        -0.9972026348114014,
        1.0
      ],
      "type": "VEC4"
    },
    {
      "bufferView": 1,
      "componentType": 5126,
      "count": 1011,
      "max": [
        0.9280089735984802,
        0.9905629754066467
      ],
      "min": [
        0.008902999572455883,
        0.0
      ],
      "type": "VEC2"
    },
    {
      "bufferView": 0,
      "componentType": 5125,
      "count": 5778,
      "type": "SCALAR"
    },
    {
      "bufferView": 2,
      "byteOffset": 24264,
      "componentType": 5126,
      "count": 7836,
      "max": [
        -78.8230972290039,
        -34.059226989746094,
        6.220333099365234
      ],
      "min": [
        -140.8583221435547,
        -95.3553695678711,
        1.8988569974899292
      ],
      "type": "VEC3"
    },
    {
      "bufferView": 2,
      "byteOffset": 118296,
      "componentType": 5126,
      "count": 7836,
      "max": [
        0.9999661445617676,
        0.9999601244926453,
        0.9999974966049194
      ],
      "min": [
        -0.9999594688415527,
        -0.9999777674674988,
        -0.9999971389770508
      ],
      "type": "VEC3"
    },
    {
      "bufferView": 3,
      "byteOffset": 16176,
      "componentType": 5126,
      "count": 7836,
      "max": [
        0.9999032616615295,
        0.9996294379234314,
        0.9999900460243225,
        1.0
      ],
      "min": [
        -0.999945342540741,
        -0.9999903440475464,
        -0.9999839067459106,
        -1.0
      ],
      "type": "VEC4"
    },
    {
      "bufferView": 1,
      "byteOffset": 8088,
      "componentType": 5126,
      "count": 7836,
      "max": [
        0.9998440146446228,
        0.9858940243721008
      ],
      "min": [
        0.0,
        0.0011439999798312783
      ],
      "type": "VEC2"
    },
    {
      "bufferView": 0,
      "byteOffset": 23112,
      "componentType": 5125,
      "count": 36804,
      "type": "SCALAR"
    }
  ],
  "asset": {
    "extras": {
      "author": "lavakongen (https://sketchfab.com/lavakongen)",
      "license": "CC-BY-4.0 (http://creativecommons.org/licenses/by/4.0/)",
      "source": "https://sketchfab.com/3d-models/dome-window-stained-glass-6eb06f9ea1bf43e78865ef1a030ed4e3",
      "title": "Dome window | Stained glass"
    },
    "generator": "Sketchfab-13.42.0",
    "version": "2.0"
  },
  "bufferViews": [
    {
      "buffer": 0,
      "byteLength": 170328,
      "name": "floatBufferViews",
      "target": 34963
    },
    {
      "buffer": 0,
      "byteLength": 70776,
      "byteOffset": 170328,
      "byteStride": 8,
      "name": "floatBufferViews",
      "target": 34962
    },
    {
      "buffer": 0,
      "byteLength": 212328,
      "byteOffset": 241104,
      "byteStride": 12,
      "name": "floatBufferViews",
      "target": 34962
    },
    {
      "buffer": 0,
      "byteLength": 141552,
      "byteOffset": 453432,
      "byteStride": 16,
      "name": "floatBufferViews",
      "target": 34962
    }
  ],
  "buffers": [
    {
      "byteLength": 594984,
      "uri": "scene.bin"
    }
  ],
  "extensionsUsed": [
    "KHR_materials_clearcoat",
    "KHR_materials_transmission"
  ],
  "images": [
    {
      "uri": "textures/karm2_baseColor.jpeg"
    },
    {
      "uri": "textures/karm2_metallicRoughness.png"
    },
    {
      "uri": "textures/karm2_normal.png"
    },
    {
      "uri": "textures/glass1_baseColor.png"
    },
    {
      "uri": "textures/glass1_metallicRoughness.png"
    },
    {
      "uri": "textures/glass1_normal.png"
    },
    {
      "uri": "textures/glass1_transmission.png"
    }
  ],
  "materials": [
    {
      "doubleSided": true,
      "name": "karm2",
      "normalTexture": {
        "index": 2
      },
      "occlusionTexture": {
        "index": 1
      },
      "pbrMetallicRoughness": {
        "baseColorTexture": {
          "index": 0
        },
        "metallicRoughnessTexture": {
          "index": 1
        }
      }
    },
    {
      "alphaMode": "BLEND",
      "doubleSided": true,
      "extensions": {
        "KHR_materials_clearcoat": {
          "clearcoatFactor": 1.0,
          "clearcoatRoughnessFactor": 0.04
        },
        "KHR_materials_transmission": {
          "transmissionFactor": 1.0,
          "transmissionTexture": {
            "index": 6
          }
        }
      },
      "name": "glass1",
      "normalTexture": {
        "index": 5
      },
      "occlusionTexture": {
        "index": 4
      },
      "pbrMetallicRoughness": {
        "baseColorTexture": {
          "index": 3
        },
        "metallicRoughnessTexture": {
          "index": 4
        }
      }
    }
  ],
  "meshes": [
    {
      "name": "defaultMaterial",
      "primitives": [
        {
          "attributes": {
            "NORMAL": 1,
            "POSITION": 0,
            "TANGENT": 2,
            "TEXCOORD_0": 3
          },
          "indices": 4,
          "material": 1,
          "mode": 4
        }
      ]
    },
    {
      "name": "defaultMaterial",
      "primitives": [
        {
          "attributes": {
            "NORMAL": 6,
            "POSITION": 5,
            "TANGENT": 7,
            "TEXCOORD_0": 8
          },
          "indices": 9,
          "material": 0,
          "mode": 4
        }
      ]
    }
  ],
  "nodes": [
    {
      "children": [
        1
      ],
      "matrix": [
        1.0,
        0.0,
        0.0,
        0.0,
        0.0,
        2.220446049250313e-16,
        -1.0,
        0.0,
        0.0,
        1.0,
        2.220446049250313e-16,
        0.0,
        0.0,
        0.0,
        0.0,
        1.0
      ],
      "name": "Sketchfab_model"
    },
    {
      "children": [
        2,
        4
      ],
      "matrix": [
        1.0,
        0.0,
        0.0,
        0.0,
        0.0,
        -4.371139006309477e-08,
        0.999999999999999,
        0.0,
        0.0,
        -0.999999999999999,
        -4.371139006309477e-08,
        0.0,
        0.0,
        0.0,
        0.0,
        1.0
      ],
      "name": "Collada visual scene group"
    },
    {
      "children": [
        3
      ],
      "name": "glass1"
    },
    {
      "mesh": 0,
      "name": "defaultMaterial"
    },
    {
      "children": [
        5
      ],
      "name": "karm2"
    },
    {
      "mesh": 1,
      "name": "defaultMaterial"
    }
  ],
  "samplers": [
    {
      "magFilter": 9729,
      "minFilter": 9987,
      "wrapS": 10497,
      "wrapT": 10497
    }
  ],
  "scene": 0,
  "scenes": [
    {
      "name": "Sketchfab_Scene",
      "nodes": [
        0
      ]
    }
  ],
  "textures": [
    {
      "sampler": 0,
      "source": 0
    },
    {
      "sampler": 0,
      "source": 1
    },
    {
      "sampler": 0,
      "source": 2
    },
    {
      "sampler": 0,
      "source": 3
    },
    {
      "sampler": 0,
      "source": 4
    },
    {
      "sampler": 0,
      "source": 5
    },
    {
      "sampler": 0,
      "source": 6
    }
  ]
}
